<?xml version="1.0" encoding="utf-8"?>
<!-- Generator: Adobe Illustrator 17.1.0, SVG Export Plug-In . SVG Version: 6.00 Build 0)  -->
<!DOCTYPE svg PUBLIC "-//W3C//DTD SVG 1.1//EN" "http://www.w3.org/Graphics/SVG/1.1/DTD/svg11.dtd">
<svg version="1.1" xmlns="http://www.w3.org/2000/svg" xmlns:xlink="http://www.w3.org/1999/xlink" x="0px" y="0px"
	 viewBox="0 0 127.8 114.2" enable-background="new 0 0 127.8 114.2" xml:space="preserve">
<g id="Rounded_Rect">
	<path fill="#FFFFFF" d="M127.8,102.2c0,6.6-5.4,12-12,12H12c-6.6,0-12-5.4-12-12V12C0,5.4,5.4,0,12,0h103.8c6.6,0,12,5.4,12,12
		V102.2z"/>
</g>
<g id="_x33_30R" display="none">
	<g display="inline">
		<g>
			<defs>
				<path id="SVGID_1_" d="M5.8,0C2.6,0,0,2.6,0,5.8v102.7c0,3.2,2.6,5.8,5.8,5.8H122c3.2,0,5.8-2.6,5.8-5.8V5.8
					c0-3.2-2.6-5.8-5.8-5.8H5.8z"/>
			</defs>
			<clipPath id="SVGID_2_">
				<use xlink:href="#SVGID_1_"  overflow="visible"/>
			</clipPath>
			<polygon clip-path="url(#SVGID_2_)" fill="#BDBEC0" points="147.2,-24.7 60.3,64.3 52.4,72.4 -14.5,140.9 -15.7,139.7 51.2,71.3 
				59.1,63.2 146.1,-25.8 			"/>
			<path clip-path="url(#SVGID_2_)" fill-rule="evenodd" clip-rule="evenodd" fill="#231F20" d="M66.9,52.3
				c-0.1,0.2-0.3,0.3-0.4,0.5c-0.9,1.5-1.6,2.4-2.3,3.2c-0.7,0.7-1.6,1.4-3.1,2.4c-0.2,0.1-0.4,0.3-0.5,0.4c-1.1,1.1-1,2.8-0.3,3.5
				l0.9,0.9c0.8,0.7,2.4,0.8,3.5-0.4c0.1-0.2,0.3-0.3,0.4-0.5c0.9-1.5,1.6-2.4,2.3-3.2c0.7-0.8,1.6-1.4,3.1-2.4
				c0.2-0.1,0.4-0.3,0.5-0.4c1.1-1.1,1-2.8,0.3-3.5l-0.9-0.9c-0.4-0.4-1-0.6-1.7-0.5C68,51.5,67.4,51.8,66.9,52.3"/>
			<path clip-path="url(#SVGID_2_)" fill-rule="evenodd" clip-rule="evenodd" fill="#F5C274" d="M70.4,56.5
				c-2.8,1.8-3.7,2.8-5.5,5.6c-0.9,1.4-2.7,1.6-3.5,0.8l-0.9-0.9c-0.8-0.7-0.7-2.6,0.7-3.5c2.8-1.8,3.7-2.8,5.5-5.6
				c0.9-1.4,2.7-1.6,3.5-0.8l0.9,0.9C71.9,53.7,71.8,55.6,70.4,56.5"/>
		</g>
		<g>
			<defs>
				<path id="SVGID_3_" d="M66.7,52.9c-1.8,2.9-2.7,3.8-5.5,5.6c-1.4,0.9-1.5,2.8-0.7,3.5l0.9,0.9c0.8,0.7,2.6,0.6,3.5-0.8
					c1.8-2.9,2.7-3.8,5.5-5.6c1.4-0.9,1.5-2.8,0.7-3.5l-0.9-0.9c-0.3-0.3-0.8-0.4-1.3-0.4C68.2,51.7,67.3,52.1,66.7,52.9"/>
			</defs>
			<clipPath id="SVGID_4_">
				<use xlink:href="#SVGID_3_"  overflow="visible"/>
			</clipPath>
			<path clip-path="url(#SVGID_4_)" fill="#FF5000" d="M60.9,58.2c-0.2,0.2-0.2,0.5,0,0.7l3.6,3.6c0.2,0.2,0.5,0.2,0.7,0
				c0.2-0.2,0.2-0.5,0-0.7l-3.6-3.6C61.4,58,61,58,60.9,58.2"/>
			<path clip-path="url(#SVGID_4_)" fill="#FF5000" d="M62.8,57c-0.2,0.2-0.2,0.5,0,0.7l3,2.9c0.2,0.2,0.5,0.2,0.7,0
				c0.2-0.2,0.2-0.5,0-0.7l-3-2.9C63.3,56.8,62.9,56.8,62.8,57"/>
			<path clip-path="url(#SVGID_4_)" fill="#A75A29" d="M64.4,55.5c-0.2,0.2-0.2,0.5,0,0.7l2.8,2.7c0.2,0.2,0.5,0.2,0.7,0
				c0.2-0.2,0.2-0.5,0-0.7l-2.8-2.7C64.9,55.3,64.6,55.3,64.4,55.5"/>
			<path clip-path="url(#SVGID_4_)" fill="#BF9B4E" d="M66.9,52c-0.2,0.2-0.2,0.5,0,0.7l3.6,3.6c0.2,0.2,0.5,0.2,0.7,0
				c0.2-0.2,0.2-0.5,0-0.7L67.6,52C67.4,51.8,67.1,51.8,66.9,52"/>
		</g>
	</g>
</g>
<g id="_x31_0K" display="none">
	<g>
		<g>
			<defs>
				<path id="SVGID_5_" d="M5.8,0C2.6,0,0,2.6,0,5.8v102.7c0,3.2,2.6,5.8,5.8,5.8H122c3.2,0,5.8-2.6,5.8-5.8V5.8
					c0-3.2-2.6-5.8-5.8-5.8H5.8z"/>
			</defs>
			<clipPath id="SVGID_6_" display="inline">
				<use xlink:href="#SVGID_5_"  overflow="visible"/>
			</clipPath>
			<polygon display="inline" clip-path="url(#SVGID_6_)" fill="#BDBEC0" points="147.2,-24.7 60.3,64.3 52.4,72.4 -14.5,140.9 
				-15.7,139.7 51.2,71.3 59.1,63.2 146.1,-25.8 			"/>
			<path display="inline" clip-path="url(#SVGID_6_)" fill-rule="evenodd" clip-rule="evenodd" fill="#231F20" d="M66.9,52.3
				c-0.1,0.2-0.3,0.3-0.4,0.5c-0.9,1.5-1.6,2.4-2.3,3.2c-0.7,0.7-1.6,1.4-3.1,2.4c-0.2,0.1-0.4,0.3-0.5,0.4c-1.1,1.1-1,2.8-0.3,3.5
				l0.9,0.9c0.8,0.7,2.4,0.8,3.5-0.4c0.1-0.2,0.3-0.3,0.4-0.5c0.9-1.5,1.6-2.4,2.3-3.2c0.7-0.8,1.6-1.4,3.1-2.4
				c0.2-0.1,0.4-0.3,0.5-0.4c1.1-1.1,1-2.8,0.3-3.5l-0.9-0.9c-0.4-0.4-1-0.6-1.7-0.5C68,51.5,67.4,51.8,66.9,52.3"/>
			<path display="inline" clip-path="url(#SVGID_6_)" fill-rule="evenodd" clip-rule="evenodd" fill="#F5C274" d="M70.4,56.5
				c-2.8,1.8-3.7,2.8-5.5,5.6c-0.9,1.4-2.7,1.6-3.5,0.8l-0.9-0.9c-0.8-0.7-0.7-2.6,0.7-3.5c2.8-1.8,3.7-2.8,5.5-5.6
				c0.9-1.4,2.7-1.6,3.5-0.8l0.9,0.9C71.9,53.7,71.8,55.6,70.4,56.5"/>
		</g>
		<g>
			<defs>
				<path id="SVGID_7_" d="M66.7,52.9c-1.8,2.9-2.7,3.8-5.5,5.6c-1.4,0.9-1.5,2.8-0.7,3.5l0.9,0.9c0.8,0.7,2.6,0.6,3.5-0.8
					c1.8-2.9,2.7-3.8,5.5-5.6c1.4-0.9,1.5-2.8,0.7-3.5l-0.9-0.9c-0.3-0.3-0.8-0.4-1.3-0.4C68.2,51.7,67.3,52.1,66.7,52.9"/>
			</defs>
			<clipPath id="SVGID_8_" display="inline">
				<use xlink:href="#SVGID_7_"  overflow="visible"/>
			</clipPath>
			<path display="inline" clip-path="url(#SVGID_8_)" fill="#FF5000" d="M60.9,58.2c-0.2,0.2-0.2,0.5,0,0.7l3.6,3.6
				c0.2,0.2,0.5,0.2,0.7,0c0.2-0.2,0.2-0.5,0-0.7l-3.6-3.6C61.4,58,61,58,60.9,58.2"/>
			<path display="inline" clip-path="url(#SVGID_8_)" fill="#FF5000" d="M62.8,57c-0.2,0.2-0.2,0.5,0,0.7l3,2.9
				c0.2,0.2,0.5,0.2,0.7,0c0.2-0.2,0.2-0.5,0-0.7l-3-2.9C63.3,56.8,62.9,56.8,62.8,57"/>
			<path display="inline" clip-path="url(#SVGID_8_)" fill="#A75A29" d="M64.4,55.5c-0.2,0.2-0.2,0.5,0,0.7l2.8,2.7
				c0.2,0.2,0.5,0.2,0.7,0c0.2-0.2,0.2-0.5,0-0.7l-2.8-2.7C64.9,55.3,64.6,55.3,64.4,55.5"/>
			<path display="inline" clip-path="url(#SVGID_8_)" fill="#BF9B4E" d="M66.9,52c-0.2,0.2-0.2,0.5,0,0.7l3.6,3.6
				c0.2,0.2,0.5,0.2,0.7,0c0.2-0.2,0.2-0.5,0-0.7L67.6,52C67.4,51.8,67.1,51.8,66.9,52"/>
		</g>
	</g>
	<g display="inline">
		<g>
			<defs>
				<path id="SVGID_9_" d="M5.8,0C2.6,0,0,2.6,0,5.8v102.7c0,3.2,2.6,5.8,5.8,5.8H122c3.2,0,5.8-2.6,5.8-5.8V5.8
					c0-3.2-2.6-5.8-5.8-5.8H5.8z"/>
			</defs>
			<clipPath id="SVGID_10_">
				<use xlink:href="#SVGID_9_"  overflow="visible"/>
			</clipPath>
			<polygon clip-path="url(#SVGID_10_)" fill="#BDBEC0" points="147.2,-24.7 60.3,64.3 52.4,72.4 -14.5,140.9 -15.7,139.7 
				51.2,71.3 59.1,63.2 146.1,-25.8 			"/>
			<path clip-path="url(#SVGID_10_)" fill-rule="evenodd" clip-rule="evenodd" fill="#231F20" d="M66.9,52.3
				c-0.1,0.2-0.3,0.3-0.4,0.5c-0.9,1.5-1.6,2.4-2.3,3.2c-0.7,0.7-1.6,1.4-3.1,2.4c-0.2,0.1-0.4,0.3-0.5,0.4c-1.1,1.1-1,2.8-0.3,3.5
				l0.9,0.9c0.8,0.7,2.4,0.8,3.5-0.4c0.1-0.2,0.3-0.3,0.4-0.5c0.9-1.5,1.6-2.4,2.3-3.2c0.7-0.8,1.6-1.4,3.1-2.4
				c0.2-0.1,0.4-0.3,0.5-0.4c1.1-1.1,1-2.8,0.3-3.5l-0.9-0.9c-0.4-0.4-1-0.6-1.7-0.5C68,51.5,67.4,51.8,66.9,52.3"/>
			<path clip-path="url(#SVGID_10_)" fill-rule="evenodd" clip-rule="evenodd" fill="#F5C274" d="M70.4,56.5
				c-2.8,1.8-3.7,2.8-5.5,5.6c-0.9,1.4-2.7,1.6-3.5,0.8l-0.9-0.9c-0.8-0.7-0.7-2.6,0.7-3.5c2.8-1.8,3.7-2.8,5.5-5.6
				c0.9-1.4,2.7-1.6,3.5-0.8l0.9,0.9C71.9,53.7,71.8,55.6,70.4,56.5"/>
		</g>
		<g>
			<defs>
				<path id="SVGID_11_" d="M66.7,52.9c-1.8,2.9-2.7,3.8-5.5,5.6c-1.4,0.9-1.5,2.8-0.7,3.5l0.9,0.9c0.8,0.7,2.6,0.6,3.5-0.8
					c1.8-2.9,2.7-3.8,5.5-5.6c1.4-0.9,1.5-2.8,0.7-3.5l-0.9-0.9c-0.3-0.3-0.8-0.4-1.3-0.4C68.2,51.7,67.3,52.1,66.7,52.9"/>
			</defs>
			<clipPath id="SVGID_12_">
				<use xlink:href="#SVGID_11_"  overflow="visible"/>
			</clipPath>
			<path clip-path="url(#SVGID_12_)" fill="#A75A29" d="M60.9,58.2c-0.2,0.2-0.2,0.5,0,0.7l3.6,3.6c0.2,0.2,0.5,0.2,0.7,0
				c0.2-0.2,0.2-0.5,0-0.7l-3.6-3.6C61.4,58,61,58,60.9,58.2"/>
			<path clip-path="url(#SVGID_12_)" fill="#231F20" d="M62.8,57c-0.2,0.2-0.2,0.5,0,0.7l3,2.9c0.2,0.2,0.5,0.2,0.7,0
				c0.2-0.2,0.2-0.5,0-0.7l-3-2.9C63.3,56.8,62.9,56.8,62.8,57"/>
			<path clip-path="url(#SVGID_12_)" fill="#FF5000" d="M64.4,55.5c-0.2,0.2-0.2,0.5,0,0.7l2.8,2.7c0.2,0.2,0.5,0.2,0.7,0
				c0.2-0.2,0.2-0.5,0-0.7l-2.8-2.7C64.9,55.3,64.6,55.3,64.4,55.5"/>
			<path clip-path="url(#SVGID_12_)" fill="#BF9B4E" d="M66.9,52c-0.2,0.2-0.2,0.5,0,0.7l3.6,3.6c0.2,0.2,0.5,0.2,0.7,0
				c0.2-0.2,0.2-0.5,0-0.7L67.6,52C67.4,51.8,67.1,51.8,66.9,52"/>
		</g>
	</g>
</g>
<g id="LDR">
	<g>
		<path fill="#E7E7E7" d="M86.8,27.6H46.9c-8.3,0-17.3,13.1-17.3,29.3c0,16.2,8.9,29.3,17.3,29.3h39.9c8.3,0,17.3-13.1,17.3-29.3
			C104.1,40.8,95.1,27.6,86.8,27.6"/>
		<path fill="#E7E7E7" d="M36.6,56.9c0-2.8,2.3-5.2,5.2-5.2s5.2,2.3,5.2,5.2c0,2.8-2.3,5.2-5.2,5.2S36.6,59.8,36.6,56.9"/>
		<circle fill="none" stroke="#231F20" stroke-width="0.326" stroke-miterlimit="10" cx="41.7" cy="56.9" r="5.2"/>
		<path fill="#E7E7E7" d="M86.8,56.9c0-2.8,2.3-5.2,5.2-5.2c2.8,0,5.2,2.3,5.2,5.2c0,2.8-2.3,5.2-5.2,5.2
			C89.1,62.1,86.8,59.8,86.8,56.9"/>
		<circle fill="none" stroke="#231F20" stroke-width="0.326" stroke-miterlimit="10" cx="92" cy="56.9" r="5.2"/>
		<path fill="#AD3D2F" d="M50.1,40.9h1.8h31.9h0.6c2.3,0,4.1-2.1,4.1-4.8c0-2.6-1.8-4.8-4.1-4.8H39c-0.8,0.8-1.6,1.6-2.3,2.6h47.7
			c1,0,1.9,1,1.9,2.2c0,1.2-0.9,2.2-1.9,2.2h-0.6H51.9h-1.8c-2.3,0-4.1,2.1-4.1,4.8c0,2.6,1.8,4.8,4.1,4.8h1.5h26.3h0.6
			c1,0,1.9,1,1.9,2.2c0,1.2-0.9,2.2-1.9,2.2h-0.6H56.3c-2.3,0-4.1,2.1-4.1,4.8c0,2.6,1.8,4.8,4.1,4.8h2h19.6h0.6c1,0,1.9,1,1.9,2.2
			c0,1.2-0.9,2.2-1.9,2.2h-0.6h-26h-1.8c-1.1,0-2.1,0.5-2.9,1.4C46.4,68.5,46,69.7,46,71c0,2.6,1.8,4.8,4.1,4.8h1.8h31.9h0.6
			c1,0,1.9,1,1.9,2.2c0,1.2-0.9,2.2-1.9,2.2h-2.8H59.8H36.9c0.8,1,1.5,1.8,2.4,2.6h20.6h21.8h2.8c2.3,0,4.1-2.1,4.1-4.8
			c0-2.6-1.8-4.8-4.1-4.8h-0.6H51.9h-1.8c-1,0-1.9-1-1.9-2.2c0-0.6,0.2-1.1,0.6-1.6c0.4-0.4,0.8-0.6,1.3-0.6h1.8h26h0.6
			c2.3,0,4.1-2.1,4.1-4.8c0-2.6-1.8-4.8-4.1-4.8h-0.6H58.3h-2c-1,0-1.9-1-1.9-2.2c0-1.2,0.9-2.2,1.9-2.2H58l20.4,0
			c2.3,0,4.1-2.1,4.1-4.8c0-2.6-1.8-4.8-4.1-4.8h-0.6H51.6h-1.5c-1,0-1.9-1-1.9-2.2C48.2,41.9,49,40.9,50.1,40.9"/>
		<path fill="none" stroke="#231F20" stroke-width="0.326" stroke-miterlimit="10" d="M86.8,27.6H46.9c-8.3,0-17.3,13.1-17.3,29.3
			c0,16.2,8.9,29.3,17.3,29.3h39.9c8.3,0,17.3-13.1,17.3-29.3C104.1,40.8,95.1,27.6,86.8,27.6z"/>
	</g>
</g>
<g id="LDR_pins" display="none">
	<rect x="45.5" y="4.4" display="inline" fill="#A3A2A2" width="2.8" height="23.3"/>
	<rect x="84" y="4.4" display="inline" fill="#A3A2A2" width="2.8" height="23.3"/>
</g>
<g id="LDR_copy" display="none">
	<g display="inline">
		<path fill="#E7E7E7" d="M86.8,27.6H46.9c-8.3,0-17.3,13.1-17.3,29.3c0,16.2,8.9,29.3,17.3,29.3h39.9c8.3,0,17.3-13.1,17.3-29.3
			C104.1,40.8,95.1,27.6,86.8,27.6"/>
		<path fill="#E7E7E7" d="M36.6,56.9c0-2.8,2.3-5.2,5.2-5.2s5.2,2.3,5.2,5.2c0,2.8-2.3,5.2-5.2,5.2S36.6,59.8,36.6,56.9"/>
		<circle fill="none" stroke="#231F20" stroke-width="0.326" stroke-miterlimit="10" cx="41.7" cy="56.9" r="5.2"/>
		<path fill="#E7E7E7" d="M86.8,56.9c0-2.8,2.3-5.2,5.2-5.2c2.8,0,5.2,2.3,5.2,5.2c0,2.8-2.3,5.2-5.2,5.2
			C89.1,62.1,86.8,59.8,86.8,56.9"/>
		<circle fill="none" stroke="#231F20" stroke-width="0.326" stroke-miterlimit="10" cx="92" cy="56.9" r="5.2"/>
		<path fill="#AD3D2F" d="M50.1,40.9h1.8h31.9h0.6c2.3,0,4.1-2.1,4.1-4.8c0-2.6-1.8-4.8-4.1-4.8H39c-0.8,0.8-1.6,1.6-2.3,2.6h47.7
			c1,0,1.9,1,1.9,2.2c0,1.2-0.9,2.2-1.9,2.2h-0.6H51.9h-1.8c-2.3,0-4.1,2.1-4.1,4.8c0,2.6,1.8,4.8,4.1,4.8h1.5h26.3h0.6
			c1,0,1.9,1,1.9,2.2c0,1.2-0.9,2.2-1.9,2.2h-0.6H56.3c-2.3,0-4.1,2.1-4.1,4.8c0,2.6,1.8,4.8,4.1,4.8h2h19.6h0.6c1,0,1.9,1,1.9,2.2
			c0,1.2-0.9,2.2-1.9,2.2h-0.6h-26h-1.8c-1.1,0-2.1,0.5-2.9,1.4C46.4,68.5,46,69.7,46,71c0,2.6,1.8,4.8,4.1,4.8h1.8h31.9h0.6
			c1,0,1.9,1,1.9,2.2c0,1.2-0.9,2.2-1.9,2.2h-2.8H59.8H36.9c0.8,1,1.5,1.8,2.4,2.6h20.6h21.8h2.8c2.3,0,4.1-2.1,4.1-4.8
			c0-2.6-1.8-4.8-4.1-4.8h-0.6H51.9h-1.8c-1,0-1.9-1-1.9-2.2c0-0.6,0.2-1.1,0.6-1.6c0.4-0.4,0.8-0.6,1.3-0.6h1.8h26h0.6
			c2.3,0,4.1-2.1,4.1-4.8c0-2.6-1.8-4.8-4.1-4.8h-0.6H58.3h-2c-1,0-1.9-1-1.9-2.2c0-1.2,0.9-2.2,1.9-2.2H58l20.4,0
			c2.3,0,4.1-2.1,4.1-4.8c0-2.6-1.8-4.8-4.1-4.8h-0.6H51.6h-1.5c-1,0-1.9-1-1.9-2.2C48.2,41.9,49,40.9,50.1,40.9"/>
		<path fill="none" stroke="#231F20" stroke-width="0.326" stroke-miterlimit="10" d="M86.8,27.6H46.9c-8.3,0-17.3,13.1-17.3,29.3
			c0,16.2,8.9,29.3,17.3,29.3h39.9c8.3,0,17.3-13.1,17.3-29.3C104.1,40.8,95.1,27.6,86.8,27.6z"/>
	</g>
</g>
</svg>
