<?xml version="1.0" encoding="utf-8"?>
<!-- Generator: Adobe Illustrator 17.0.2, SVG Export Plug-In . SVG Version: 6.00 Build 0)  -->
<!DOCTYPE svg PUBLIC "-//W3C//DTD SVG 1.1//EN" "http://www.w3.org/Graphics/SVG/1.1/DTD/svg11.dtd">
<svg version="1.1" xmlns="http://www.w3.org/2000/svg" xmlns:xlink="http://www.w3.org/1999/xlink" x="0px" y="0px" width="128px"
	 height="128px" viewBox="0 0 128 128" enable-background="new 0 0 128 128" xml:space="preserve">
<g id="Layer_2" display="none">
	
		<rect x="-8.677" y="11.595" display="inline" fill="#E81E25" stroke="#45537D" stroke-width="0.5358" stroke-linejoin="round" stroke-miterlimit="10" width="141.307" height="98.419"/>
</g>
<g id="Layer_1">
	
		<rect x="3.027" y="48.358" display="none" fill="#FFFFFF" stroke="#FFFFFF" stroke-width="2.1432" stroke-miterlimit="10" width="44.254" height="31.72"/>
	
		<rect x="39.034" y="35.713" display="none" fill="#FFFFFF" stroke="#FFFFFF" stroke-width="2.1432" stroke-miterlimit="10" width="11.359" height="55.51"/>
	<path display="none" fill="#FFFFFF" stroke="#FFFFFF" stroke-width="2.1432" stroke-miterlimit="10" d="M124.013,91.187
		c0,5.445-4.414,9.859-9.859,9.859H60.252c-5.445,0-9.859-4.414-9.859-9.859V35.998c0-5.445,4.414-9.859,9.859-9.859h53.903
		c5.445,0,9.859,4.414,9.859,9.859V91.187z"/>
	
		<rect x="39.034" y="35.713" fill="#FFFFFF" stroke="#45537D" stroke-linejoin="round" stroke-miterlimit="10" width="11.359" height="55.51"/>
	<path fill="#FFFFFF" stroke="#45537D" stroke-linejoin="round" stroke-miterlimit="10" d="M124.013,91.187
		c0,5.445-4.414,9.859-9.859,9.859H60.252c-5.445,0-9.859-4.414-9.859-9.859V35.998c0-5.445,4.414-9.859,9.859-9.859h53.903
		c5.445,0,9.859,4.414,9.859,9.859V91.187z"/>
	<path fill="none" stroke="#45537D" stroke-linejoin="round" stroke-miterlimit="10" d="M119.697,87.951
		c0,4.806-3.896,8.703-8.703,8.703H63.412c-4.806,0-8.703-3.896-8.703-8.703V39.234c0-4.806,3.896-8.703,8.703-8.703h47.582
		c4.806,0,8.703,3.896,8.703,8.703V87.951z"/>
	
		<path fill="#FFFFFF" stroke="#45537D" stroke-width="0.4286" stroke-linecap="round" stroke-linejoin="round" stroke-miterlimit="10" d="
		M48.285,49.644c0,0.592-0.48,1.072-1.072,1.072h-5.001c-0.592,0-1.072-0.48-1.072-1.072v-1.572c0-0.592,0.48-1.072,1.072-1.072
		h5.001c0.592,0,1.072,0.48,1.072,1.072V49.644z"/>
	
		<path fill="#FFFFFF" stroke="#45537D" stroke-width="0.4286" stroke-linecap="round" stroke-linejoin="round" stroke-miterlimit="10" d="
		M48.285,80.435c0,0.592-0.48,1.072-1.072,1.072h-5.001c-0.592,0-1.072-0.48-1.072-1.072v-1.572c0-0.592,0.48-1.072,1.072-1.072
		h5.001c0.592,0,1.072,0.48,1.072,1.072V80.435z"/>
	
		<rect x="3.027" y="48.358" fill="#FFFFFF" stroke="#45537D" stroke-linejoin="round" stroke-miterlimit="10" width="44.254" height="31.72"/>
	
		<rect x="12.815" y="52.073" fill="#FFFFFF" stroke="#45537D" stroke-width="0.4286" stroke-linejoin="round" stroke-miterlimit="10" width="4.286" height="8.716"/>
	
		<rect x="12.815" y="67.674" fill="#FFFFFF" stroke="#45537D" stroke-width="0.4286" stroke-linejoin="round" stroke-miterlimit="10" width="4.286" height="8.716"/>
	
		<polyline fill="#FFFFFF" stroke="#45537D" stroke-width="0.4286" stroke-linecap="round" stroke-linejoin="round" stroke-miterlimit="10" points="
		42.892,68.361 38.748,68.361 38.748,60.074 42.892,60.074 	"/>
	<path fill="#FFFFFF" stroke="#45537D" stroke-width="0.4286" stroke-linejoin="round" stroke-miterlimit="10" d="M22.316,58.619
		c0,0.355-0.288,0.643-0.643,0.643l0,0c-0.355,0-0.643-0.288-0.643-0.643v-4.376c0-0.355,0.288-0.643,0.643-0.643l0,0
		c0.355,0,0.643,0.288,0.643,0.643V58.619z"/>
	<path fill="#FFFFFF" stroke="#45537D" stroke-width="0.4286" stroke-linejoin="round" stroke-miterlimit="10" d="M22.316,74.22
		c0,0.355-0.288,0.643-0.643,0.643l0,0c-0.355,0-0.643-0.288-0.643-0.643v-4.376c0-0.355,0.288-0.643,0.643-0.643l0,0
		c0.355,0,0.643,0.288,0.643,0.643V74.22z"/>
	
		<rect x="47.281" y="54.466" fill="#FFFFFF" stroke="#45537D" stroke-width="0.4286" stroke-linecap="round" stroke-linejoin="round" stroke-miterlimit="10" width="3.112" height="2.036"/>
	
		<rect x="47.281" y="60.253" fill="#FFFFFF" stroke="#45537D" stroke-width="0.4286" stroke-linecap="round" stroke-linejoin="round" stroke-miterlimit="10" width="3.112" height="2.036"/>
	
		<rect x="47.281" y="66.04" fill="#FFFFFF" stroke="#45537D" stroke-width="0.4286" stroke-linecap="round" stroke-linejoin="round" stroke-miterlimit="10" width="3.112" height="2.036"/>
	
		<rect x="47.281" y="71.826" fill="#FFFFFF" stroke="#45537D" stroke-width="0.4286" stroke-linecap="round" stroke-linejoin="round" stroke-miterlimit="10" width="3.112" height="2.036"/>
	<g>
		
			<path fill="#FFFFFF" stroke="#E62E2F" stroke-width="0.8573" stroke-linecap="round" stroke-linejoin="round" stroke-miterlimit="10" d="
			M92.313,61.574"/>
		<rect x="68.343" y="75.345" fill="#FFFFFF" width="3.429" height="3.429"/>
		<rect x="71.772" y="75.345" fill="#FFFFFF" width="3.429" height="3.429"/>
		<rect x="75.201" y="75.345" fill="#FFFFFF" width="3.429" height="3.429"/>
		<rect x="78.63" y="75.345" fill="#FFFFFF" width="3.429" height="3.429"/>
		<rect x="82.059" y="75.345" fill="#FFFFFF" width="3.429" height="3.429"/>
		<rect x="85.489" y="75.345" fill="#FFFFFF" width="3.429" height="3.429"/>
		<rect x="88.918" y="75.345" fill="#FFFFFF" width="3.429" height="3.429"/>
		<rect x="92.313" y="75.345" fill="#FFFFFF" width="3.429" height="3.429"/>
		<rect x="95.742" y="75.345" fill="#FFFFFF" width="3.429" height="3.429"/>
		<rect x="99.171" y="75.345" fill="#FFFFFF" width="3.429" height="3.429"/>
		<rect x="102.601" y="75.345" fill="#FFFFFF" width="3.429" height="3.429"/>
		<rect x="106.03" y="75.345" fill="#FFFFFF" width="3.429" height="3.429"/>
		<rect x="109.459" y="75.345" fill="#FFFFFF" width="3.429" height="3.429"/>
		<rect x="64.913" y="75.345" fill="#FFFFFF" width="3.429" height="3.429"/>
		<rect x="68.343" y="37.999" fill="#FFFFFF" width="3.429" height="3.429"/>
		<rect x="71.772" y="37.999" fill="#FFFFFF" width="3.429" height="3.429"/>
		<rect x="75.201" y="37.999" fill="#FFFFFF" width="3.429" height="3.429"/>
		<rect x="78.63" y="37.999" fill="#FFFFFF" width="3.429" height="3.429"/>
		<rect x="82.059" y="37.999" fill="#FFFFFF" width="3.429" height="3.429"/>
		<rect x="85.489" y="37.999" fill="#FFFFFF" width="3.429" height="3.429"/>
		<rect x="88.918" y="37.999" fill="#FFFFFF" width="3.429" height="3.429"/>
		<rect x="92.313" y="37.999" fill="#FFFFFF" width="3.429" height="3.429"/>
		<rect x="95.742" y="37.999" fill="#FFFFFF" width="3.429" height="3.429"/>
		<rect x="99.171" y="37.999" fill="#FFFFFF" width="3.429" height="3.429"/>
		<rect x="102.601" y="37.999" fill="#FFFFFF" width="3.429" height="3.429"/>
		<rect x="106.03" y="37.999" fill="#FFFFFF" width="3.429" height="3.429"/>
		<rect x="109.459" y="37.999" fill="#FFFFFF" width="3.429" height="3.429"/>
		<rect x="64.913" y="37.999" fill="#FFFFFF" width="3.429" height="3.429"/>
		<rect x="68.343" y="41.428" fill="#FFFFFF" width="3.429" height="3.429"/>
		<rect x="71.772" y="41.428" fill="#45537D" width="3.429" height="3.429"/>
		<rect x="75.201" y="41.428" fill="#45537D" width="3.429" height="3.429"/>
		<rect x="78.63" y="41.428" fill="#FFFFFF" width="3.429" height="3.429"/>
		<rect x="82.059" y="41.428" fill="#FFFFFF" width="3.429" height="3.429"/>
		<rect x="85.489" y="41.428" fill="#FFFFFF" width="3.429" height="3.429"/>
		<rect x="88.918" y="41.428" fill="#FFFFFF" width="3.429" height="3.429"/>
		<rect x="92.313" y="41.428" fill="#FFFFFF" width="3.429" height="3.429"/>
		<rect x="95.742" y="41.428" fill="#45537D" width="3.429" height="3.429"/>
		<rect x="99.171" y="41.428" fill="#45537D" width="3.429" height="3.429"/>
		<rect x="102.601" y="41.428" fill="#FFFFFF" width="3.429" height="3.429"/>
		<rect x="106.03" y="41.428" fill="#FFFFFF" width="3.429" height="3.429"/>
		<rect x="109.459" y="41.428" fill="#FFFFFF" width="3.429" height="3.429"/>
		<rect x="64.913" y="41.428" fill="#FFFFFF" width="3.429" height="3.429"/>
		<rect x="68.343" y="44.75" fill="#45537D" width="3.429" height="3.429"/>
		<rect x="71.772" y="44.75" fill="#45537D" width="3.429" height="3.429"/>
		<rect x="75.201" y="44.75" fill="#45537D" width="3.429" height="3.429"/>
		<rect x="78.63" y="44.75" fill="#45537D" width="3.429" height="3.429"/>
		<rect x="82.059" y="44.75" fill="#FFFFFF" width="3.429" height="3.429"/>
		<rect x="85.489" y="44.75" fill="#FFFFFF" width="3.429" height="3.429"/>
		<rect x="88.918" y="44.75" fill="#FFFFFF" width="3.429" height="3.429"/>
		<rect x="92.313" y="44.75" fill="#45537D" width="3.429" height="3.429"/>
		<rect x="95.742" y="44.75" fill="#45537D" width="3.429" height="3.429"/>
		<rect x="99.171" y="44.75" fill="#45537D" width="3.429" height="3.429"/>
		<rect x="102.601" y="44.75" fill="#45537D" width="3.429" height="3.429"/>
		<rect x="106.03" y="44.75" fill="#FFFFFF" width="3.429" height="3.429"/>
		<rect x="109.459" y="44.75" fill="#FFFFFF" width="3.429" height="3.429"/>
		<rect x="64.913" y="44.75" fill="#FFFFFF" width="3.429" height="3.429"/>
		<rect x="68.343" y="48.179" fill="#45537D" width="3.429" height="3.429"/>
		<rect x="71.772" y="48.179" fill="#45537D" width="3.429" height="3.429"/>
		<rect x="75.201" y="48.179" fill="#45537D" width="3.429" height="3.429"/>
		<rect x="78.63" y="48.179" fill="#45537D" width="3.429" height="3.429"/>
		<rect x="82.059" y="48.179" fill="#45537D" width="3.429" height="3.429"/>
		<rect x="85.489" y="48.179" fill="#FFFFFF" width="3.429" height="3.429"/>
		<rect x="88.918" y="48.179" fill="#45537D" width="3.429" height="3.429"/>
		<rect x="92.313" y="48.179" fill="#45537D" width="3.429" height="3.429"/>
		<rect x="95.742" y="48.179" fill="#45537D" width="3.429" height="3.429"/>
		<rect x="99.171" y="48.179" fill="#45537D" width="3.429" height="3.429"/>
		<rect x="102.601" y="48.179" fill="#45537D" width="3.429" height="3.429"/>
		<rect x="106.03" y="48.179" fill="#FFFFFF" width="3.429" height="3.429"/>
		<rect x="109.459" y="48.179" fill="#FFFFFF" width="3.429" height="3.429"/>
		<rect x="64.913" y="48.179" fill="#FFFFFF" width="3.429" height="3.429"/>
		<rect x="68.343" y="51.608" fill="#45537D" width="3.429" height="3.429"/>
		<rect x="71.772" y="51.608" fill="#45537D" width="3.429" height="3.429"/>
		<rect x="75.201" y="51.608" fill="#45537D" width="3.429" height="3.429"/>
		<rect x="78.63" y="51.608" fill="#45537D" width="3.429" height="3.429"/>
		<rect x="82.059" y="51.608" fill="#45537D" width="3.429" height="3.429"/>
		<rect x="85.489" y="51.608" fill="#45537D" width="3.429" height="3.429"/>
		<rect x="88.918" y="51.608" fill="#45537D" width="3.429" height="3.429"/>
		<rect x="92.313" y="51.608" fill="#45537D" width="3.429" height="3.429"/>
		<rect x="95.742" y="51.608" fill="#45537D" width="3.429" height="3.429"/>
		<rect x="99.171" y="51.608" fill="#45537D" width="3.429" height="3.429"/>
		<rect x="102.601" y="51.608" fill="#45537D" width="3.429" height="3.429"/>
		<rect x="106.03" y="51.608" fill="#FFFFFF" width="3.429" height="3.429"/>
		<rect x="109.459" y="51.608" fill="#FFFFFF" width="3.429" height="3.429"/>
		<rect x="64.913" y="51.608" fill="#FFFFFF" width="3.429" height="3.429"/>
		<rect x="68.343" y="55.038" fill="#45537D" width="3.429" height="3.429"/>
		<rect x="71.772" y="55.038" fill="#45537D" width="3.429" height="3.429"/>
		<rect x="75.201" y="55.038" fill="#45537D" width="3.429" height="3.429"/>
		<rect x="78.63" y="55.038" fill="#45537D" width="3.429" height="3.429"/>
		<rect x="82.059" y="55.038" fill="#45537D" width="3.429" height="3.429"/>
		<rect x="85.489" y="55.038" fill="#45537D" width="3.429" height="3.429"/>
		<rect x="88.918" y="55.038" fill="#45537D" width="3.429" height="3.429"/>
		<rect x="92.313" y="55.038" fill="#45537D" width="3.429" height="3.429"/>
		<rect x="95.742" y="55.038" fill="#45537D" width="3.429" height="3.429"/>
		<rect x="99.171" y="55.038" fill="#45537D" width="3.429" height="3.429"/>
		<rect x="102.601" y="55.038" fill="#45537D" width="3.429" height="3.429"/>
		<rect x="106.03" y="55.038" fill="#FFFFFF" width="3.429" height="3.429"/>
		<rect x="109.459" y="55.038" fill="#FFFFFF" width="3.429" height="3.429"/>
		<rect x="64.913" y="55.038" fill="#FFFFFF" width="3.429" height="3.429"/>
		<rect x="68.343" y="58.36" fill="#FFFFFF" width="3.429" height="3.429"/>
		<rect x="71.772" y="58.36" fill="#45537D" width="3.429" height="3.429"/>
		<rect x="75.201" y="58.36" fill="#45537D" width="3.429" height="3.429"/>
		<rect x="78.63" y="58.36" fill="#45537D" width="3.429" height="3.429"/>
		<rect x="82.059" y="58.36" fill="#45537D" width="3.429" height="3.429"/>
		<rect x="85.489" y="58.36" fill="#45537D" width="3.429" height="3.429"/>
		<rect x="88.918" y="58.36" fill="#45537D" width="3.429" height="3.429"/>
		<rect x="92.313" y="58.36" fill="#45537D" width="3.429" height="3.429"/>
		<rect x="95.742" y="58.36" fill="#45537D" width="3.429" height="3.429"/>
		<rect x="99.171" y="58.36" fill="#45537D" width="3.429" height="3.429"/>
		<rect x="102.601" y="58.36" fill="#FFFFFF" width="3.429" height="3.429"/>
		<rect x="106.03" y="58.36" fill="#FFFFFF" width="3.429" height="3.429"/>
		<rect x="109.459" y="58.36" fill="#FFFFFF" width="3.429" height="3.429"/>
		<rect x="64.913" y="58.36" fill="#FFFFFF" width="3.429" height="3.429"/>
		<rect x="68.343" y="61.789" fill="#FFFFFF" width="3.429" height="3.429"/>
		<rect x="71.772" y="61.789" fill="#FFFFFF" width="3.429" height="3.429"/>
		<rect x="75.201" y="61.789" fill="#45537D" width="3.429" height="3.429"/>
		<rect x="78.63" y="61.789" fill="#45537D" width="3.429" height="3.429"/>
		<rect x="82.059" y="61.789" fill="#45537D" width="3.429" height="3.429"/>
		<rect x="85.489" y="61.789" fill="#45537D" width="3.429" height="3.429"/>
		<rect x="88.918" y="61.789" fill="#45537D" width="3.429" height="3.429"/>
		<rect x="92.313" y="61.789" fill="#45537D" width="3.429" height="3.429"/>
		<rect x="95.742" y="61.789" fill="#45537D" width="3.429" height="3.429"/>
		<rect x="99.171" y="61.789" fill="#FFFFFF" width="3.429" height="3.429"/>
		<rect x="102.601" y="61.789" fill="#FFFFFF" width="3.429" height="3.429"/>
		<rect x="106.03" y="61.789" fill="#FFFFFF" width="3.429" height="3.429"/>
		<rect x="109.459" y="61.789" fill="#FFFFFF" width="3.429" height="3.429"/>
		<rect x="64.913" y="61.789" fill="#FFFFFF" width="3.429" height="3.429"/>
		<rect x="68.343" y="65.218" fill="#FFFFFF" width="3.429" height="3.429"/>
		<rect x="71.772" y="65.218" fill="#FFFFFF" width="3.429" height="3.429"/>
		<rect x="75.201" y="65.218" fill="#FFFFFF" width="3.429" height="3.429"/>
		<rect x="78.63" y="65.218" fill="#45537D" width="3.429" height="3.429"/>
		<rect x="82.059" y="65.218" fill="#45537D" width="3.429" height="3.429"/>
		<rect x="85.489" y="65.218" fill="#45537D" width="3.429" height="3.429"/>
		<rect x="88.918" y="65.218" fill="#45537D" width="3.429" height="3.429"/>
		<rect x="92.313" y="65.218" fill="#45537D" width="3.429" height="3.429"/>
		<rect x="95.742" y="65.218" fill="#FFFFFF" width="3.429" height="3.429"/>
		<rect x="99.171" y="65.218" fill="#FFFFFF" width="3.429" height="3.429"/>
		<rect x="102.601" y="65.218" fill="#FFFFFF" width="3.429" height="3.429"/>
		<rect x="106.03" y="65.218" fill="#FFFFFF" width="3.429" height="3.429"/>
		<rect x="109.459" y="65.218" fill="#FFFFFF" width="3.429" height="3.429"/>
		<rect x="64.913" y="65.218" fill="#FFFFFF" width="3.429" height="3.429"/>
		<rect x="68.343" y="68.647" fill="#FFFFFF" width="3.429" height="3.429"/>
		<rect x="71.772" y="68.647" fill="#FFFFFF" width="3.429" height="3.429"/>
		<rect x="75.201" y="68.647" fill="#FFFFFF" width="3.429" height="3.429"/>
		<rect x="78.63" y="68.647" fill="#FFFFFF" width="3.429" height="3.429"/>
		<rect x="82.059" y="68.647" fill="#45537D" width="3.429" height="3.429"/>
		<rect x="85.489" y="68.647" fill="#45537D" width="3.429" height="3.429"/>
		<rect x="88.918" y="68.647" fill="#45537D" width="3.429" height="3.429"/>
		<rect x="92.313" y="68.647" fill="#FFFFFF" width="3.429" height="3.429"/>
		<rect x="95.742" y="68.647" fill="#FFFFFF" width="3.429" height="3.429"/>
		<rect x="99.171" y="68.647" fill="#FFFFFF" width="3.429" height="3.429"/>
		<rect x="102.601" y="68.647" fill="#FFFFFF" width="3.429" height="3.429"/>
		<rect x="106.03" y="68.647" fill="#FFFFFF" width="3.429" height="3.429"/>
		<rect x="109.459" y="68.647" fill="#FFFFFF" width="3.429" height="3.429"/>
		<rect x="64.913" y="68.647" fill="#FFFFFF" width="3.429" height="3.429"/>
		<rect x="68.343" y="71.969" fill="#FFFFFF" width="3.429" height="3.429"/>
		<rect x="71.772" y="71.969" fill="#FFFFFF" width="3.429" height="3.429"/>
		<rect x="75.201" y="71.969" fill="#FFFFFF" width="3.429" height="3.429"/>
		<rect x="78.63" y="71.969" fill="#FFFFFF" width="3.429" height="3.429"/>
		<rect x="82.059" y="71.969" fill="#FFFFFF" width="3.429" height="3.429"/>
		<rect x="85.489" y="71.969" fill="#45537D" width="3.429" height="3.429"/>
		<rect x="88.918" y="71.969" fill="#FFFFFF" width="3.429" height="3.429"/>
		<rect x="92.313" y="71.969" fill="#FFFFFF" width="3.429" height="3.429"/>
		<rect x="95.742" y="71.969" fill="#FFFFFF" width="3.429" height="3.429"/>
		<rect x="99.171" y="71.969" fill="#FFFFFF" width="3.429" height="3.429"/>
		<rect x="102.601" y="71.969" fill="#FFFFFF" width="3.429" height="3.429"/>
		<rect x="106.03" y="71.969" fill="#FFFFFF" width="3.429" height="3.429"/>
		<rect x="109.459" y="71.969" fill="#FFFFFF" width="3.429" height="3.429"/>
		<rect x="61.501" y="75.345" fill="#FFFFFF" width="3.429" height="3.429"/>
		<rect x="61.501" y="37.999" fill="#FFFFFF" width="3.429" height="3.429"/>
		<rect x="61.501" y="41.428" fill="#FFFFFF" width="3.429" height="3.429"/>
		<rect x="61.501" y="44.75" fill="#FFFFFF" width="3.429" height="3.429"/>
		<rect x="61.501" y="48.179" fill="#FFFFFF" width="3.429" height="3.429"/>
		<rect x="61.501" y="51.608" fill="#FFFFFF" width="3.429" height="3.429"/>
		<rect x="61.501" y="55.038" fill="#FFFFFF" width="3.429" height="3.429"/>
		<rect x="61.501" y="58.36" fill="#FFFFFF" width="3.429" height="3.429"/>
		<rect x="61.501" y="61.789" fill="#FFFFFF" width="3.429" height="3.429"/>
		<rect x="61.501" y="65.218" fill="#FFFFFF" width="3.429" height="3.429"/>
		<rect x="61.501" y="68.647" fill="#FFFFFF" width="3.429" height="3.429"/>
		<rect x="61.501" y="71.969" fill="#FFFFFF" width="3.429" height="3.429"/>
		<rect x="64.913" y="71.969" fill="#FFFFFF" width="3.429" height="3.429"/>
	</g>
	
		<rect x="61.501" y="37.945" fill="none" stroke="#45537D" stroke-linejoin="round" stroke-miterlimit="10" width="51.404" height="40.829"/>
</g>
</svg>
