<svg xmlns="http://www.w3.org/2000/svg" xmlns:xlink="http://www.w3.org/1999/xlink" version="1.0" x="0px" y="0px" width="100px" height="100px" viewBox="0 0 100 100" overflow="" enable-background="new 0 0 100 100" xml:space="preserve">
    <path d="M30.178,11.115c-8.66,1.426-16.903,4.077-24.546,7.787c-0.453,0.207-0.767,0.667-0.767,1.195 c0,0.071,0.006,0.142,0.017,0.208l1.328,10c0.087,0.646,0.64,1.15,1.308,1.15c0.226,0,0.439-0.058,0.624-0.158 c6.543-3.511,13.661-6.111,21.16-7.638L30.178,11.115z"/>
    <path d="M74.019,49.062c-1.437,0-2.731,0.617-3.627,1.598l-9.069,10.486c-0.9,1.032-2.221,1.688-3.706,1.688 c-2.708,0-4.907-2.201-4.907-4.91L50.647,4.964c0-2.718-2.203-4.921-4.921-4.921c-2.553,0-4.65,1.939-4.899,4.43L37.97,42.738 l-21.601,9.558c-3.457,1.502-5.881,4.949-5.881,8.965c0,0.44,0.029,0.882,0.087,1.312l3.869,28.975 c0.641,4.771,4.729,8.453,9.679,8.453h23.729c3.714,0,6.938-2.067,8.594-5.112l21.841-38.471c0.409-0.716,0.646-1.552,0.646-2.442 C78.933,51.259,76.735,49.062,74.019,49.062z"/>
    <path d="M96.689,27.555v-0.004L78.823,9.289v0.005c-0.241-0.238-0.57-0.387-0.935-0.387 c-0.571,0-1.061,0.365-1.246,0.873l-1.755,5.315c-4.518-1.666-9.154-2.902-13.93-3.759l0.475,12.511 c3.238,0.701,6.4,1.598,9.476,2.684l-1.715,5.021c-0.043,0.125-0.065,0.264-0.065,0.407c0,0.729,0.594,1.318,1.322,1.318 c0.054,0,0.112-0.002,0.168-0.01l25.3-3.533c0.63,0,1.155-0.565,1.155-1.247C97.071,28.124,96.921,27.796,96.689,27.555z"/>
</svg>