<?xml version="1.0" encoding="utf-8"?>
<!-- Generator: Adobe Illustrator 17.0.2, SVG Export Plug-In . SVG Version: 6.00 Build 0)  -->
<!DOCTYPE svg PUBLIC "-//W3C//DTD SVG 1.1//EN" "http://www.w3.org/Graphics/SVG/1.1/DTD/svg11.dtd">
<svg version="1.1" id="Layer_1" xmlns="http://www.w3.org/2000/svg" xmlns:xlink="http://www.w3.org/1999/xlink" x="0px" y="0px"
	 width="64px" height="64px" viewBox="0 0 64 64" enable-background="new 0 0 64 64" xml:space="preserve">
<path fill="#FFFFFF" d="M54.275,45.199c-0.463-1.036-0.807-1.8-1.801-1.8c0.994,0,1.801-0.805,1.801-1.8V10.071
	c0-0.994-0.807-1.8-1.801-1.8H12.457c-0.995,0-1.801,0.806-1.801,1.8v31.528c0,0.995,0.806,1.8,1.801,1.8
	c-0.995,0-1.213,0.699-1.801,1.8l-5,9.33c0,0.994,0.806,1.8,1.801,1.8h50.017c0.994,0,1.801-0.806,1.801-1.8L54.275,45.199z"/>
<path fill="none" stroke="#45537D" stroke-width="0.5" stroke-miterlimit="10" d="M54.275,45.199c-0.463-1.036-0.807-1.8-1.801-1.8
	c0.994,0,1.801-0.805,1.801-1.8V10.071c0-0.994-0.807-1.8-1.801-1.8H12.457c-0.995,0-1.801,0.806-1.801,1.8v31.528
	c0,0.995,0.806,1.8,1.801,1.8c-0.995,0-1.213,0.699-1.801,1.8l-5,9.33c0,0.994,0.806,1.8,1.801,1.8h50.017
	c0.994,0,1.801-0.806,1.801-1.8L54.275,45.199z"/>
<path fill="#45537D" d="M26.09,24.71c0,0.746-0.606,1.35-1.353,1.35c-0.746,0-1.35-0.604-1.35-1.35v-4.157
	c0-0.746,0.604-1.352,1.35-1.352c0.747,0,1.353,0.606,1.353,1.352V24.71z"/>
<path fill="#45537D" d="M41.547,24.71c0,0.746-0.606,1.35-1.353,1.35c-0.744,0-1.348-0.604-1.348-1.35v-4.156
	c0-0.746,0.604-1.352,1.348-1.352c0.747,0,1.353,0.606,1.353,1.352V24.71z"/>
<path fill="none" stroke="#45537D" stroke-width="0.5" stroke-linecap="round" stroke-linejoin="round" stroke-miterlimit="10" d="
	M25.713,32.213c1.605,1.773,3.916,2.895,6.496,2.895c2.58,0,4.893-1.122,6.496-2.895"/>
<path fill="none" stroke="#45537D" stroke-width="0.5" stroke-miterlimit="10" d="M28.857,49.886c0,0.437,0.355,0.792,0.793,0.792
	h5.631c0.437,0,0.793-0.355,0.793-0.792c0-0.437-0.356-0.793-0.793-0.793H29.65C29.212,49.093,28.857,49.449,28.857,49.886z"/>
<path fill="none" stroke="#45537D" stroke-width="0.5" stroke-miterlimit="10" d="M59.275,54.529c0,0.994-0.807,1.8-1.801,1.8H7.457
	c-0.995,0-1.801-0.806-1.801-1.8l5-9.33c0.588-1.101,0.806-1.8,1.801-1.8h40.017c0.994,0,1.338,0.764,1.801,1.8L59.275,54.529z"/>
<line fill="none" stroke="#45537D" stroke-width="0.5" stroke-linecap="round" stroke-linejoin="round" stroke-miterlimit="10" x1="33.69" y1="41.039" x2="31.242" y2="41.039"/>
<rect x="14.977" y="12.591" fill="none" stroke="#45537D" stroke-width="0.5" stroke-miterlimit="10" width="34.979" height="26.487"/>
<path fill="none" stroke="#45537D" stroke-width="0.5" stroke-miterlimit="10" d="M6.529,52.901l-0.873,1.628
	c0,0.994,0.807,1.8,1.801,1.8h50.017c0.994,0,1.801-0.806,1.801-1.8l-0.873-1.628H6.529z"/>
<path fill="none" stroke="#45537D" stroke-width="0.5" stroke-miterlimit="10" d="M51.732,47.359c0,0.958-0.777,1.734-1.734,1.734
	H14.935c-0.959,0-1.734-0.776-1.734-1.734c0-0.958,0.775-1.734,1.734-1.734h35.063C50.955,45.625,51.732,46.401,51.732,47.359z"/>
</svg>
