<?xml version="1.0" encoding="utf-8"?>
<!-- Generator: Adobe Illustrator 17.0.2, SVG Export Plug-In . SVG Version: 6.00 Build 0)  -->
<!DOCTYPE svg PUBLIC "-//W3C//DTD SVG 1.1//EN" "http://www.w3.org/Graphics/SVG/1.1/DTD/svg11.dtd">
<svg version="1.1" id="Tute_-_LDR_-_hilite_B15" xmlns="http://www.w3.org/2000/svg" xmlns:xlink="http://www.w3.org/1999/xlink"
	 x="0px" y="0px" width="615px" height="462px" viewBox="0 0 615 462" enable-background="new 0 0 615 462" xml:space="preserve">
<g>
	<rect x="370" y="278" fill="#525252" width="12" height="11"/>
	<path fill="#333434" d="M382,278v11h-12v-11H382 M383,277h-14v13h14V277L383,277z"/>
</g>
<g>
	<linearGradient id="SVGID_1_" gradientUnits="userSpaceOnUse" x1="395.5" y1="289" x2="395.5" y2="278">
		<stop  offset="0" style="stop-color:#F5BD58"/>
		<stop  offset="1" style="stop-color:#F9D063"/>
	</linearGradient>
	<rect x="389" y="278" fill="url(#SVGID_1_)" width="13" height="11"/>
	<path fill="#50440A" d="M401,278v11h-12v-11H401 M402,277h-14v13h14V277L402,277z"/>
</g>
<g>
	<rect x="408" y="278" fill="#525252" width="12" height="11"/>
	<path fill="#333434" d="M420,278v11h-12v-11H420 M421,277h-14v13h14V277L421,277z"/>
</g>
</svg>
