<?xml version="1.0" encoding="utf-8"?>
<!-- Generator: Adobe Illustrator 17.0.2, SVG Export Plug-In . SVG Version: 6.00 Build 0)  -->
<!DOCTYPE svg PUBLIC "-//W3C//DTD SVG 1.1//EN" "http://www.w3.org/Graphics/SVG/1.1/DTD/svg11.dtd">
<svg version="1.1" id="Layer_1" xmlns="http://www.w3.org/2000/svg" xmlns:xlink="http://www.w3.org/1999/xlink" x="0px" y="0px"
	 width="170px" height="224px" viewBox="0 0 170 224" enable-background="new 0 0 170 224" xml:space="preserve">
<g>
	<g>
		<g>
			<g>
				<line fill="none" stroke="#888888" stroke-miterlimit="10" x1="52.559" y1="0" x2="52.559" y2="224"/>
				<line fill="none" stroke="#898989" stroke-miterlimit="10" x1="52.559" y1="0" x2="52.559" y2="224"/>
				<line fill="none" stroke="#8B8A8A" stroke-miterlimit="10" x1="52.559" y1="0" x2="52.559" y2="224"/>
				<line fill="none" stroke="#8B8B8B" stroke-miterlimit="10" x1="52.559" y1="0" x2="52.559" y2="224"/>
				<line fill="none" stroke="#8C8C8C" stroke-miterlimit="10" x1="52.559" y1="0" x2="52.559" y2="224"/>
				<line fill="none" stroke="#8E8D8D" stroke-miterlimit="10" x1="52.559" y1="0" x2="52.559" y2="224"/>
				<line fill="none" stroke="#8F8F8E" stroke-miterlimit="10" x1="52.559" y1="0" x2="52.559" y2="224"/>
				<line fill="none" stroke="#908F8F" stroke-miterlimit="10" x1="52.559" y1="0" x2="52.559" y2="224"/>
				<line fill="none" stroke="#919090" stroke-miterlimit="10" x1="52.559" y1="0" x2="52.559" y2="224"/>
				<line fill="none" stroke="#919191" stroke-miterlimit="10" x1="52.559" y1="0" x2="52.559" y2="224"/>
				<line fill="none" stroke="#939292" stroke-miterlimit="10" x1="51.559" y1="0" x2="51.559" y2="224"/>
				<line fill="none" stroke="#939393" stroke-miterlimit="10" x1="51.559" y1="0" x2="51.559" y2="224"/>
				<line fill="none" stroke="#959494" stroke-miterlimit="10" x1="51.559" y1="0" x2="51.559" y2="224"/>
				<line fill="none" stroke="#959595" stroke-miterlimit="10" x1="51.559" y1="0" x2="51.559" y2="224"/>
				<line fill="none" stroke="#969696" stroke-miterlimit="10" x1="51.559" y1="0" x2="51.559" y2="224"/>
				<line fill="none" stroke="#979797" stroke-miterlimit="10" x1="51.559" y1="0" x2="51.559" y2="224"/>
				<line fill="none" stroke="#989798" stroke-miterlimit="10" x1="51.559" y1="0" x2="51.559" y2="224"/>
				<line fill="none" stroke="#989898" stroke-miterlimit="10" x1="51.559" y1="0" x2="51.559" y2="224"/>
				<line fill="none" stroke="#9A9A9A" stroke-miterlimit="10" x1="51.559" y1="0" x2="51.559" y2="224"/>
				<line fill="none" stroke="#9B9B9B" stroke-miterlimit="10" x1="51.559" y1="0" x2="51.559" y2="224"/>
				<line fill="none" stroke="#9B9C9C" stroke-miterlimit="10" x1="51.559" y1="0" x2="51.559" y2="224"/>
				<line fill="none" stroke="#9C9C9D" stroke-miterlimit="10" x1="51.559" y1="0" x2="51.559" y2="224"/>
				<line fill="none" stroke="#9E9E9E" stroke-miterlimit="10" x1="51.559" y1="0" x2="51.559" y2="224"/>
				<line fill="none" stroke="#9F9F9F" stroke-miterlimit="10" x1="51.559" y1="0" x2="51.559" y2="224"/>
				<line fill="none" stroke="#A09F9F" stroke-miterlimit="10" x1="51.559" y1="0" x2="51.559" y2="224"/>
				<line fill="none" stroke="#A1A1A0" stroke-miterlimit="10" x1="51.559" y1="0" x2="51.559" y2="224"/>
				<line fill="none" stroke="#A2A2A1" stroke-miterlimit="10" x1="51.559" y1="0" x2="51.559" y2="224"/>
				<line fill="none" stroke="#A3A3A2" stroke-miterlimit="10" x1="51.559" y1="0" x2="51.559" y2="224"/>
				<line fill="none" stroke="#A4A4A4" stroke-miterlimit="10" x1="51.559" y1="0" x2="51.559" y2="224"/>
				<line fill="none" stroke="#A5A5A5" stroke-miterlimit="10" x1="50.559" y1="0" x2="50.559" y2="224"/>
				<line fill="none" stroke="#A7A6A6" stroke-miterlimit="10" x1="50.559" y1="0" x2="50.559" y2="224"/>
				<line fill="none" stroke="#A8A7A8" stroke-miterlimit="10" x1="50.559" y1="0" x2="50.559" y2="224"/>
				<line fill="none" stroke="#A9A8A8" stroke-miterlimit="10" x1="50.559" y1="0" x2="50.559" y2="224"/>
				<line fill="none" stroke="#AAAAAA" stroke-miterlimit="10" x1="50.559" y1="0" x2="50.559" y2="224"/>
				<line fill="none" stroke="#ABABAB" stroke-miterlimit="10" x1="50.559" y1="0" x2="50.559" y2="224"/>
				<line fill="none" stroke="#ACACAC" stroke-miterlimit="10" x1="50.559" y1="0" x2="50.559" y2="224"/>
				<line fill="none" stroke="#ADADAD" stroke-miterlimit="10" x1="50.559" y1="0" x2="50.559" y2="224"/>
				<line fill="none" stroke="#AEAEAE" stroke-miterlimit="10" x1="50.559" y1="0" x2="50.559" y2="224"/>
				<line fill="none" stroke="#AFAFAF" stroke-miterlimit="10" x1="50.559" y1="0" x2="50.559" y2="224"/>
				<line fill="none" stroke="#B0B0B0" stroke-miterlimit="10" x1="50.559" y1="0" x2="50.559" y2="224"/>
				<line fill="none" stroke="#B0B1B1" stroke-miterlimit="10" x1="50.559" y1="0" x2="50.559" y2="224"/>
				<line fill="none" stroke="#B2B2B2" stroke-miterlimit="10" x1="50.559" y1="0" x2="50.559" y2="224"/>
				<line fill="none" stroke="#B3B3B3" stroke-miterlimit="10" x1="50.559" y1="0" x2="50.559" y2="224"/>
				<line fill="none" stroke="#B4B4B4" stroke-miterlimit="10" x1="50.559" y1="0" x2="50.559" y2="224"/>
				<line fill="none" stroke="#B5B5B5" stroke-miterlimit="10" x1="50.559" y1="0" x2="50.559" y2="224"/>
				<line fill="none" stroke="#B5B6B6" stroke-miterlimit="10" x1="50.559" y1="0" x2="50.559" y2="224"/>
				<line fill="none" stroke="#B6B7B7" stroke-miterlimit="10" x1="50.559" y1="0" x2="50.559" y2="224"/>
				<line fill="none" stroke="#B6B7B7" stroke-miterlimit="10" x1="49.559" y1="0" x2="49.559" y2="224"/>
				<line fill="none" stroke="#B7B7B8" stroke-miterlimit="10" x1="49.559" y1="0" x2="49.559" y2="224"/>
				<line fill="none" stroke="#B9B9B9" stroke-miterlimit="10" x1="49.559" y1="0" x2="49.559" y2="224"/>
				<line fill="none" stroke="#BABABA" stroke-miterlimit="10" x1="49.559" y1="0" x2="49.559" y2="224"/>
				<line fill="none" stroke="#BBBBBB" stroke-miterlimit="10" x1="49.559" y1="0" x2="49.559" y2="224"/>
				<line fill="none" stroke="#BCBCBB" stroke-miterlimit="10" x1="49.559" y1="0" x2="49.559" y2="224"/>
				<line fill="none" stroke="#BCBCBC" stroke-miterlimit="10" x1="49.559" y1="0" x2="49.559" y2="224"/>
				<line fill="none" stroke="#BDBDBD" stroke-miterlimit="10" x1="49.559" y1="0" x2="49.559" y2="224"/>
				<line fill="none" stroke="#BFBEBE" stroke-miterlimit="10" x1="49.559" y1="0" x2="49.559" y2="224"/>
				<line fill="none" stroke="#C0BFBF" stroke-miterlimit="10" x1="49.559" y1="0" x2="49.559" y2="224"/>
				<line fill="none" stroke="#C1C0C0" stroke-miterlimit="10" x1="49.559" y1="0" x2="49.559" y2="224"/>
				<line fill="none" stroke="#C2C1C1" stroke-miterlimit="10" x1="49.559" y1="0" x2="49.559" y2="224"/>
				<line fill="none" stroke="#C2C2C2" stroke-miterlimit="10" x1="49.559" y1="0" x2="49.559" y2="224"/>
				<line fill="none" stroke="#C3C3C3" stroke-miterlimit="10" x1="49.559" y1="0" x2="49.559" y2="224"/>
				<line fill="none" stroke="#C4C4C4" stroke-miterlimit="10" x1="49.559" y1="0" x2="49.559" y2="224"/>
				<line fill="none" stroke="#C6C5C5" stroke-miterlimit="10" x1="49.559" y1="0" x2="49.559" y2="224"/>
				<line fill="none" stroke="#C7C6C6" stroke-miterlimit="10" x1="49.559" y1="0" x2="49.559" y2="224"/>
				<line fill="none" stroke="#C8C7C7" stroke-miterlimit="10" x1="49.559" y1="0" x2="49.559" y2="224"/>
				<line fill="none" stroke="#C8C8C8" stroke-miterlimit="10" x1="49.559" y1="0" x2="49.559" y2="224"/>
				<line fill="none" stroke="#C9C9C9" stroke-miterlimit="10" x1="48.559" y1="0" x2="48.559" y2="224"/>
				<line fill="none" stroke="#CACACA" stroke-miterlimit="10" x1="48.559" y1="0" x2="48.559" y2="224"/>
				<line fill="none" stroke="#CBCBCB" stroke-miterlimit="10" x1="48.559" y1="0" x2="48.559" y2="224"/>
				<line fill="none" stroke="#CDCCCC" stroke-miterlimit="10" x1="48.559" y1="0" x2="48.559" y2="224"/>
				<line fill="none" stroke="#CECECD" stroke-miterlimit="10" x1="48.559" y1="0" x2="48.559" y2="224"/>
				<line fill="none" stroke="#CFCFCE" stroke-miterlimit="10" x1="48.559" y1="0" x2="48.559" y2="224"/>
				<line fill="none" stroke="#CFD0D0" stroke-miterlimit="10" x1="48.559" y1="0" x2="48.559" y2="224"/>
				<line fill="none" stroke="#D0D1D1" stroke-miterlimit="10" x1="48.559" y1="0" x2="48.559" y2="224"/>
				<line fill="none" stroke="#D1D2D2" stroke-miterlimit="10" x1="48.559" y1="0" x2="48.559" y2="224"/>
				<line fill="none" stroke="#D2D3D3" stroke-miterlimit="10" x1="48.559" y1="0" x2="48.559" y2="224"/>
				<line fill="none" stroke="#D3D3D3" stroke-miterlimit="10" x1="48.559" y1="0" x2="48.559" y2="224"/>
				<line fill="none" stroke="#D4D4D4" stroke-miterlimit="10" x1="48.559" y1="0" x2="48.559" y2="224"/>
				<line fill="none" stroke="#D6D5D5" stroke-miterlimit="10" x1="48.559" y1="0" x2="48.559" y2="224"/>
				<line fill="none" stroke="#D7D6D6" stroke-miterlimit="10" x1="48.559" y1="0" x2="48.559" y2="224"/>
				<line fill="none" stroke="#D7D7D7" stroke-miterlimit="10" x1="48.559" y1="0" x2="48.559" y2="224"/>
				<line fill="none" stroke="#D8D9D8" stroke-miterlimit="10" x1="48.559" y1="0" x2="48.559" y2="224"/>
				<line fill="none" stroke="#D9D9D8" stroke-miterlimit="10" x1="48.559" y1="0" x2="48.559" y2="224"/>
				<line fill="none" stroke="#DBDADA" stroke-miterlimit="10" x1="48.559" y1="0" x2="48.559" y2="224"/>
				<line fill="none" stroke="#DCDBDB" stroke-miterlimit="10" x1="48.559" y1="0" x2="48.559" y2="224"/>
				<line fill="none" stroke="#DDDDDC" stroke-miterlimit="10" x1="47.559" y1="0" x2="47.559" y2="224"/>
				<line fill="none" stroke="#DEDEDD" stroke-miterlimit="10" x1="47.559" y1="0" x2="47.559" y2="224"/>
				<line fill="none" stroke="#DFDFDE" stroke-miterlimit="10" x1="47.559" y1="0" x2="47.559" y2="224"/>
				<line fill="none" stroke="#E0E0DF" stroke-miterlimit="10" x1="47.559" y1="0" x2="47.559" y2="224"/>
				<line fill="none" stroke="#E0E1E0" stroke-miterlimit="10" x1="47.559" y1="0" x2="47.559" y2="224"/>
				<line fill="none" stroke="#E1E1E1" stroke-miterlimit="10" x1="47.559" y1="0" x2="47.559" y2="224"/>
				<line fill="none" stroke="#E2E2E2" stroke-miterlimit="10" x1="47.559" y1="0" x2="47.559" y2="224"/>
				<line fill="none" stroke="#E3E3E3" stroke-miterlimit="10" x1="47.559" y1="0" x2="47.559" y2="224"/>
				<line fill="none" stroke="#E4E4E4" stroke-miterlimit="10" x1="47.559" y1="0" x2="47.559" y2="224"/>
				<line fill="none" stroke="#E5E5E5" stroke-miterlimit="10" x1="47.559" y1="0" x2="47.559" y2="224"/>
				<line fill="none" stroke="#E4E4E4" stroke-miterlimit="10" x1="47.559" y1="0" x2="47.559" y2="224"/>
				<line fill="none" stroke="#E3E3E3" stroke-miterlimit="10" x1="47.559" y1="0" x2="47.559" y2="224"/>
				<line fill="none" stroke="#E2E2E2" stroke-miterlimit="10" x1="47.559" y1="0" x2="47.559" y2="224"/>
				<line fill="none" stroke="#E1E1E1" stroke-miterlimit="10" x1="47.559" y1="0" x2="47.559" y2="224"/>
				<line fill="none" stroke="#E0E1E0" stroke-miterlimit="10" x1="47.559" y1="0" x2="47.559" y2="224"/>
				<line fill="none" stroke="#E0E0DF" stroke-miterlimit="10" x1="47.559" y1="0" x2="47.559" y2="224"/>
				<line fill="none" stroke="#DFDFDE" stroke-miterlimit="10" x1="47.559" y1="0" x2="47.559" y2="224"/>
				<line fill="none" stroke="#DEDEDD" stroke-miterlimit="10" x1="47.559" y1="0" x2="47.559" y2="224"/>
				<line fill="none" stroke="#DDDDDC" stroke-miterlimit="10" x1="47.559" y1="0" x2="47.559" y2="224"/>
				<line fill="none" stroke="#DCDBDB" stroke-miterlimit="10" x1="46.559" y1="0" x2="46.559" y2="224"/>
				<line fill="none" stroke="#DBDADA" stroke-miterlimit="10" x1="46.559" y1="0" x2="46.559" y2="224"/>
				<line fill="none" stroke="#D9D9D8" stroke-miterlimit="10" x1="46.559" y1="0" x2="46.559" y2="224"/>
				<line fill="none" stroke="#D8D9D8" stroke-miterlimit="10" x1="46.559" y1="0" x2="46.559" y2="224"/>
				<line fill="none" stroke="#D7D7D7" stroke-miterlimit="10" x1="46.559" y1="0" x2="46.559" y2="224"/>
				<line fill="none" stroke="#D7D6D6" stroke-miterlimit="10" x1="46.559" y1="0" x2="46.559" y2="224"/>
				<line fill="none" stroke="#D6D5D5" stroke-miterlimit="10" x1="46.559" y1="0" x2="46.559" y2="224"/>
				<line fill="none" stroke="#D4D4D4" stroke-miterlimit="10" x1="46.559" y1="0" x2="46.559" y2="224"/>
				<line fill="none" stroke="#D3D3D3" stroke-miterlimit="10" x1="46.559" y1="0" x2="46.559" y2="224"/>
				<line fill="none" stroke="#D2D3D3" stroke-miterlimit="10" x1="46.559" y1="0" x2="46.559" y2="224"/>
				<line fill="none" stroke="#D1D2D2" stroke-miterlimit="10" x1="46.559" y1="0" x2="46.559" y2="224"/>
				<line fill="none" stroke="#D0D1D1" stroke-miterlimit="10" x1="46.559" y1="0" x2="46.559" y2="224"/>
				<line fill="none" stroke="#CFD0D0" stroke-miterlimit="10" x1="46.559" y1="0" x2="46.559" y2="224"/>
				<line fill="none" stroke="#CFCFCE" stroke-miterlimit="10" x1="46.559" y1="0" x2="46.559" y2="224"/>
				<line fill="none" stroke="#CECECD" stroke-miterlimit="10" x1="46.559" y1="0" x2="46.559" y2="224"/>
				<line fill="none" stroke="#CDCCCC" stroke-miterlimit="10" x1="46.559" y1="0" x2="46.559" y2="224"/>
				<line fill="none" stroke="#CBCBCB" stroke-miterlimit="10" x1="46.559" y1="0" x2="46.559" y2="224"/>
				<line fill="none" stroke="#CACACA" stroke-miterlimit="10" x1="46.559" y1="0" x2="46.559" y2="224"/>
				<line fill="none" stroke="#C9C9C9" stroke-miterlimit="10" x1="46.559" y1="0" x2="46.559" y2="224"/>
				<line fill="none" stroke="#C8C8C8" stroke-miterlimit="10" x1="45.559" y1="0" x2="45.559" y2="224"/>
				<line fill="none" stroke="#C8C7C7" stroke-miterlimit="10" x1="45.559" y1="0" x2="45.559" y2="224"/>
				<line fill="none" stroke="#C7C6C6" stroke-miterlimit="10" x1="45.559" y1="0" x2="45.559" y2="224"/>
				<line fill="none" stroke="#C6C5C5" stroke-miterlimit="10" x1="45.559" y1="0" x2="45.559" y2="224"/>
				<line fill="none" stroke="#C4C4C4" stroke-miterlimit="10" x1="45.559" y1="0" x2="45.559" y2="224"/>
				<line fill="none" stroke="#C3C3C3" stroke-miterlimit="10" x1="45.559" y1="0" x2="45.559" y2="224"/>
				<line fill="none" stroke="#C2C2C2" stroke-miterlimit="10" x1="45.559" y1="0" x2="45.559" y2="224"/>
				<line fill="none" stroke="#C2C1C1" stroke-miterlimit="10" x1="45.559" y1="0" x2="45.559" y2="224"/>
				<line fill="none" stroke="#C1C0C0" stroke-miterlimit="10" x1="45.559" y1="0" x2="45.559" y2="224"/>
				<line fill="none" stroke="#C0BFBF" stroke-miterlimit="10" x1="45.559" y1="0" x2="45.559" y2="224"/>
				<line fill="none" stroke="#BFBEBE" stroke-miterlimit="10" x1="45.559" y1="0" x2="45.559" y2="224"/>
				<line fill="none" stroke="#BDBDBD" stroke-miterlimit="10" x1="45.559" y1="0" x2="45.559" y2="224"/>
				<line fill="none" stroke="#BCBCBC" stroke-miterlimit="10" x1="45.559" y1="0" x2="45.559" y2="224"/>
				<line fill="none" stroke="#BCBCBB" stroke-miterlimit="10" x1="45.559" y1="0" x2="45.559" y2="224"/>
				<line fill="none" stroke="#BBBBBB" stroke-miterlimit="10" x1="45.559" y1="0" x2="45.559" y2="224"/>
				<line fill="none" stroke="#BABABA" stroke-miterlimit="10" x1="45.559" y1="0" x2="45.559" y2="224"/>
				<line fill="none" stroke="#B9B9B9" stroke-miterlimit="10" x1="45.559" y1="0" x2="45.559" y2="224"/>
				<line fill="none" stroke="#B7B7B8" stroke-miterlimit="10" x1="45.559" y1="0" x2="45.559" y2="224"/>
				<line fill="none" stroke="#B7B7B8" stroke-miterlimit="10" x1="44.559" y1="0" x2="44.559" y2="224"/>
				<line fill="none" stroke="#B6B7B7" stroke-miterlimit="10" x1="44.559" y1="0" x2="44.559" y2="224"/>
				<line fill="none" stroke="#B5B6B6" stroke-miterlimit="10" x1="44.559" y1="0" x2="44.559" y2="224"/>
				<line fill="none" stroke="#B5B5B5" stroke-miterlimit="10" x1="44.559" y1="0" x2="44.559" y2="224"/>
				<line fill="none" stroke="#B4B4B4" stroke-miterlimit="10" x1="44.559" y1="0" x2="44.559" y2="224"/>
				<line fill="none" stroke="#B3B3B3" stroke-miterlimit="10" x1="44.559" y1="0" x2="44.559" y2="224"/>
				<line fill="none" stroke="#B2B2B2" stroke-miterlimit="10" x1="44.559" y1="0" x2="44.559" y2="224"/>
				<line fill="none" stroke="#B0B1B1" stroke-miterlimit="10" x1="44.559" y1="0" x2="44.559" y2="224"/>
				<line fill="none" stroke="#B0B0B0" stroke-miterlimit="10" x1="44.559" y1="0" x2="44.559" y2="224"/>
				<line fill="none" stroke="#AFAFAF" stroke-miterlimit="10" x1="44.559" y1="0" x2="44.559" y2="224"/>
				<line fill="none" stroke="#AEAEAE" stroke-miterlimit="10" x1="44.559" y1="0" x2="44.559" y2="224"/>
				<line fill="none" stroke="#ADADAD" stroke-miterlimit="10" x1="44.559" y1="0" x2="44.559" y2="224"/>
				<line fill="none" stroke="#ACACAC" stroke-miterlimit="10" x1="44.559" y1="0" x2="44.559" y2="224"/>
				<line fill="none" stroke="#ABABAB" stroke-miterlimit="10" x1="44.559" y1="0" x2="44.559" y2="224"/>
				<line fill="none" stroke="#AAAAAA" stroke-miterlimit="10" x1="44.559" y1="0" x2="44.559" y2="224"/>
				<line fill="none" stroke="#A9A8A8" stroke-miterlimit="10" x1="44.559" y1="0" x2="44.559" y2="224"/>
				<line fill="none" stroke="#A8A7A8" stroke-miterlimit="10" x1="44.559" y1="0" x2="44.559" y2="224"/>
				<line fill="none" stroke="#A7A6A6" stroke-miterlimit="10" x1="44.559" y1="0" x2="44.559" y2="224"/>
				<line fill="none" stroke="#A5A5A5" stroke-miterlimit="10" x1="44.559" y1="0" x2="44.559" y2="224"/>
				<line fill="none" stroke="#A4A4A4" stroke-miterlimit="10" x1="43.559" y1="0" x2="43.559" y2="224"/>
				<line fill="none" stroke="#A3A3A2" stroke-miterlimit="10" x1="43.559" y1="0" x2="43.559" y2="224"/>
				<line fill="none" stroke="#A2A2A1" stroke-miterlimit="10" x1="43.559" y1="0" x2="43.559" y2="224"/>
				<line fill="none" stroke="#A1A1A0" stroke-miterlimit="10" x1="43.559" y1="0" x2="43.559" y2="224"/>
				<line fill="none" stroke="#A09F9F" stroke-miterlimit="10" x1="43.559" y1="0" x2="43.559" y2="224"/>
				<line fill="none" stroke="#9F9F9F" stroke-miterlimit="10" x1="43.559" y1="0" x2="43.559" y2="224"/>
				<line fill="none" stroke="#9E9E9E" stroke-miterlimit="10" x1="43.559" y1="0" x2="43.559" y2="224"/>
				<line fill="none" stroke="#9C9C9D" stroke-miterlimit="10" x1="43.559" y1="0" x2="43.559" y2="224"/>
				<line fill="none" stroke="#9B9C9C" stroke-miterlimit="10" x1="43.559" y1="0" x2="43.559" y2="224"/>
				<line fill="none" stroke="#9B9B9B" stroke-miterlimit="10" x1="43.559" y1="0" x2="43.559" y2="224"/>
				<line fill="none" stroke="#9A9A9A" stroke-miterlimit="10" x1="43.559" y1="0" x2="43.559" y2="224"/>
				<line fill="none" stroke="#989898" stroke-miterlimit="10" x1="43.559" y1="0" x2="43.559" y2="224"/>
				<line fill="none" stroke="#989798" stroke-miterlimit="10" x1="43.559" y1="0" x2="43.559" y2="224"/>
				<line fill="none" stroke="#979797" stroke-miterlimit="10" x1="43.559" y1="0" x2="43.559" y2="224"/>
				<line fill="none" stroke="#969696" stroke-miterlimit="10" x1="43.559" y1="0" x2="43.559" y2="224"/>
				<line fill="none" stroke="#959595" stroke-miterlimit="10" x1="43.559" y1="0" x2="43.559" y2="224"/>
				<line fill="none" stroke="#959494" stroke-miterlimit="10" x1="43.559" y1="0" x2="43.559" y2="224"/>
				<line fill="none" stroke="#939393" stroke-miterlimit="10" x1="43.559" y1="0" x2="43.559" y2="224"/>
				<line fill="none" stroke="#939292" stroke-miterlimit="10" x1="43.559" y1="0" x2="43.559" y2="224"/>
				<line fill="none" stroke="#919191" stroke-miterlimit="10" x1="42.559" y1="0" x2="42.559" y2="224"/>
				<line fill="none" stroke="#919090" stroke-miterlimit="10" x1="42.559" y1="0" x2="42.559" y2="224"/>
				<line fill="none" stroke="#908F8F" stroke-miterlimit="10" x1="42.559" y1="0" x2="42.559" y2="224"/>
				<line fill="none" stroke="#8F8F8E" stroke-miterlimit="10" x1="42.559" y1="0" x2="42.559" y2="224"/>
				<line fill="none" stroke="#8E8D8D" stroke-miterlimit="10" x1="42.559" y1="0" x2="42.559" y2="224"/>
				<line fill="none" stroke="#8C8C8C" stroke-miterlimit="10" x1="42.559" y1="0" x2="42.559" y2="224"/>
				<line fill="none" stroke="#8B8B8B" stroke-miterlimit="10" x1="42.559" y1="0" x2="42.559" y2="224"/>
				<line fill="none" stroke="#8B8A8A" stroke-miterlimit="10" x1="42.559" y1="0" x2="42.559" y2="224"/>
				<line fill="none" stroke="#898989" stroke-miterlimit="10" x1="42.559" y1="0" x2="42.559" y2="224"/>
				<line fill="none" stroke="#888888" stroke-miterlimit="10" x1="42.559" y1="0" x2="42.559" y2="224"/>
			</g>
		</g>
	</g>
</g>
<g>
	<g>
		<g>
			<g>
				<line fill="none" stroke="#888888" stroke-miterlimit="10" x1="127.5" y1="0" x2="127.5" y2="224"/>
				<line fill="none" stroke="#898989" stroke-miterlimit="10" x1="127.5" y1="0" x2="127.5" y2="224"/>
				<line fill="none" stroke="#8B8A8A" stroke-miterlimit="10" x1="127.5" y1="0" x2="127.5" y2="224"/>
				<line fill="none" stroke="#8B8B8B" stroke-miterlimit="10" x1="127.5" y1="0" x2="127.5" y2="224"/>
				<line fill="none" stroke="#8C8C8C" stroke-miterlimit="10" x1="127.5" y1="0" x2="127.5" y2="224"/>
				<line fill="none" stroke="#8E8D8D" stroke-miterlimit="10" x1="127.5" y1="0" x2="127.5" y2="224"/>
				<line fill="none" stroke="#8F8F8E" stroke-miterlimit="10" x1="127.5" y1="0" x2="127.5" y2="224"/>
				<line fill="none" stroke="#908F8F" stroke-miterlimit="10" x1="127.5" y1="0" x2="127.5" y2="224"/>
				<line fill="none" stroke="#919090" stroke-miterlimit="10" x1="127.5" y1="0" x2="127.5" y2="224"/>
				<line fill="none" stroke="#919191" stroke-miterlimit="10" x1="127.5" y1="0" x2="127.5" y2="224"/>
				<line fill="none" stroke="#939292" stroke-miterlimit="10" x1="126.5" y1="0" x2="126.5" y2="224"/>
				<line fill="none" stroke="#939393" stroke-miterlimit="10" x1="126.5" y1="0" x2="126.5" y2="224"/>
				<line fill="none" stroke="#959494" stroke-miterlimit="10" x1="126.5" y1="0" x2="126.5" y2="224"/>
				<line fill="none" stroke="#959595" stroke-miterlimit="10" x1="126.5" y1="0" x2="126.5" y2="224"/>
				<line fill="none" stroke="#969696" stroke-miterlimit="10" x1="126.5" y1="0" x2="126.5" y2="224"/>
				<line fill="none" stroke="#979797" stroke-miterlimit="10" x1="126.5" y1="0" x2="126.5" y2="224"/>
				<line fill="none" stroke="#989798" stroke-miterlimit="10" x1="126.5" y1="0" x2="126.5" y2="224"/>
				<line fill="none" stroke="#989898" stroke-miterlimit="10" x1="126.5" y1="0" x2="126.5" y2="224"/>
				<line fill="none" stroke="#9A9A9A" stroke-miterlimit="10" x1="126.5" y1="0" x2="126.5" y2="224"/>
				<line fill="none" stroke="#9B9B9B" stroke-miterlimit="10" x1="126.5" y1="0" x2="126.5" y2="224"/>
				<line fill="none" stroke="#9B9C9C" stroke-miterlimit="10" x1="126.5" y1="0" x2="126.5" y2="224"/>
				<line fill="none" stroke="#9C9C9D" stroke-miterlimit="10" x1="126.5" y1="0" x2="126.5" y2="224"/>
				<line fill="none" stroke="#9E9E9E" stroke-miterlimit="10" x1="126.5" y1="0" x2="126.5" y2="224"/>
				<line fill="none" stroke="#9F9F9F" stroke-miterlimit="10" x1="126.5" y1="0" x2="126.5" y2="224"/>
				<line fill="none" stroke="#A09F9F" stroke-miterlimit="10" x1="126.5" y1="0" x2="126.5" y2="224"/>
				<line fill="none" stroke="#A1A1A0" stroke-miterlimit="10" x1="126.5" y1="0" x2="126.5" y2="224"/>
				<line fill="none" stroke="#A2A2A1" stroke-miterlimit="10" x1="126.5" y1="0" x2="126.5" y2="224"/>
				<line fill="none" stroke="#A3A3A2" stroke-miterlimit="10" x1="126.5" y1="0" x2="126.5" y2="224"/>
				<line fill="none" stroke="#A4A4A4" stroke-miterlimit="10" x1="126.5" y1="0" x2="126.5" y2="224"/>
				<line fill="none" stroke="#A5A5A5" stroke-miterlimit="10" x1="125.5" y1="0" x2="125.5" y2="224"/>
				<line fill="none" stroke="#A7A6A6" stroke-miterlimit="10" x1="125.5" y1="0" x2="125.5" y2="224"/>
				<line fill="none" stroke="#A8A7A8" stroke-miterlimit="10" x1="125.5" y1="0" x2="125.5" y2="224"/>
				<line fill="none" stroke="#A9A8A8" stroke-miterlimit="10" x1="125.5" y1="0" x2="125.5" y2="224"/>
				<line fill="none" stroke="#AAAAAA" stroke-miterlimit="10" x1="125.5" y1="0" x2="125.5" y2="224"/>
				<line fill="none" stroke="#ABABAB" stroke-miterlimit="10" x1="125.5" y1="0" x2="125.5" y2="224"/>
				<line fill="none" stroke="#ACACAC" stroke-miterlimit="10" x1="125.5" y1="0" x2="125.5" y2="224"/>
				<line fill="none" stroke="#ADADAD" stroke-miterlimit="10" x1="125.5" y1="0" x2="125.5" y2="224"/>
				<line fill="none" stroke="#AEAEAE" stroke-miterlimit="10" x1="125.5" y1="0" x2="125.5" y2="224"/>
				<line fill="none" stroke="#AFAFAF" stroke-miterlimit="10" x1="125.5" y1="0" x2="125.5" y2="224"/>
				<line fill="none" stroke="#B0B0B0" stroke-miterlimit="10" x1="125.5" y1="0" x2="125.5" y2="224"/>
				<line fill="none" stroke="#B0B1B1" stroke-miterlimit="10" x1="125.5" y1="0" x2="125.5" y2="224"/>
				<line fill="none" stroke="#B2B2B2" stroke-miterlimit="10" x1="125.5" y1="0" x2="125.5" y2="224"/>
				<line fill="none" stroke="#B3B3B3" stroke-miterlimit="10" x1="125.5" y1="0" x2="125.5" y2="224"/>
				<line fill="none" stroke="#B4B4B4" stroke-miterlimit="10" x1="125.5" y1="0" x2="125.5" y2="224"/>
				<line fill="none" stroke="#B5B5B5" stroke-miterlimit="10" x1="125.5" y1="0" x2="125.5" y2="224"/>
				<line fill="none" stroke="#B5B6B6" stroke-miterlimit="10" x1="125.5" y1="0" x2="125.5" y2="224"/>
				<line fill="none" stroke="#B6B7B7" stroke-miterlimit="10" x1="125.5" y1="0" x2="125.5" y2="224"/>
				<line fill="none" stroke="#B6B7B7" stroke-miterlimit="10" x1="124.5" y1="0" x2="124.5" y2="224"/>
				<line fill="none" stroke="#B7B7B8" stroke-miterlimit="10" x1="124.5" y1="0" x2="124.5" y2="224"/>
				<line fill="none" stroke="#B9B9B9" stroke-miterlimit="10" x1="124.5" y1="0" x2="124.5" y2="224"/>
				<line fill="none" stroke="#BABABA" stroke-miterlimit="10" x1="124.5" y1="0" x2="124.5" y2="224"/>
				<line fill="none" stroke="#BBBBBB" stroke-miterlimit="10" x1="124.5" y1="0" x2="124.5" y2="224"/>
				<line fill="none" stroke="#BCBCBB" stroke-miterlimit="10" x1="124.5" y1="0" x2="124.5" y2="224"/>
				<line fill="none" stroke="#BCBCBC" stroke-miterlimit="10" x1="124.5" y1="0" x2="124.5" y2="224"/>
				<line fill="none" stroke="#BDBDBD" stroke-miterlimit="10" x1="124.5" y1="0" x2="124.5" y2="224"/>
				<line fill="none" stroke="#BFBEBE" stroke-miterlimit="10" x1="124.5" y1="0" x2="124.5" y2="224"/>
				<line fill="none" stroke="#C0BFBF" stroke-miterlimit="10" x1="124.5" y1="0" x2="124.5" y2="224"/>
				<line fill="none" stroke="#C1C0C0" stroke-miterlimit="10" x1="124.5" y1="0" x2="124.5" y2="224"/>
				<line fill="none" stroke="#C2C1C1" stroke-miterlimit="10" x1="124.5" y1="0" x2="124.5" y2="224"/>
				<line fill="none" stroke="#C2C2C2" stroke-miterlimit="10" x1="124.5" y1="0" x2="124.5" y2="224"/>
				<line fill="none" stroke="#C3C3C3" stroke-miterlimit="10" x1="124.5" y1="0" x2="124.5" y2="224"/>
				<line fill="none" stroke="#C4C4C4" stroke-miterlimit="10" x1="124.5" y1="0" x2="124.5" y2="224"/>
				<line fill="none" stroke="#C6C5C5" stroke-miterlimit="10" x1="124.5" y1="0" x2="124.5" y2="224"/>
				<line fill="none" stroke="#C7C6C6" stroke-miterlimit="10" x1="124.5" y1="0" x2="124.5" y2="224"/>
				<line fill="none" stroke="#C8C7C7" stroke-miterlimit="10" x1="124.5" y1="0" x2="124.5" y2="224"/>
				<line fill="none" stroke="#C8C8C8" stroke-miterlimit="10" x1="124.5" y1="0" x2="124.5" y2="224"/>
				<line fill="none" stroke="#C9C9C9" stroke-miterlimit="10" x1="123.5" y1="0" x2="123.5" y2="224"/>
				<line fill="none" stroke="#CACACA" stroke-miterlimit="10" x1="123.5" y1="0" x2="123.5" y2="224"/>
				<line fill="none" stroke="#CBCBCB" stroke-miterlimit="10" x1="123.5" y1="0" x2="123.5" y2="224"/>
				<line fill="none" stroke="#CDCCCC" stroke-miterlimit="10" x1="123.5" y1="0" x2="123.5" y2="224"/>
				<line fill="none" stroke="#CECECD" stroke-miterlimit="10" x1="123.5" y1="0" x2="123.5" y2="224"/>
				<line fill="none" stroke="#CFCFCE" stroke-miterlimit="10" x1="123.5" y1="0" x2="123.5" y2="224"/>
				<line fill="none" stroke="#CFD0D0" stroke-miterlimit="10" x1="123.5" y1="0" x2="123.5" y2="224"/>
				<line fill="none" stroke="#D0D1D1" stroke-miterlimit="10" x1="123.5" y1="0" x2="123.5" y2="224"/>
				<line fill="none" stroke="#D1D2D2" stroke-miterlimit="10" x1="123.5" y1="0" x2="123.5" y2="224"/>
				<line fill="none" stroke="#D2D3D3" stroke-miterlimit="10" x1="123.5" y1="0" x2="123.5" y2="224"/>
				<line fill="none" stroke="#D3D3D3" stroke-miterlimit="10" x1="123.5" y1="0" x2="123.5" y2="224"/>
				<line fill="none" stroke="#D4D4D4" stroke-miterlimit="10" x1="123.5" y1="0" x2="123.5" y2="224"/>
				<line fill="none" stroke="#D6D5D5" stroke-miterlimit="10" x1="123.5" y1="0" x2="123.5" y2="224"/>
				<line fill="none" stroke="#D7D6D6" stroke-miterlimit="10" x1="123.5" y1="0" x2="123.5" y2="224"/>
				<line fill="none" stroke="#D7D7D7" stroke-miterlimit="10" x1="123.5" y1="0" x2="123.5" y2="224"/>
				<line fill="none" stroke="#D8D9D8" stroke-miterlimit="10" x1="123.5" y1="0" x2="123.5" y2="224"/>
				<line fill="none" stroke="#D9D9D8" stroke-miterlimit="10" x1="123.5" y1="0" x2="123.5" y2="224"/>
				<line fill="none" stroke="#DBDADA" stroke-miterlimit="10" x1="123.5" y1="0" x2="123.5" y2="224"/>
				<line fill="none" stroke="#DCDBDB" stroke-miterlimit="10" x1="123.5" y1="0" x2="123.5" y2="224"/>
				<line fill="none" stroke="#DDDDDC" stroke-miterlimit="10" x1="122.5" y1="0" x2="122.5" y2="224"/>
				<line fill="none" stroke="#DEDEDD" stroke-miterlimit="10" x1="122.5" y1="0" x2="122.5" y2="224"/>
				<line fill="none" stroke="#DFDFDE" stroke-miterlimit="10" x1="122.5" y1="0" x2="122.5" y2="224"/>
				<line fill="none" stroke="#E0E0DF" stroke-miterlimit="10" x1="122.5" y1="0" x2="122.5" y2="224"/>
				<line fill="none" stroke="#E0E1E0" stroke-miterlimit="10" x1="122.5" y1="0" x2="122.5" y2="224"/>
				<line fill="none" stroke="#E1E1E1" stroke-miterlimit="10" x1="122.5" y1="0" x2="122.5" y2="224"/>
				<line fill="none" stroke="#E2E2E2" stroke-miterlimit="10" x1="122.5" y1="0" x2="122.5" y2="224"/>
				<line fill="none" stroke="#E3E3E3" stroke-miterlimit="10" x1="122.5" y1="0" x2="122.5" y2="224"/>
				<line fill="none" stroke="#E4E4E4" stroke-miterlimit="10" x1="122.5" y1="0" x2="122.5" y2="224"/>
				<line fill="none" stroke="#E5E5E5" stroke-miterlimit="10" x1="122.5" y1="0" x2="122.5" y2="224"/>
				<line fill="none" stroke="#E4E4E4" stroke-miterlimit="10" x1="122.5" y1="0" x2="122.5" y2="224"/>
				<line fill="none" stroke="#E3E3E3" stroke-miterlimit="10" x1="122.5" y1="0" x2="122.5" y2="224"/>
				<line fill="none" stroke="#E2E2E2" stroke-miterlimit="10" x1="122.5" y1="0" x2="122.5" y2="224"/>
				<line fill="none" stroke="#E1E1E1" stroke-miterlimit="10" x1="122.5" y1="0" x2="122.5" y2="224"/>
				<line fill="none" stroke="#E0E1E0" stroke-miterlimit="10" x1="122.5" y1="0" x2="122.5" y2="224"/>
				<line fill="none" stroke="#E0E0DF" stroke-miterlimit="10" x1="122.5" y1="0" x2="122.5" y2="224"/>
				<line fill="none" stroke="#DFDFDE" stroke-miterlimit="10" x1="122.5" y1="0" x2="122.5" y2="224"/>
				<line fill="none" stroke="#DEDEDD" stroke-miterlimit="10" x1="122.5" y1="0" x2="122.5" y2="224"/>
				<line fill="none" stroke="#DDDDDC" stroke-miterlimit="10" x1="122.5" y1="0" x2="122.5" y2="224"/>
				<line fill="none" stroke="#DCDBDB" stroke-miterlimit="10" x1="121.5" y1="0" x2="121.5" y2="224"/>
				<line fill="none" stroke="#DBDADA" stroke-miterlimit="10" x1="121.5" y1="0" x2="121.5" y2="224"/>
				<line fill="none" stroke="#D9D9D8" stroke-miterlimit="10" x1="121.5" y1="0" x2="121.5" y2="224"/>
				<line fill="none" stroke="#D8D9D8" stroke-miterlimit="10" x1="121.5" y1="0" x2="121.5" y2="224"/>
				<line fill="none" stroke="#D7D7D7" stroke-miterlimit="10" x1="121.5" y1="0" x2="121.5" y2="224"/>
				<line fill="none" stroke="#D7D6D6" stroke-miterlimit="10" x1="121.5" y1="0" x2="121.5" y2="224"/>
				<line fill="none" stroke="#D6D5D5" stroke-miterlimit="10" x1="121.5" y1="0" x2="121.5" y2="224"/>
				<line fill="none" stroke="#D4D4D4" stroke-miterlimit="10" x1="121.5" y1="0" x2="121.5" y2="224"/>
				<line fill="none" stroke="#D3D3D3" stroke-miterlimit="10" x1="121.5" y1="0" x2="121.5" y2="224"/>
				<line fill="none" stroke="#D2D3D3" stroke-miterlimit="10" x1="121.5" y1="0" x2="121.5" y2="224"/>
				<line fill="none" stroke="#D1D2D2" stroke-miterlimit="10" x1="121.5" y1="0" x2="121.5" y2="224"/>
				<line fill="none" stroke="#D0D1D1" stroke-miterlimit="10" x1="121.5" y1="0" x2="121.5" y2="224"/>
				<line fill="none" stroke="#CFD0D0" stroke-miterlimit="10" x1="121.5" y1="0" x2="121.5" y2="224"/>
				<line fill="none" stroke="#CFCFCE" stroke-miterlimit="10" x1="121.5" y1="0" x2="121.5" y2="224"/>
				<line fill="none" stroke="#CECECD" stroke-miterlimit="10" x1="121.5" y1="0" x2="121.5" y2="224"/>
				<line fill="none" stroke="#CDCCCC" stroke-miterlimit="10" x1="121.5" y1="0" x2="121.5" y2="224"/>
				<line fill="none" stroke="#CBCBCB" stroke-miterlimit="10" x1="121.5" y1="0" x2="121.5" y2="224"/>
				<line fill="none" stroke="#CACACA" stroke-miterlimit="10" x1="121.5" y1="0" x2="121.5" y2="224"/>
				<line fill="none" stroke="#C9C9C9" stroke-miterlimit="10" x1="121.5" y1="0" x2="121.5" y2="224"/>
				<line fill="none" stroke="#C8C8C8" stroke-miterlimit="10" x1="120.5" y1="0" x2="120.5" y2="224"/>
				<line fill="none" stroke="#C8C7C7" stroke-miterlimit="10" x1="120.5" y1="0" x2="120.5" y2="224"/>
				<line fill="none" stroke="#C7C6C6" stroke-miterlimit="10" x1="120.5" y1="0" x2="120.5" y2="224"/>
				<line fill="none" stroke="#C6C5C5" stroke-miterlimit="10" x1="120.5" y1="0" x2="120.5" y2="224"/>
				<line fill="none" stroke="#C4C4C4" stroke-miterlimit="10" x1="120.5" y1="0" x2="120.5" y2="224"/>
				<line fill="none" stroke="#C3C3C3" stroke-miterlimit="10" x1="120.5" y1="0" x2="120.5" y2="224"/>
				<line fill="none" stroke="#C2C2C2" stroke-miterlimit="10" x1="120.5" y1="0" x2="120.5" y2="224"/>
				<line fill="none" stroke="#C2C1C1" stroke-miterlimit="10" x1="120.5" y1="0" x2="120.5" y2="224"/>
				<line fill="none" stroke="#C1C0C0" stroke-miterlimit="10" x1="120.5" y1="0" x2="120.5" y2="224"/>
				<line fill="none" stroke="#C0BFBF" stroke-miterlimit="10" x1="120.5" y1="0" x2="120.5" y2="224"/>
				<line fill="none" stroke="#BFBEBE" stroke-miterlimit="10" x1="120.5" y1="0" x2="120.5" y2="224"/>
				<line fill="none" stroke="#BDBDBD" stroke-miterlimit="10" x1="120.5" y1="0" x2="120.5" y2="224"/>
				<line fill="none" stroke="#BCBCBC" stroke-miterlimit="10" x1="120.5" y1="0" x2="120.5" y2="224"/>
				<line fill="none" stroke="#BCBCBB" stroke-miterlimit="10" x1="120.5" y1="0" x2="120.5" y2="224"/>
				<line fill="none" stroke="#BBBBBB" stroke-miterlimit="10" x1="120.5" y1="0" x2="120.5" y2="224"/>
				<line fill="none" stroke="#BABABA" stroke-miterlimit="10" x1="120.5" y1="0" x2="120.5" y2="224"/>
				<line fill="none" stroke="#B9B9B9" stroke-miterlimit="10" x1="120.5" y1="0" x2="120.5" y2="224"/>
				<line fill="none" stroke="#B7B7B8" stroke-miterlimit="10" x1="120.5" y1="0" x2="120.5" y2="224"/>
				<line fill="none" stroke="#B7B7B8" stroke-miterlimit="10" x1="119.5" y1="0" x2="119.5" y2="224"/>
				<line fill="none" stroke="#B6B7B7" stroke-miterlimit="10" x1="119.5" y1="0" x2="119.5" y2="224"/>
				<line fill="none" stroke="#B5B6B6" stroke-miterlimit="10" x1="119.5" y1="0" x2="119.5" y2="224"/>
				<line fill="none" stroke="#B5B5B5" stroke-miterlimit="10" x1="119.5" y1="0" x2="119.5" y2="224"/>
				<line fill="none" stroke="#B4B4B4" stroke-miterlimit="10" x1="119.5" y1="0" x2="119.5" y2="224"/>
				<line fill="none" stroke="#B3B3B3" stroke-miterlimit="10" x1="119.5" y1="0" x2="119.5" y2="224"/>
				<line fill="none" stroke="#B2B2B2" stroke-miterlimit="10" x1="119.5" y1="0" x2="119.5" y2="224"/>
				<line fill="none" stroke="#B0B1B1" stroke-miterlimit="10" x1="119.5" y1="0" x2="119.5" y2="224"/>
				<line fill="none" stroke="#B0B0B0" stroke-miterlimit="10" x1="119.5" y1="0" x2="119.5" y2="224"/>
				<line fill="none" stroke="#AFAFAF" stroke-miterlimit="10" x1="119.5" y1="0" x2="119.5" y2="224"/>
				<line fill="none" stroke="#AEAEAE" stroke-miterlimit="10" x1="119.5" y1="0" x2="119.5" y2="224"/>
				<line fill="none" stroke="#ADADAD" stroke-miterlimit="10" x1="119.5" y1="0" x2="119.5" y2="224"/>
				<line fill="none" stroke="#ACACAC" stroke-miterlimit="10" x1="119.5" y1="0" x2="119.5" y2="224"/>
				<line fill="none" stroke="#ABABAB" stroke-miterlimit="10" x1="119.5" y1="0" x2="119.5" y2="224"/>
				<line fill="none" stroke="#AAAAAA" stroke-miterlimit="10" x1="119.5" y1="0" x2="119.5" y2="224"/>
				<line fill="none" stroke="#A9A8A8" stroke-miterlimit="10" x1="119.5" y1="0" x2="119.5" y2="224"/>
				<line fill="none" stroke="#A8A7A8" stroke-miterlimit="10" x1="119.5" y1="0" x2="119.5" y2="224"/>
				<line fill="none" stroke="#A7A6A6" stroke-miterlimit="10" x1="119.5" y1="0" x2="119.5" y2="224"/>
				<line fill="none" stroke="#A5A5A5" stroke-miterlimit="10" x1="119.5" y1="0" x2="119.5" y2="224"/>
				<line fill="none" stroke="#A4A4A4" stroke-miterlimit="10" x1="118.5" y1="0" x2="118.5" y2="224"/>
				<line fill="none" stroke="#A3A3A2" stroke-miterlimit="10" x1="118.5" y1="0" x2="118.5" y2="224"/>
				<line fill="none" stroke="#A2A2A1" stroke-miterlimit="10" x1="118.5" y1="0" x2="118.5" y2="224"/>
				<line fill="none" stroke="#A1A1A0" stroke-miterlimit="10" x1="118.5" y1="0" x2="118.5" y2="224"/>
				<line fill="none" stroke="#A09F9F" stroke-miterlimit="10" x1="118.5" y1="0" x2="118.5" y2="224"/>
				<line fill="none" stroke="#9F9F9F" stroke-miterlimit="10" x1="118.5" y1="0" x2="118.5" y2="224"/>
				<line fill="none" stroke="#9E9E9E" stroke-miterlimit="10" x1="118.5" y1="0" x2="118.5" y2="224"/>
				<line fill="none" stroke="#9C9C9D" stroke-miterlimit="10" x1="118.5" y1="0" x2="118.5" y2="224"/>
				<line fill="none" stroke="#9B9C9C" stroke-miterlimit="10" x1="118.5" y1="0" x2="118.5" y2="224"/>
				<line fill="none" stroke="#9B9B9B" stroke-miterlimit="10" x1="118.5" y1="0" x2="118.5" y2="224"/>
				<line fill="none" stroke="#9A9A9A" stroke-miterlimit="10" x1="118.5" y1="0" x2="118.5" y2="224"/>
				<line fill="none" stroke="#989898" stroke-miterlimit="10" x1="118.5" y1="0" x2="118.5" y2="224"/>
				<line fill="none" stroke="#989798" stroke-miterlimit="10" x1="118.5" y1="0" x2="118.5" y2="224"/>
				<line fill="none" stroke="#979797" stroke-miterlimit="10" x1="118.5" y1="0" x2="118.5" y2="224"/>
				<line fill="none" stroke="#969696" stroke-miterlimit="10" x1="118.5" y1="0" x2="118.5" y2="224"/>
				<line fill="none" stroke="#959595" stroke-miterlimit="10" x1="118.5" y1="0" x2="118.5" y2="224"/>
				<line fill="none" stroke="#959494" stroke-miterlimit="10" x1="118.5" y1="0" x2="118.5" y2="224"/>
				<line fill="none" stroke="#939393" stroke-miterlimit="10" x1="118.5" y1="0" x2="118.5" y2="224"/>
				<line fill="none" stroke="#939292" stroke-miterlimit="10" x1="118.5" y1="0" x2="118.5" y2="224"/>
				<line fill="none" stroke="#919191" stroke-miterlimit="10" x1="117.5" y1="0" x2="117.5" y2="224"/>
				<line fill="none" stroke="#919090" stroke-miterlimit="10" x1="117.5" y1="0" x2="117.5" y2="224"/>
				<line fill="none" stroke="#908F8F" stroke-miterlimit="10" x1="117.5" y1="0" x2="117.5" y2="224"/>
				<line fill="none" stroke="#8F8F8E" stroke-miterlimit="10" x1="117.5" y1="0" x2="117.5" y2="224"/>
				<line fill="none" stroke="#8E8D8D" stroke-miterlimit="10" x1="117.5" y1="0" x2="117.5" y2="224"/>
				<line fill="none" stroke="#8C8C8C" stroke-miterlimit="10" x1="117.5" y1="0" x2="117.5" y2="224"/>
				<line fill="none" stroke="#8B8B8B" stroke-miterlimit="10" x1="117.5" y1="0" x2="117.5" y2="224"/>
				<line fill="none" stroke="#8B8A8A" stroke-miterlimit="10" x1="117.5" y1="0" x2="117.5" y2="224"/>
				<line fill="none" stroke="#898989" stroke-miterlimit="10" x1="117.5" y1="0" x2="117.5" y2="224"/>
				<line fill="none" stroke="#888888" stroke-miterlimit="10" x1="117.5" y1="0" x2="117.5" y2="224"/>
			</g>
		</g>
	</g>
</g>
<g>
	<g opacity="0.25">
		<path fill="#010101" d="M170,193c0,5.523-4.477,10-10,10H10c-5.523,0-10-4.477-10-10V43c0-5.523,4.477-10,10-10h150
			c5.523,0,10,4.477,10,10V193z"/>
	</g>
	<g>
		<path fill="#302F2F" d="M170,188c0,5.523-4.477,10-10,10H10c-5.523,0-10-4.477-10-10V38c0-5.523,4.477-10,10-10h150
			c5.523,0,10,4.477,10,10V188z"/>
	</g>
</g>
<g>
	<path fill="#D3D3D3" d="M163,180c0,5.523-4.477,10-10,10H18c-5.523,0-10-4.477-10-10V45c0-5.523,4.477-10,10-10h135
		c5.523,0,10,4.477,10,10V180z"/>
</g>
<linearGradient id="SVGID_1_" gradientUnits="userSpaceOnUse" x1="85.5" y1="161.4061" x2="85.5" y2="64.5939">
	<stop  offset="0" style="stop-color:#FFFFFF"/>
	<stop  offset="1" style="stop-color:#000000"/>
</linearGradient>
<circle fill="url(#SVGID_1_)" cx="85.5" cy="113" r="48.406"/>
<circle fill="#302F2F" cx="85.5" cy="113" r="46.737"/>
<circle fill="#302F2F" cx="32.727" cy="59.26" r="19.89"/>
<circle fill="#302F2F" cx="138.607" cy="59.26" r="19.89"/>
<circle fill="#302F2F" cx="32.727" cy="165.977" r="19.89"/>
<circle fill="#302F2F" cx="138.607" cy="165.14" r="19.89"/>
<g>
</g>
<g>
</g>
<g>
</g>
<g>
</g>
<g>
</g>
<g>
</g>
</svg>
