<?xml version="1.0" encoding="utf-8"?>
<!-- Generator: Adobe Illustrator 17.0.2, SVG Export Plug-In . SVG Version: 6.00 Build 0)  -->
<!DOCTYPE svg PUBLIC "-//W3C//DTD SVG 1.1//EN" "http://www.w3.org/Graphics/SVG/1.1/DTD/svg11.dtd">
<svg version="1.1" id="Layer_1" xmlns="http://www.w3.org/2000/svg" xmlns:xlink="http://www.w3.org/1999/xlink" x="0px" y="0px"
	 width="124.234px" height="189.434px" viewBox="0 0 124.234 189.434" enable-background="new 0 0 124.234 189.434"
	 xml:space="preserve">
<g id="LDR_pins_1_">
	<linearGradient id="SVGID_1_" gradientUnits="userSpaceOnUse" x1="77.5422" y1="43.7738" x2="84.3792" y2="43.7738">
		<stop  offset="0" style="stop-color:#B4B4B4"/>
		<stop  offset="0.5" style="stop-color:#CDCCCC"/>
		<stop  offset="1" style="stop-color:#B4B4B4"/>
	</linearGradient>
	<rect x="77.542" y="0" fill="url(#SVGID_1_)" width="6.837" height="87.548"/>
	<linearGradient id="SVGID_2_" gradientUnits="userSpaceOnUse" x1="39.3547" y1="43.7738" x2="46.1918" y2="43.7738">
		<stop  offset="0" style="stop-color:#B4B4B4"/>
		<stop  offset="0.5" style="stop-color:#CDCCCC"/>
		<stop  offset="1" style="stop-color:#B4B4B4"/>
	</linearGradient>
	<rect x="39.355" y="0" fill="url(#SVGID_2_)" width="6.837" height="87.548"/>
</g>
<g>
	<g opacity="0.25">
		<path fill="#86888A" d="M95.385,91.714H28.849C15.008,91.714,0,113.56,0,140.574s14.841,48.86,28.849,48.86h66.536
			c13.841,0,28.849-21.845,28.849-48.86C124.234,113.56,109.226,91.714,95.385,91.714"/>
	</g>
	<g>
		<path fill="#E7E7E7" d="M95.385,87.714H28.849C15.008,87.714,0,109.56,0,136.574s14.841,48.86,28.849,48.86h66.536
			c13.841,0,28.849-21.845,28.849-48.86C124.234,109.56,109.226,87.714,95.385,87.714"/>
	</g>
</g>
<path fill="#E7E7E7" d="M11.673,136.574c0-4.669,3.835-8.671,8.671-8.671s8.671,3.835,8.671,8.671c0,4.669-3.835,8.671-8.671,8.671
	S11.673,141.243,11.673,136.574"/>
<path fill="none" stroke="#2A2A2A" stroke-miterlimit="10" d="M11.673,136.574c0-4.669,3.835-8.671,8.671-8.671
	s8.671,3.835,8.671,8.671c0,4.669-3.835,8.671-8.671,8.671S11.673,141.243,11.673,136.574"/>
<path fill="#E7E7E7" d="M95.385,136.574c0-4.669,3.835-8.671,8.671-8.671c4.669,0,8.671,3.835,8.671,8.671
	c0,4.669-3.835,8.671-8.671,8.671C99.221,145.246,95.385,141.243,95.385,136.574"/>
<path fill="none" stroke="#2A2A2A" stroke-miterlimit="10" d="M95.385,136.574c0-4.669,3.835-8.671,8.671-8.671
	c4.669,0,8.671,3.835,8.671,8.671c0,4.669-3.835,8.671-8.671,8.671C99.221,145.246,95.385,141.243,95.385,136.574"/>
<path fill="#AE3E30" d="M34.185,109.893h3.002h53.196h1.001c3.835,0,6.837-3.502,6.837-8.004c0-4.336-3.002-8.004-6.837-8.004
	H15.675c-1.334,1.334-2.668,2.668-3.835,4.336h79.543c1.668,0,3.168,1.668,3.168,3.669c0,2.001-1.501,3.669-3.168,3.669h-1.001
	H37.187h-3.002c-3.835,0-6.837,3.502-6.837,8.004c0,4.336,3.002,8.004,6.837,8.004h2.501h43.857h1.001
	c1.668,0,3.168,1.668,3.168,3.669s-1.501,3.669-3.168,3.669h-1.001h-36.02c-3.835,0-6.837,3.502-6.837,8.004
	c0,4.336,3.002,8.004,6.837,8.004h3.335h32.684h1.001c1.668,0,3.168,1.668,3.168,3.669s-1.501,3.669-3.168,3.669h-1.001H37.187
	h-3.002c-1.834,0-3.502,0.834-4.836,2.335c-1.334,1.334-2.001,3.335-2.001,5.503c0,4.336,3.002,8.004,6.837,8.004h3.002h53.196
	h1.001c1.668,0,3.168,1.668,3.168,3.669s-1.501,3.669-3.168,3.669h-4.669H50.361H12.173c1.334,1.668,2.501,3.002,4.002,4.336h34.352
	h36.353h4.669c3.835,0,6.837-3.502,6.837-8.004c0-4.336-3.002-8.004-6.837-8.004h-1.001H37.187h-3.002
	c-1.668,0-3.168-1.668-3.168-3.669c0-1.001,0.334-1.834,1.001-2.668c0.667-0.667,1.334-1.001,2.168-1.001h3.002h43.357h1.001
	c3.835,0,6.837-3.502,6.837-8.004c0-4.336-3.002-8.004-6.837-8.004h-1.001H47.859h-3.335c-1.668,0-3.168-1.668-3.168-3.669
	s1.501-3.669,3.168-3.669h2.835h34.019c3.835,0,6.837-3.502,6.837-8.004c0-4.336-3.002-8.004-6.837-8.004h-1.001h-43.69h-2.501
	c-1.668,0-3.168-1.668-3.168-3.669C31.017,111.561,32.351,109.893,34.185,109.893"/>
<g>
</g>
<g>
</g>
<g>
</g>
<g>
</g>
<g>
</g>
<g>
</g>
</svg>
