<?xml version="1.0" encoding="utf-8"?>
<!-- Generator: Adobe Illustrator 17.0.2, SVG Export Plug-In . SVG Version: 6.00 Build 0)  -->
<!DOCTYPE svg PUBLIC "-//W3C//DTD SVG 1.1//EN" "http://www.w3.org/Graphics/SVG/1.1/DTD/svg11.dtd">
<svg version="1.1" id="Layer_1" xmlns="http://www.w3.org/2000/svg" xmlns:xlink="http://www.w3.org/1999/xlink" x="0px" y="0px"
	 width="618.753px" height="329px" viewBox="0 0 618.753 329" enable-background="new 0 0 618.753 329" xml:space="preserve">
<g id="Board_1_">
	<path fill="#47537F" d="M617.753,3c0-1.657-1.343-3-3-3h-426c-1.657,0-3,1.343-3,3v319c0,1.657,1.343,3,3,3h426
		c1.657,0,3-1.343,3-3V3z"/>
</g>
<path fill="#DDDDDC" d="M263.523,61.465c0.103,67.89,0.207,135.78,0.31,203.671c-3.145,3.034-7.145,3.33-11.16,3.329
	c-22.257-0.003-44.516,0.381-66.773-0.176c-58.086,0.61-116.172,0.179-174.257,0.209c-3.969,0.002-8.036-0.016-11.251-3.011
	C0.33,200.574,0.448,135.66,0.001,70.749c-0.062-8.986,4.06-9.325,10.855-9.316C95.078,61.548,179.3,61.484,263.523,61.465z"/>
<path fill="#B4B4B6" d="M0.392,265.487c61.944-0.003,123.888-0.006,185.833-0.008c3.583,5.227,3.36,10.52,0.276,15.863l-0.913-0.045
	c-56.528-0.001-113.056,0.118-169.583-0.077C-0.852,281.162-0.029,285.203,0.392,265.487z"/>
<path fill="#3C4143" d="M457.642,205.251c-1.328,0-2.656,0-3.984,0c-2.667-0.9-5.334-0.9-8.001,0c-1.328,0-2.656,0-3.984,0
	c-2.667-0.9-5.334-0.9-8.001,0c-1.328,0-2.656,0-3.984,0c-2.667-0.9-5.334-0.9-8.001,0c-1.328,0-2.656,0-3.984,0
	c-2.667-0.9-5.334-0.9-8.001,0c-1.328,0-2.656,0-3.984,0c-2.667-0.9-5.334-0.9-8.001,0c-1.328,0-2.656,0-3.984,0
	c-2.667-0.9-5.334-0.9-8.001,0c-6.261,0.591-8.058-2.774-8.025-8.44c0.121-21.255,0.264-42.514-0.086-63.764
	c-0.108-6.557,2.979-8.036,8.416-7.778c2.464-1.933,4.928-1.933,7.393,0c1.531,0,3.062,0,4.593,0c2.464-1.933,4.928-1.933,7.393,0
	c1.531,0,3.062,0,4.593,0c2.464-1.933,4.928-1.933,7.393,0c1.531,0,3.062,0,4.593,0c2.464-1.933,4.928-1.933,7.393,0
	c1.531,0,3.062,0,4.593,0c2.464-1.933,4.928-1.933,7.393,0c1.531,0,3.062,0,4.593,0c2.464-1.933,4.928-1.933,7.393,0
	c1.531,0,3.062,0,4.593,0c2.464-1.933,4.928-1.933,7.393,0c1.531,0,3.062,0,4.593,0c2.464-1.933,4.928-1.933,7.393,0
	c1.531,0,3.062,0,4.593,0c2.464-1.933,4.929-1.933,7.393,0c1.531,0,3.062,0,4.593,0c2.464-1.933,4.929-1.933,7.393,0
	c1.531,0,3.062,0,4.593,0c2.464-1.933,4.929-1.933,7.393,0c1.531,0,3.062,0,4.593,0c2.464-1.933,4.929-1.933,7.393,0
	c1.531,0,3.062,0,4.593,0c2.464-1.933,4.929-1.933,7.393,0c6.534-0.639,8.513,2.386,8.41,8.774
	c-0.33,20.586-0.195,41.181-0.078,61.772c0.032,5.681-0.848,10.114-8.028,9.437c-2.667-0.9-5.334-0.9-8.001,0
	c-1.328,0-2.656,0-3.984,0c-2.667-0.9-5.334-0.9-8.001,0c-1.328,0-2.656,0-3.984,0c-2.667-0.9-5.334-0.9-8.001,0
	c-1.328,0-2.656,0-3.984,0c-2.667-0.9-5.334-0.9-8.001,0c-1.328,0-2.656,0-3.984,0c-2.667-0.9-5.334-0.9-8.001,0
	c-1.328,0-2.656,0-3.984,0c-2.667-0.9-5.334-0.9-8.001,0c-1.328,0-2.656,0-3.984,0C462.976,204.351,460.309,204.351,457.642,205.251
	z"/>
<path fill="#313A5A" d="M186.5,281.342c-0.092-5.288-0.184-10.575-0.276-15.863c25.87-0.114,51.739-0.229,77.608-0.343
	c0.004,18.857,1.728,15.989-15.561,16.125C227.682,281.423,207.09,281.326,186.5,281.342z"/>
<path fill="#D8D9DA" d="M509.674,77.392c-0.009-5.24-0.018-10.479-0.027-15.719c6.719-1.118,8.339,2.194,8.327,8.359
	C517.963,76.264,515.439,78.313,509.674,77.392z"/>
<path fill="#D8D9DA" d="M477.56,61.673c-0.008,5.24-0.016,10.479-0.025,15.719c-5.766,0.921-8.29-1.127-8.302-7.36
	C469.221,63.866,470.842,60.555,477.56,61.673z"/>
<path fill="#989898" d="M385.73,205.251c0.22-2.775,1.719-3.922,4.488-3.786c2.519,0.123,3.217,1.718,3.513,3.788
	c-0.185,0.559-0.225,1.13-0.12,1.711c-2.587,2.658-5.175,2.658-7.762,0C385.955,206.383,385.915,205.812,385.73,205.251z"/>
<path fill="#989898" d="M397.715,205.251c0.22-2.775,1.719-3.922,4.488-3.786c2.519,0.123,3.217,1.718,3.513,3.788
	c-0.185,0.559-0.225,1.13-0.12,1.711c-2.587,2.658-5.175,2.658-7.762,0C397.94,206.383,397.9,205.812,397.715,205.251z"/>
<path fill="#989898" d="M409.701,205.251c0.22-2.775,1.719-3.922,4.488-3.786c2.519,0.123,3.217,1.718,3.513,3.788
	c-0.185,0.559-0.225,1.13-0.12,1.711c-2.587,2.658-5.175,2.658-7.762,0C409.925,206.383,409.886,205.812,409.701,205.251z"/>
<path fill="#989898" d="M421.686,205.251c0.22-2.775,1.719-3.922,4.488-3.786c2.519,0.123,3.217,1.718,3.513,3.788
	c-0.185,0.559-0.225,1.13-0.12,1.711c-2.587,2.658-5.175,2.658-7.762,0C421.911,206.383,421.871,205.812,421.686,205.251z"/>
<path fill="#989898" d="M433.671,205.251c0.22-2.775,1.719-3.922,4.488-3.786c2.519,0.123,3.217,1.718,3.513,3.788
	c-0.185,0.559-0.225,1.13-0.12,1.711c-2.587,2.658-5.175,2.658-7.762,0C433.896,206.383,433.856,205.812,433.671,205.251z"/>
<path fill="#989898" d="M445.657,205.251c0.22-2.775,1.719-3.922,4.488-3.786c2.519,0.123,3.217,1.718,3.513,3.788
	c-0.185,0.559-0.225,1.13-0.12,1.711c-2.587,2.658-5.175,2.658-7.762,0C445.882,206.383,445.842,205.812,445.657,205.251z"/>
<path fill="#989898" d="M457.642,205.251c0.22-2.775,1.719-3.922,4.488-3.786c2.519,0.123,3.217,1.718,3.513,3.788
	c-0.185,0.559-0.225,1.13-0.12,1.711c-2.587,2.658-5.174,2.658-7.762,0C457.867,206.383,457.827,205.812,457.642,205.251z"/>
<path fill="#989898" d="M469.627,205.251c0.22-2.775,1.719-3.922,4.488-3.786c2.519,0.123,3.217,1.718,3.513,3.788
	c-0.185,0.559-0.225,1.13-0.12,1.711c-2.587,2.658-5.175,2.658-7.762,0C469.852,206.383,469.812,205.812,469.627,205.251z"/>
<path fill="#989898" d="M481.613,205.251c0.22-2.775,1.719-3.922,4.488-3.786c2.519,0.123,3.217,1.718,3.513,3.788
	c-0.185,0.559-0.225,1.13-0.12,1.711c-2.587,2.658-5.175,2.658-7.762,0C481.838,206.383,481.798,205.812,481.613,205.251z"/>
<path fill="#989898" d="M493.598,205.251c0.22-2.775,1.719-3.922,4.488-3.786c2.519,0.123,3.217,1.718,3.513,3.788
	c-0.185,0.559-0.225,1.13-0.12,1.711c-2.587,2.658-5.175,2.658-7.762,0C493.823,206.383,493.783,205.812,493.598,205.251z"/>
<path fill="#989898" d="M505.584,205.251c0.22-2.775,1.719-3.922,4.488-3.786c2.519,0.123,3.217,1.718,3.513,3.788
	c-0.185,0.559-0.225,1.13-0.12,1.711c-2.587,2.658-5.175,2.658-7.762,0C505.808,206.383,505.768,205.812,505.584,205.251z"/>
<path fill="#989898" d="M517.569,205.251c0.22-2.775,1.719-3.922,4.488-3.786c2.519,0.123,3.217,1.718,3.513,3.788
	c-0.185,0.559-0.225,1.13-0.12,1.711c-2.587,2.658-5.175,2.658-7.762,0C517.794,206.383,517.754,205.812,517.569,205.251z"/>
<path fill="#989898" d="M529.554,205.251c0.22-2.775,1.719-3.922,4.488-3.786c2.519,0.123,3.217,1.718,3.513,3.788
	c-0.185,0.559-0.225,1.13-0.12,1.711c-2.587,2.658-5.175,2.658-7.762,0C529.779,206.383,529.739,205.812,529.554,205.251z"/>
<path fill="#343D5E" d="M409.82,206.964c2.588,0.001,5.176,0.003,7.763,0.002c-0.052,2.753-0.501,5.639-3.882,5.639
	C410.321,212.605,409.872,209.72,409.82,206.964z"/>
<path fill="#C7C9CF" d="M513.281,125.268c-2.464,0-4.928,0-7.393,0c-0.259-2.821,0.355-5.324,3.696-5.324
	C512.926,119.945,513.539,122.447,513.281,125.268z"/>
<path fill="#343D5E" d="M421.806,206.964c2.588,0.001,5.176,0.003,7.763,0.002c-0.052,2.753-0.501,5.639-3.882,5.639
	C422.306,212.605,421.858,209.72,421.806,206.964z"/>
<path fill="#343D5E" d="M433.791,206.964c2.588,0.001,5.176,0.003,7.763,0.002c-0.052,2.753-0.501,5.639-3.882,5.639
	C434.292,212.605,433.843,209.72,433.791,206.964z"/>
<path fill="#343D5E" d="M445.777,206.964c2.588,0.001,5.176,0.003,7.763,0.002c-0.052,2.753-0.501,5.639-3.882,5.639
	C446.277,212.605,445.828,209.72,445.777,206.964z"/>
<path fill="#343D5E" d="M397.835,206.964c2.588,0.001,5.176,0.003,7.763,0.002c-0.052,2.753-0.501,5.639-3.882,5.639
	C398.335,212.605,397.887,209.72,397.835,206.964z"/>
<path fill="#343D5E" d="M385.85,206.964c2.588,0.001,5.176,0.003,7.763,0.002c-0.052,2.753-0.501,5.639-3.882,5.639
	C386.35,212.605,385.901,209.72,385.85,206.964z"/>
<path fill="#C7C9CF" d="M417.398,125.268c-2.464,0-4.928,0-7.392,0c-0.259-2.821,0.355-5.324,3.696-5.324
	C417.043,119.945,417.657,122.447,417.398,125.268z"/>
<path fill="#C7C9CF" d="M525.266,125.268c-2.464,0-4.928,0-7.393,0c-0.259-2.821,0.355-5.324,3.696-5.324
	C524.911,119.945,525.525,122.447,525.266,125.268z"/>
<path fill="#C7C9CF" d="M537.251,125.268c-2.464,0-4.928,0-7.393,0c-0.259-2.821,0.355-5.324,3.696-5.324
	C536.897,119.945,537.51,122.447,537.251,125.268z"/>
<path fill="#C7C9CF" d="M453.354,125.268c-2.464,0-4.928,0-7.392,0c-0.259-2.821,0.355-5.324,3.696-5.324
	S453.613,122.447,453.354,125.268z"/>
<path fill="#C7C9CF" d="M441.368,125.268c-2.464,0-4.928,0-7.392,0c-0.259-2.821,0.355-5.324,3.696-5.324
	C441.014,119.945,441.627,122.447,441.368,125.268z"/>
<path fill="#C7C9CF" d="M465.339,125.268c-2.464,0-4.928,0-7.392,0c-0.259-2.821,0.355-5.324,3.696-5.324
	C464.984,119.945,465.598,122.447,465.339,125.268z"/>
<path fill="#C7C9CF" d="M477.324,125.268c-2.464,0-4.928,0-7.392,0c-0.259-2.821,0.355-5.324,3.696-5.324
	C476.97,119.945,477.583,122.447,477.324,125.268z"/>
<path fill="#C7C9CF" d="M489.31,125.268c-2.464,0-4.928,0-7.393,0c-0.259-2.821,0.355-5.324,3.696-5.324
	C488.955,119.945,489.569,122.447,489.31,125.268z"/>
<path fill="#C7C9CF" d="M501.295,125.268c-2.464,0-4.928,0-7.393,0c-0.259-2.821,0.355-5.324,3.696-5.324
	C500.94,119.945,501.554,122.447,501.295,125.268z"/>
<path fill="#C7C9CF" d="M393.427,125.268c-2.464,0-4.928,0-7.392,0c-0.259-2.821,0.355-5.324,3.696-5.324
	C393.072,119.945,393.686,122.447,393.427,125.268z"/>
<path fill="#C7C9CF" d="M405.412,125.268c-2.464,0-4.928,0-7.392,0c-0.259-2.821,0.355-5.324,3.696-5.324
	S405.671,122.447,405.412,125.268z"/>
<path fill="#C7C9CF" d="M429.383,125.268c-2.464,0-4.928,0-7.392,0c-0.259-2.821,0.355-5.324,3.696-5.324
	S429.642,122.447,429.383,125.268z"/>
<path fill="#343D5E" d="M529.674,206.964c2.588,0.001,5.176,0.003,7.763,0.002c-0.053,2.753-0.501,5.639-3.882,5.639
	C530.175,212.605,529.726,209.72,529.674,206.964z"/>
<path fill="#343D5E" d="M517.689,206.964c2.588,0.001,5.176,0.003,7.763,0.002c-0.053,2.753-0.501,5.639-3.882,5.639
	C518.19,212.605,517.74,209.72,517.689,206.964z"/>
<path fill="#343D5E" d="M505.703,206.964c2.588,0.001,5.176,0.003,7.763,0.002c-0.053,2.753-0.501,5.639-3.882,5.639
	C506.204,212.605,505.755,209.72,505.703,206.964z"/>
<path fill="#343D5E" d="M493.718,206.964c2.588,0.001,5.176,0.003,7.763,0.002c-0.053,2.753-0.501,5.639-3.882,5.639
	C494.219,212.605,493.77,209.72,493.718,206.964z"/>
<path fill="#343D5E" d="M481.733,206.964c2.588,0.001,5.176,0.003,7.763,0.002c-0.053,2.753-0.501,5.639-3.882,5.639
	C482.233,212.605,481.784,209.72,481.733,206.964z"/>
<path fill="#343D5E" d="M469.747,206.964c2.588,0.001,5.176,0.003,7.763,0.002c-0.052,2.753-0.501,5.639-3.882,5.639
	C470.248,212.606,469.799,209.72,469.747,206.964z"/>
<path fill="#343D5E" d="M457.762,206.964c2.588,0.001,5.176,0.003,7.763,0.002c-0.052,2.753-0.501,5.639-3.882,5.639
	C458.262,212.605,457.814,209.72,457.762,206.964z"/>
<path fill="#ABAAAA" d="M77.789,193.105c0.107,6.264,0.109,12.533,0.347,18.792c0.294,7.735-2.858,11.909-11.032,11.494
	c-3.291-0.167-6.605-0.171-9.896,0.001c-8.151,0.425-11.361-3.694-11.082-11.45c0.226-6.261,0.213-12.53,0.306-18.795
	c1.215-2.86,1.529-6.343,5.195-7.517c6.965-1.431,13.937-1.421,20.915-0.057C76.212,186.741,76.64,190.173,77.789,193.105z"/>
<path fill="#ABAAAA" d="M77.789,113.202c0.107,6.264,0.109,12.533,0.347,18.792c0.294,7.734-2.858,11.909-11.032,11.494
	c-3.291-0.167-6.605-0.171-9.896,0.001c-8.151,0.425-11.361-3.694-11.082-11.45c0.226-6.261,0.213-12.53,0.306-18.795
	c1.214-2.86,1.529-6.343,5.195-7.517c6.965-1.431,13.937-1.421,20.915-0.057C76.212,106.838,76.64,110.27,77.789,113.202z"/>
<path fill="#79787A" d="M73.981,107.681c-7.902,0.011-15.805,0.021-23.707,0.032c-1.935,0.305-2.983-0.234-2.302-2.419
	c6.802-5.387,21.466-5.398,28.325-0.022C76.983,107.477,75.933,108.013,73.981,107.681z"/>
<path fill="#79787A" d="M73.981,187.584c-7.902,0.011-15.805,0.021-23.707,0.032c-1.935,0.305-2.983-0.234-2.302-2.419
	c6.802-5.387,21.466-5.398,28.325-0.022C76.983,187.38,75.933,187.915,73.981,187.584z"/>
<path fill="#898989" d="M73.981,107.681c0.772-0.803,1.543-1.605,2.315-2.408c2.616,2.245,1.789,5.14,1.494,7.931
	C76.519,111.362,75.25,109.522,73.981,107.681z"/>
<path fill="#8E8C8D" d="M47.972,105.294c0.767,0.805,1.533,1.61,2.301,2.417c-1.281,1.846-2.562,3.691-3.842,5.534
	C46.154,110.44,45.331,107.532,47.972,105.294z"/>
<path fill="#8E8C8D" d="M47.972,185.197c0.767,0.805,1.533,1.61,2.301,2.417c-1.281,1.846-2.562,3.691-3.842,5.534
	C46.154,190.343,45.331,187.434,47.972,185.197z"/>
<path fill="#898989" d="M73.981,187.584c0.772-0.803,1.543-1.605,2.315-2.408c2.616,2.245,1.789,5.139,1.494,7.931
	C76.519,191.265,75.25,189.424,73.981,187.584z"/>
<g>
	<linearGradient id="SVGID_1_" gradientUnits="userSpaceOnUse" x1="280.9431" y1="94.9633" x2="280.9987" y2="118.772">
		<stop  offset="0" style="stop-color:#E6E6E5"/>
		<stop  offset="0.0967" style="stop-color:#FFFFFF"/>
		<stop  offset="0.8937" style="stop-color:#FFFFFF"/>
		<stop  offset="1" style="stop-color:#E6E6E5"/>
	</linearGradient>
	<path fill="url(#SVGID_1_)" d="M297.858,96.524c0-1.65-1.35-3-3-3h-27.776c-1.65,0-3,1.35-3,3v19.968c0,1.65,1.35,3,3,3h27.776
		c1.65,0,3-1.35,3-3V96.524z"/>
</g>
<g>
	<linearGradient id="SVGID_2_" gradientUnits="userSpaceOnUse" x1="280.9431" y1="133.4276" x2="280.9987" y2="157.2363">
		<stop  offset="0" style="stop-color:#E6E6E5"/>
		<stop  offset="0.0967" style="stop-color:#FFFFFF"/>
		<stop  offset="0.8937" style="stop-color:#FFFFFF"/>
		<stop  offset="1" style="stop-color:#E6E6E5"/>
	</linearGradient>
	<path fill="url(#SVGID_2_)" d="M297.858,134.989c0-1.65-1.35-3-3-3h-27.776c-1.65,0-3,1.35-3,3v19.968c0,1.65,1.35,3,3,3h27.776
		c1.65,0,3-1.35,3-3V134.989z"/>
</g>
<g>
	<linearGradient id="SVGID_3_" gradientUnits="userSpaceOnUse" x1="280.9431" y1="171.892" x2="280.9987" y2="195.7006">
		<stop  offset="0" style="stop-color:#E6E6E5"/>
		<stop  offset="0.0967" style="stop-color:#FFFFFF"/>
		<stop  offset="0.8937" style="stop-color:#FFFFFF"/>
		<stop  offset="1" style="stop-color:#E6E6E5"/>
	</linearGradient>
	<path fill="url(#SVGID_3_)" d="M297.858,173.453c0-1.65-1.35-3-3-3h-27.776c-1.65,0-3,1.35-3,3v19.968c0,1.65,1.35,3,3,3h27.776
		c1.65,0,3-1.35,3-3V173.453z"/>
</g>
<g>
	<linearGradient id="SVGID_4_" gradientUnits="userSpaceOnUse" x1="280.9431" y1="212.3538" x2="280.9987" y2="236.1625">
		<stop  offset="0" style="stop-color:#E6E6E5"/>
		<stop  offset="0.0967" style="stop-color:#FFFFFF"/>
		<stop  offset="0.8937" style="stop-color:#FFFFFF"/>
		<stop  offset="1" style="stop-color:#E6E6E5"/>
	</linearGradient>
	<path fill="url(#SVGID_4_)" d="M297.858,213.915c0-1.65-1.35-3-3-3h-27.776c-1.65,0-3,1.35-3,3v19.968c0,1.65,1.35,3,3,3h27.776
		c1.65,0,3-1.35,3-3V213.915z"/>
</g>
<g>
	<g opacity="0.25">
		<path fill="#010101" d="M509.753,81c0,1.105-0.895,2-2,2h-29c-1.105,0-2-0.895-2-2V63c0-1.105,0.895-2,2-2h29c1.105,0,2,0.895,2,2
			V81z"/>
	</g>
	<g>
		<path fill="#BFA877" d="M509.753,79c0,1.105-0.895,2-2,2h-29c-1.105,0-2-0.895-2-2V61c0-1.105,0.895-2,2-2h29c1.105,0,2,0.895,2,2
			V79z"/>
	</g>
</g>
<path fill="#D8D9DA" d="M417.674,271.392c-0.009-5.24-0.018-10.479-0.027-15.719c6.718-1.118,8.339,2.194,8.327,8.359
	C425.963,270.264,423.439,272.313,417.674,271.392z"/>
<path fill="#D8D9DA" d="M385.56,255.673c-0.008,5.24-0.016,10.479-0.025,15.719c-5.766,0.921-8.29-1.127-8.302-7.36
	C377.221,257.866,378.842,254.555,385.56,255.673z"/>
<g>
	<g opacity="0.25">
		<path fill="#010101" d="M417.753,274c0,1.105-0.895,2-2,2h-29c-1.105,0-2-0.895-2-2v-17c0-1.105,0.895-2,2-2h29
			c1.105,0,2,0.895,2,2V274z"/>
	</g>
	<g>
		<path fill="#BFA877" d="M417.753,272c0,1.105-0.895,2-2,2h-29c-1.105,0-2-0.895-2-2v-17c0-1.105,0.895-2,2-2h29
			c1.105,0,2,0.895,2,2V272z"/>
	</g>
</g>
<path fill="#D8D9DA" d="M558.752,111.61c5.24-0.009,10.479-0.018,15.719-0.027c1.118,6.718-2.194,8.339-8.359,8.327
	C559.88,119.899,557.831,117.375,558.752,111.61z"/>
<path fill="#D8D9DA" d="M574.471,79.496c-5.24-0.008-10.479-0.016-15.719-0.025c-0.921-5.766,1.127-8.29,7.36-8.302
	C572.278,71.158,575.589,72.778,574.471,79.496z"/>
<g>
	<g opacity="0.25">
		<path fill="#010101" d="M576.753,112c0,1.105-0.895,2-2,2h-17c-1.105,0-2-0.895-2-2V83c0-1.105,0.895-2,2-2h17
			c1.105,0,2,0.895,2,2V112z"/>
	</g>
	<g>
		<path fill="#302F2F" d="M576.753,110c0,1.105-0.895,2-2,2h-17c-1.105,0-2-0.895-2-2V81c0-1.105,0.895-2,2-2h17
			c1.105,0,2,0.895,2,2V110z"/>
	</g>
</g>
<path fill="#D8D9DA" d="M592.752,111.61c5.24-0.009,10.479-0.018,15.719-0.027c1.118,6.718-2.194,8.339-8.359,8.327
	C593.88,119.899,591.831,117.375,592.752,111.61z"/>
<path fill="#D8D9DA" d="M608.471,79.496c-5.24-0.008-10.479-0.016-15.719-0.025c-0.921-5.766,1.127-8.29,7.36-8.302
	C606.278,71.158,609.589,72.778,608.471,79.496z"/>
<g>
	<g opacity="0.25">
		<path fill="#010101" d="M610.753,112c0,1.105-0.895,2-2,2h-17c-1.105,0-2-0.895-2-2V83c0-1.105,0.895-2,2-2h17
			c1.105,0,2,0.895,2,2V112z"/>
	</g>
	<g>
		<path fill="#D7D0B0" d="M610.753,110c0,1.105-0.895,2-2,2h-17c-1.105,0-2-0.895-2-2V81c0-1.105,0.895-2,2-2h17
			c1.105,0,2,0.895,2,2V110z"/>
	</g>
</g>
<path fill="#D8D9DA" d="M558.752,175.61c5.24-0.009,10.479-0.018,15.719-0.027c1.118,6.718-2.194,8.339-8.359,8.327
	C559.88,183.899,557.831,181.375,558.752,175.61z"/>
<path fill="#D8D9DA" d="M574.471,143.496c-5.24-0.008-10.479-0.016-15.719-0.025c-0.921-5.766,1.127-8.29,7.36-8.302
	C572.278,135.158,575.589,136.778,574.471,143.496z"/>
<g>
	<g opacity="0.25">
		<path fill="#010101" d="M576.753,176c0,1.105-0.895,2-2,2h-17c-1.105,0-2-0.895-2-2v-29c0-1.105,0.895-2,2-2h17
			c1.105,0,2,0.895,2,2V176z"/>
	</g>
	<g>
		<path fill="#302F2F" d="M576.753,174c0,1.105-0.895,2-2,2h-17c-1.105,0-2-0.895-2-2v-29c0-1.105,0.895-2,2-2h17
			c1.105,0,2,0.895,2,2V174z"/>
	</g>
</g>
<path fill="#D8D9DA" d="M558.752,239.61c5.24-0.009,10.479-0.018,15.719-0.027c1.118,6.718-2.194,8.339-8.359,8.327
	C559.88,247.899,557.831,245.375,558.752,239.61z"/>
<path fill="#D8D9DA" d="M574.471,207.496c-5.24-0.008-10.479-0.016-15.719-0.025c-0.921-5.766,1.127-8.29,7.36-8.302
	C572.278,199.158,575.589,200.778,574.471,207.496z"/>
<g>
	<g opacity="0.25">
		<path fill="#010101" d="M576.753,240c0,1.105-0.895,2-2,2h-17c-1.105,0-2-0.895-2-2v-29c0-1.105,0.895-2,2-2h17
			c1.105,0,2,0.895,2,2V240z"/>
	</g>
	<g>
		<path fill="#302F2F" d="M576.753,238c0,1.105-0.895,2-2,2h-17c-1.105,0-2-0.895-2-2v-29c0-1.105,0.895-2,2-2h17
			c1.105,0,2,0.895,2,2V238z"/>
	</g>
</g>
<rect x="332.753" y="137" fill="#DEDEDD" width="32" height="56"/>
<g>
	<g opacity="0.25">
		<rect x="334.753" y="143" fill="#010101" width="28" height="54"/>
	</g>
	<g>
		<rect x="334.753" y="139" fill="#FDC26D" width="28" height="54"/>
	</g>
</g>
<path fill="#3C4143" d="M334.753,189v-46h9.5c0,0,0.555,4.659,4.678,4.659s4.896-4.659,4.896-4.659h10.425l-0.367,46h-8.633
	c0,0-1.844-3.852-5.5-3.785S345.066,189,345.066,189H334.753z"/>
<rect x="591.753" y="90" fill="#999789" width="17" height="11"/>
<path fill="#D8D9DA" d="M592.752,179.61c5.24-0.009,10.479-0.018,15.719-0.027c1.118,6.718-2.194,8.339-8.359,8.327
	C593.88,187.899,591.831,185.375,592.752,179.61z"/>
<path fill="#D8D9DA" d="M608.471,147.496c-5.24-0.008-10.479-0.016-15.719-0.025c-0.921-5.766,1.127-8.29,7.36-8.302
	C606.278,139.158,609.589,140.778,608.471,147.496z"/>
<g>
	<g opacity="0.25">
		<path fill="#010101" d="M610.753,180c0,1.105-0.895,2-2,2h-17c-1.105,0-2-0.895-2-2v-29c0-1.105,0.895-2,2-2h17
			c1.105,0,2,0.895,2,2V180z"/>
	</g>
	<g>
		<path fill="#D7D0B0" d="M610.753,178c0,1.105-0.895,2-2,2h-17c-1.105,0-2-0.895-2-2v-29c0-1.105,0.895-2,2-2h17
			c1.105,0,2,0.895,2,2V178z"/>
	</g>
</g>
<rect x="591.753" y="158" fill="#999789" width="17" height="11"/>
<path fill="#D8D9DA" d="M592.752,242.61c5.24-0.009,10.479-0.018,15.719-0.027c1.118,6.718-2.194,8.339-8.359,8.327
	C593.88,250.899,591.831,248.375,592.752,242.61z"/>
<path fill="#D8D9DA" d="M608.471,210.496c-5.24-0.008-10.479-0.016-15.719-0.025c-0.921-5.766,1.127-8.29,7.36-8.302
	C606.278,202.158,609.589,203.778,608.471,210.496z"/>
<g>
	<g opacity="0.25">
		<path fill="#010101" d="M610.753,243c0,1.105-0.895,2-2,2h-17c-1.105,0-2-0.895-2-2v-29c0-1.105,0.895-2,2-2h17
			c1.105,0,2,0.895,2,2V243z"/>
	</g>
	<g>
		<path fill="#D7D0B0" d="M610.753,241c0,1.105-0.895,2-2,2h-17c-1.105,0-2-0.895-2-2v-29c0-1.105,0.895-2,2-2h17
			c1.105,0,2,0.895,2,2V241z"/>
	</g>
</g>
<rect x="591.753" y="221" fill="#999789" width="17" height="11"/>
<g>
	<path fill="#3C4143" d="M617.753,33c0,2.761-2.239,5-5,5h-301c-2.761,0-5-2.239-5-5V5c0-2.761,2.239-5,5-5h301c2.761,0,5,2.239,5,5
		V33z"/>
</g>
<rect x="588.753" y="14" fill="#191918" width="12" height="10"/>
<path fill="#262A2B" d="M589.253,14"/>
<polygon fill="#262A2B" points="589.253,14 581.253,6 609.253,6 601.253,14 "/>
<polygon fill="#75797B" points="601.253,24 609.253,32 581.253,32 589.253,24 "/>
<polygon fill="#2C3031" points="588.753,14 580.753,6 580.753,32 588.753,24 "/>
<polygon fill="#54595A" points="608.753,5.852 600.753,14 600.753,24 608.753,32 "/>
<rect x="549.753" y="14" fill="#191918" width="12" height="10"/>
<path fill="#262A2B" d="M550.253,14"/>
<polygon fill="#262A2B" points="550.253,14 542.253,6 570.253,6 562.253,14 "/>
<polygon fill="#75797B" points="562.253,24 570.253,32 542.253,32 550.253,24 "/>
<polygon fill="#2C3031" points="549.753,14 541.753,6 541.753,32 549.753,24 "/>
<polygon fill="#54595A" points="569.753,5.852 561.753,14 561.753,24 569.753,32 "/>
<rect x="512.753" y="14" fill="#191918" width="12" height="10"/>
<path fill="#262A2B" d="M513.253,14"/>
<polygon fill="#262A2B" points="513.253,14 505.253,6 533.253,6 525.253,14 "/>
<polygon fill="#75797B" points="525.253,24 533.253,32 505.253,32 513.253,24 "/>
<polygon fill="#2C3031" points="512.753,14 504.753,6 504.753,32 512.753,24 "/>
<polygon fill="#54595A" points="532.753,5.852 524.753,14 524.753,24 532.753,32 "/>
<rect x="474.753" y="14" fill="#191918" width="12" height="10"/>
<path fill="#262A2B" d="M475.253,14"/>
<polygon fill="#262A2B" points="475.253,14 467.253,6 495.253,6 487.253,14 "/>
<polygon fill="#75797B" points="487.253,24 495.253,32 467.253,32 475.253,24 "/>
<polygon fill="#2C3031" points="474.753,14 466.753,6 466.753,32 474.753,24 "/>
<polygon fill="#54595A" points="494.753,5.852 486.753,14 486.753,24 494.753,32 "/>
<rect x="436.753" y="14" fill="#191918" width="12" height="10"/>
<path fill="#262A2B" d="M437.253,14"/>
<polygon fill="#262A2B" points="437.253,14 429.253,6 457.253,6 449.253,14 "/>
<polygon fill="#75797B" points="449.253,24 457.253,32 429.253,32 437.253,24 "/>
<polygon fill="#2C3031" points="436.753,14 428.753,6 428.753,32 436.753,24 "/>
<polygon fill="#54595A" points="456.753,5.852 448.753,14 448.753,24 456.753,32 "/>
<rect x="398.753" y="14" fill="#191918" width="12" height="10"/>
<path fill="#262A2B" d="M399.253,14"/>
<polygon fill="#262A2B" points="399.253,14 391.253,6 419.253,6 411.253,14 "/>
<polygon fill="#75797B" points="411.253,24 419.253,32 391.253,32 399.253,24 "/>
<polygon fill="#2C3031" points="398.753,14 390.753,6 390.753,32 398.753,24 "/>
<polygon fill="#54595A" points="418.753,5.852 410.753,14 410.753,24 418.753,32 "/>
<rect x="360.753" y="14" fill="#191918" width="12" height="10"/>
<path fill="#262A2B" d="M361.253,14"/>
<polygon fill="#262A2B" points="361.253,14 353.253,6 381.253,6 373.253,14 "/>
<polygon fill="#75797B" points="373.253,24 381.253,32 353.253,32 361.253,24 "/>
<polygon fill="#2C3031" points="360.753,14 352.753,6 352.753,32 360.753,24 "/>
<polygon fill="#54595A" points="380.753,5.852 372.753,14 372.753,24 380.753,32 "/>
<rect x="322.753" y="14" fill="#191918" width="12" height="10"/>
<path fill="#262A2B" d="M323.253,14"/>
<polygon fill="#262A2B" points="323.253,14 315.253,6 343.253,6 335.253,14 "/>
<polygon fill="#75797B" points="335.253,24 343.253,32 315.253,32 323.253,24 "/>
<polygon fill="#2C3031" points="322.753,14 314.753,6 314.753,32 322.753,24 "/>
<polygon fill="#54595A" points="342.753,5.852 334.753,14 334.753,24 342.753,32 "/>
<g>
	<g opacity="0.25">
		<path fill="#010101" d="M618.753,324c0,2.761-2.239,5-5,5h-303c-2.761,0-5-2.239-5-5v-28c0-2.761,2.239-5,5-5h303
			c2.761,0,5,2.239,5,5V324z"/>
	</g>
	<g>
		<path fill="#3C4143" d="M618.753,320c0,2.761-2.239,5-5,5h-303c-2.761,0-5-2.239-5-5v-28c0-2.761,2.239-5,5-5h303
			c2.761,0,5,2.239,5,5V320z"/>
	</g>
</g>
<rect x="588.753" y="301" fill="#191918" width="12" height="10"/>
<path fill="#262A2B" d="M589.253,301"/>
<polygon fill="#262A2B" points="589.253,301 581.253,293 609.253,293 601.253,301 "/>
<polygon fill="#75797B" points="601.253,311 609.253,319 581.253,319 589.253,311 "/>
<polygon fill="#2C3031" points="588.753,301 580.753,293 580.753,319 588.753,311 "/>
<polygon fill="#54595A" points="608.753,292.852 600.753,301 600.753,311 608.753,319 "/>
<rect x="549.753" y="301" fill="#191918" width="12" height="10"/>
<path fill="#262A2B" d="M550.253,301"/>
<polygon fill="#262A2B" points="550.253,301 542.253,293 570.253,293 562.253,301 "/>
<polygon fill="#75797B" points="562.253,311 570.253,319 542.253,319 550.253,311 "/>
<polygon fill="#2C3031" points="549.753,301 541.753,293 541.753,319 549.753,311 "/>
<polygon fill="#54595A" points="569.753,292.852 561.753,301 561.753,311 569.753,319 "/>
<rect x="512.753" y="301" fill="#191918" width="12" height="10"/>
<path fill="#262A2B" d="M513.253,301"/>
<polygon fill="#262A2B" points="513.253,301 505.253,293 533.253,293 525.253,301 "/>
<polygon fill="#75797B" points="525.253,311 533.253,319 505.253,319 513.253,311 "/>
<polygon fill="#2C3031" points="512.753,301 504.753,293 504.753,319 512.753,311 "/>
<polygon fill="#54595A" points="532.753,292.852 524.753,301 524.753,311 532.753,319 "/>
<rect x="474.753" y="301" fill="#191918" width="12" height="10"/>
<path fill="#262A2B" d="M475.253,301"/>
<polygon fill="#262A2B" points="475.253,301 467.253,293 495.253,293 487.253,301 "/>
<polygon fill="#75797B" points="487.253,311 495.253,319 467.253,319 475.253,311 "/>
<polygon fill="#2C3031" points="474.753,301 466.753,293 466.753,319 474.753,311 "/>
<polygon fill="#54595A" points="494.753,292.852 486.753,301 486.753,311 494.753,319 "/>
<rect x="436.753" y="301" fill="#191918" width="12" height="10"/>
<path fill="#262A2B" d="M437.253,301"/>
<polygon fill="#262A2B" points="437.253,301 429.253,293 457.253,293 449.253,301 "/>
<polygon fill="#75797B" points="449.253,311 457.253,319 429.253,319 437.253,311 "/>
<polygon fill="#2C3031" points="436.753,301 428.753,293 428.753,319 436.753,311 "/>
<polygon fill="#54595A" points="456.753,292.852 448.753,301 448.753,311 456.753,319 "/>
<rect x="398.753" y="301" fill="#191918" width="12" height="10"/>
<path fill="#262A2B" d="M399.253,301"/>
<polygon fill="#262A2B" points="399.253,301 391.253,293 419.253,293 411.253,301 "/>
<polygon fill="#75797B" points="411.253,311 419.253,319 391.253,319 399.253,311 "/>
<polygon fill="#2C3031" points="398.753,301 390.753,293 390.753,319 398.753,311 "/>
<polygon fill="#54595A" points="418.753,292.852 410.753,301 410.753,311 418.753,319 "/>
<rect x="360.753" y="301" fill="#191918" width="12" height="10"/>
<path fill="#262A2B" d="M361.253,301"/>
<polygon fill="#262A2B" points="361.253,301 353.253,293 381.253,293 373.253,301 "/>
<polygon fill="#75797B" points="373.253,311 381.253,319 353.253,319 361.253,311 "/>
<polygon fill="#2C3031" points="360.753,301 352.753,293 352.753,319 360.753,311 "/>
<polygon fill="#54595A" points="380.753,292.852 372.753,301 372.753,311 380.753,319 "/>
<rect x="322.753" y="301" fill="#191918" width="12" height="10"/>
<path fill="#262A2B" d="M323.253,301"/>
<polygon fill="#262A2B" points="323.253,301 315.253,293 343.253,293 335.253,301 "/>
<polygon fill="#75797B" points="335.253,311 343.253,319 315.253,319 323.253,311 "/>
<polygon fill="#2C3031" points="322.753,301 314.753,293 314.753,319 322.753,311 "/>
<polygon fill="#54595A" points="342.753,292.852 334.753,301 334.753,311 342.753,319 "/>
<rect x="262.753" y="60" fill="#47537F" width="3" height="227"/>
<g>
</g>
<g>
</g>
<g>
</g>
<g>
</g>
<g>
</g>
<g>
</g>
</svg>
