<?xml version="1.0" encoding="utf-8"?>
<!-- Generator: Adobe Illustrator 17.0.2, SVG Export Plug-In . SVG Version: 6.00 Build 0)  -->
<!DOCTYPE svg PUBLIC "-//W3C//DTD SVG 1.1//EN" "http://www.w3.org/Graphics/SVG/1.1/DTD/svg11.dtd">
<svg version="1.1" id="Layer_1" xmlns="http://www.w3.org/2000/svg" xmlns:xlink="http://www.w3.org/1999/xlink" x="0px" y="0px"
	 width="48px" height="42.941px" viewBox="0 0 48 42.941" enable-background="new 0 0 48 42.941" xml:space="preserve">
<g>
	<g>
		<g>
			<g>
				<line fill="none" stroke="#E0E1E0" stroke-miterlimit="10" x1="0" y1="18.714" x2="48" y2="18.714"/>
				<line fill="none" stroke="#E0E0DF" stroke-miterlimit="10" x1="0" y1="18.714" x2="48" y2="18.714"/>
				<line fill="none" stroke="#DFDFDE" stroke-miterlimit="10" x1="0" y1="18.714" x2="48" y2="18.714"/>
				<line fill="none" stroke="#DEDEDD" stroke-miterlimit="10" x1="0" y1="18.714" x2="48" y2="18.714"/>
				<line fill="none" stroke="#DDDDDC" stroke-miterlimit="10" x1="0" y1="18.714" x2="48" y2="18.714"/>
				<line fill="none" stroke="#DCDBDB" stroke-miterlimit="10" x1="0" y1="18.714" x2="48" y2="18.714"/>
				<line fill="none" stroke="#DBDADA" stroke-miterlimit="10" x1="0" y1="18.714" x2="48" y2="18.714"/>
				<line fill="none" stroke="#D9D9D8" stroke-miterlimit="10" x1="0" y1="18.714" x2="48" y2="18.714"/>
				<line fill="none" stroke="#D8D9D8" stroke-miterlimit="10" x1="0" y1="18.714" x2="48" y2="18.714"/>
				<line fill="none" stroke="#D7D7D7" stroke-miterlimit="10" x1="0" y1="18.714" x2="48" y2="18.714"/>
				<line fill="none" stroke="#D7D6D6" stroke-miterlimit="10" x1="0" y1="18.714" x2="48" y2="18.714"/>
				<line fill="none" stroke="#D6D5D5" stroke-miterlimit="10" x1="0" y1="18.714" x2="48" y2="18.714"/>
				<line fill="none" stroke="#D4D4D4" stroke-miterlimit="10" x1="0" y1="18.714" x2="48" y2="18.714"/>
				<line fill="none" stroke="#D3D3D3" stroke-miterlimit="10" x1="0" y1="18.714" x2="48" y2="18.714"/>
				<line fill="none" stroke="#D2D3D3" stroke-miterlimit="10" x1="0" y1="18.714" x2="48" y2="18.714"/>
				<line fill="none" stroke="#D1D2D2" stroke-miterlimit="10" x1="0" y1="18.714" x2="48" y2="18.714"/>
				<line fill="none" stroke="#D0D1D1" stroke-miterlimit="10" x1="0" y1="17.714" x2="48" y2="17.714"/>
				<line fill="none" stroke="#CFD0D0" stroke-miterlimit="10" x1="0" y1="17.714" x2="48" y2="17.714"/>
				<line fill="none" stroke="#CFCFCE" stroke-miterlimit="10" x1="0" y1="17.714" x2="48" y2="17.714"/>
				<line fill="none" stroke="#CECECD" stroke-miterlimit="10" x1="0" y1="17.714" x2="48" y2="17.714"/>
				<line fill="none" stroke="#CDCCCC" stroke-miterlimit="10" x1="0" y1="17.714" x2="48" y2="17.714"/>
				<line fill="none" stroke="#CBCBCB" stroke-miterlimit="10" x1="0" y1="17.714" x2="48" y2="17.714"/>
				<line fill="none" stroke="#CACACA" stroke-miterlimit="10" x1="0" y1="17.714" x2="48" y2="17.714"/>
				<line fill="none" stroke="#C9C9C9" stroke-miterlimit="10" x1="0" y1="17.714" x2="48" y2="17.714"/>
				<line fill="none" stroke="#C8C8C8" stroke-miterlimit="10" x1="0" y1="17.714" x2="48" y2="17.714"/>
				<line fill="none" stroke="#C8C7C7" stroke-miterlimit="10" x1="0" y1="17.714" x2="48" y2="17.714"/>
				<line fill="none" stroke="#C7C6C6" stroke-miterlimit="10" x1="0" y1="17.714" x2="48" y2="17.714"/>
				<line fill="none" stroke="#C6C5C5" stroke-miterlimit="10" x1="0" y1="17.714" x2="48" y2="17.714"/>
				<line fill="none" stroke="#C4C4C4" stroke-miterlimit="10" x1="0" y1="17.714" x2="48" y2="17.714"/>
				<line fill="none" stroke="#C3C3C3" stroke-miterlimit="10" x1="0" y1="17.714" x2="48" y2="17.714"/>
				<line fill="none" stroke="#C2C2C2" stroke-miterlimit="10" x1="0" y1="17.714" x2="48" y2="17.714"/>
				<line fill="none" stroke="#C2C1C1" stroke-miterlimit="10" x1="0" y1="17.714" x2="48" y2="17.714"/>
				<line fill="none" stroke="#C1C0C0" stroke-miterlimit="10" x1="0" y1="17.714" x2="48" y2="17.714"/>
				<line fill="none" stroke="#C0BFBF" stroke-miterlimit="10" x1="0" y1="17.714" x2="48" y2="17.714"/>
				<line fill="none" stroke="#BFBEBE" stroke-miterlimit="10" x1="0" y1="17.714" x2="48" y2="17.714"/>
				<line fill="none" stroke="#BDBDBD" stroke-miterlimit="10" x1="0" y1="17.714" x2="48" y2="17.714"/>
				<line fill="none" stroke="#BCBCBC" stroke-miterlimit="10" x1="0" y1="17.714" x2="48" y2="17.714"/>
				<line fill="none" stroke="#BCBCBB" stroke-miterlimit="10" x1="0" y1="17.714" x2="48" y2="17.714"/>
				<line fill="none" stroke="#BBBBBB" stroke-miterlimit="10" x1="0" y1="17.714" x2="48" y2="17.714"/>
				<line fill="none" stroke="#BABABA" stroke-miterlimit="10" x1="0" y1="17.714" x2="48" y2="17.714"/>
				<line fill="none" stroke="#B9B9B9" stroke-miterlimit="10" x1="0" y1="17.714" x2="48" y2="17.714"/>
				<line fill="none" stroke="#B7B7B8" stroke-miterlimit="10" x1="0" y1="17.714" x2="48" y2="17.714"/>
				<line fill="none" stroke="#B6B7B7" stroke-miterlimit="10" x1="0" y1="17.714" x2="48" y2="17.714"/>
				<line fill="none" stroke="#B5B6B6" stroke-miterlimit="10" x1="0" y1="17.714" x2="48" y2="17.714"/>
				<line fill="none" stroke="#B5B5B5" stroke-miterlimit="10" x1="0" y1="17.714" x2="48" y2="17.714"/>
				<line fill="none" stroke="#B5B5B5" stroke-miterlimit="10" x1="0" y1="17.714" x2="48" y2="17.714"/>
				<line fill="none" stroke="#B4B4B4" stroke-miterlimit="10" x1="0" y1="16.714" x2="48" y2="16.714"/>
				<line fill="none" stroke="#B3B3B3" stroke-miterlimit="10" x1="0" y1="16.714" x2="48" y2="16.714"/>
				<line fill="none" stroke="#B2B2B2" stroke-miterlimit="10" x1="0" y1="16.714" x2="48" y2="16.714"/>
				<line fill="none" stroke="#B0B1B1" stroke-miterlimit="10" x1="0" y1="16.714" x2="48" y2="16.714"/>
				<line fill="none" stroke="#B0B0B0" stroke-miterlimit="10" x1="0" y1="16.714" x2="48" y2="16.714"/>
				<line fill="none" stroke="#AFAFAF" stroke-miterlimit="10" x1="0" y1="16.714" x2="48" y2="16.714"/>
				<line fill="none" stroke="#AEAEAE" stroke-miterlimit="10" x1="0" y1="16.714" x2="48" y2="16.714"/>
				<line fill="none" stroke="#ADADAD" stroke-miterlimit="10" x1="0" y1="16.714" x2="48" y2="16.714"/>
				<line fill="none" stroke="#ACACAC" stroke-miterlimit="10" x1="0" y1="16.714" x2="48" y2="16.714"/>
				<line fill="none" stroke="#ABABAB" stroke-miterlimit="10" x1="0" y1="16.714" x2="48" y2="16.714"/>
				<line fill="none" stroke="#AAAAAA" stroke-miterlimit="10" x1="0" y1="16.714" x2="48" y2="16.714"/>
				<line fill="none" stroke="#A9A8A8" stroke-miterlimit="10" x1="0" y1="16.714" x2="48" y2="16.714"/>
				<line fill="none" stroke="#A8A7A8" stroke-miterlimit="10" x1="0" y1="16.714" x2="48" y2="16.714"/>
				<line fill="none" stroke="#A7A6A6" stroke-miterlimit="10" x1="0" y1="16.714" x2="48" y2="16.714"/>
				<line fill="none" stroke="#A5A5A5" stroke-miterlimit="10" x1="0" y1="16.714" x2="48" y2="16.714"/>
				<line fill="none" stroke="#A4A4A4" stroke-miterlimit="10" x1="0" y1="16.714" x2="48" y2="16.714"/>
				<line fill="none" stroke="#A3A3A2" stroke-miterlimit="10" x1="0" y1="16.714" x2="48" y2="16.714"/>
				<line fill="none" stroke="#A2A2A1" stroke-miterlimit="10" x1="0" y1="16.714" x2="48" y2="16.714"/>
				<line fill="none" stroke="#A1A1A0" stroke-miterlimit="10" x1="0" y1="16.714" x2="48" y2="16.714"/>
				<line fill="none" stroke="#A09F9F" stroke-miterlimit="10" x1="0" y1="16.714" x2="48" y2="16.714"/>
				<line fill="none" stroke="#9F9F9F" stroke-miterlimit="10" x1="0" y1="16.714" x2="48" y2="16.714"/>
				<line fill="none" stroke="#9E9E9E" stroke-miterlimit="10" x1="0" y1="16.714" x2="48" y2="16.714"/>
				<line fill="none" stroke="#9C9C9D" stroke-miterlimit="10" x1="0" y1="16.714" x2="48" y2="16.714"/>
				<line fill="none" stroke="#9B9C9C" stroke-miterlimit="10" x1="0" y1="16.714" x2="48" y2="16.714"/>
				<line fill="none" stroke="#9B9B9B" stroke-miterlimit="10" x1="0" y1="16.714" x2="48" y2="16.714"/>
				<line fill="none" stroke="#9A9A9A" stroke-miterlimit="10" x1="0" y1="16.714" x2="48" y2="16.714"/>
				<line fill="none" stroke="#989898" stroke-miterlimit="10" x1="0" y1="16.714" x2="48" y2="16.714"/>
				<line fill="none" stroke="#989798" stroke-miterlimit="10" x1="0" y1="16.714" x2="48" y2="16.714"/>
				<line fill="none" stroke="#979797" stroke-miterlimit="10" x1="0" y1="16.714" x2="48" y2="16.714"/>
				<line fill="none" stroke="#969696" stroke-miterlimit="10" x1="0" y1="16.714" x2="48" y2="16.714"/>
				<line fill="none" stroke="#959595" stroke-miterlimit="10" x1="0" y1="15.714" x2="48" y2="15.714"/>
				<line fill="none" stroke="#959494" stroke-miterlimit="10" x1="0" y1="15.714" x2="48" y2="15.714"/>
				<line fill="none" stroke="#939393" stroke-miterlimit="10" x1="0" y1="15.714" x2="48" y2="15.714"/>
				<line fill="none" stroke="#939292" stroke-miterlimit="10" x1="0" y1="15.714" x2="48" y2="15.714"/>
				<line fill="none" stroke="#919191" stroke-miterlimit="10" x1="0" y1="15.714" x2="48" y2="15.714"/>
				<line fill="none" stroke="#919090" stroke-miterlimit="10" x1="0" y1="15.714" x2="48" y2="15.714"/>
				<line fill="none" stroke="#908F8F" stroke-miterlimit="10" x1="0" y1="15.714" x2="48" y2="15.714"/>
				<line fill="none" stroke="#8F8F8E" stroke-miterlimit="10" x1="0" y1="15.714" x2="48" y2="15.714"/>
				<line fill="none" stroke="#8E8D8D" stroke-miterlimit="10" x1="0" y1="15.714" x2="48" y2="15.714"/>
				<line fill="none" stroke="#8C8C8C" stroke-miterlimit="10" x1="0" y1="15.714" x2="48" y2="15.714"/>
				<line fill="none" stroke="#8B8B8B" stroke-miterlimit="10" x1="0" y1="15.714" x2="48" y2="15.714"/>
				<line fill="none" stroke="#8B8A8A" stroke-miterlimit="10" x1="0" y1="15.714" x2="48" y2="15.714"/>
				<line fill="none" stroke="#898989" stroke-miterlimit="10" x1="0" y1="15.714" x2="48" y2="15.714"/>
				<line fill="none" stroke="#888888" stroke-miterlimit="10" x1="0" y1="15.714" x2="48" y2="15.714"/>
				<line fill="none" stroke="#878787" stroke-miterlimit="10" x1="0" y1="15.714" x2="48" y2="15.714"/>
			</g>
			<g>
				<line fill="none" stroke="#E0E1E0" stroke-miterlimit="10" x1="0" y1="19.714" x2="48" y2="19.714"/>
				<line fill="none" stroke="#E0E0DF" stroke-miterlimit="10" x1="0" y1="19.714" x2="48" y2="19.714"/>
				<line fill="none" stroke="#DFDFDE" stroke-miterlimit="10" x1="0" y1="19.714" x2="48" y2="19.714"/>
				<line fill="none" stroke="#DEDEDD" stroke-miterlimit="10" x1="0" y1="19.714" x2="48" y2="19.714"/>
				<line fill="none" stroke="#DDDDDC" stroke-miterlimit="10" x1="0" y1="19.714" x2="48" y2="19.714"/>
				<line fill="none" stroke="#DCDBDB" stroke-miterlimit="10" x1="0" y1="19.714" x2="48" y2="19.714"/>
				<line fill="none" stroke="#DBDADA" stroke-miterlimit="10" x1="0" y1="19.714" x2="48" y2="19.714"/>
				<line fill="none" stroke="#D9D9D8" stroke-miterlimit="10" x1="0" y1="19.714" x2="48" y2="19.714"/>
				<line fill="none" stroke="#D8D9D8" stroke-miterlimit="10" x1="0" y1="19.714" x2="48" y2="19.714"/>
				<line fill="none" stroke="#D7D7D7" stroke-miterlimit="10" x1="0" y1="19.714" x2="48" y2="19.714"/>
				<line fill="none" stroke="#D7D6D6" stroke-miterlimit="10" x1="0" y1="19.714" x2="48" y2="19.714"/>
				<line fill="none" stroke="#D6D5D5" stroke-miterlimit="10" x1="0" y1="19.714" x2="48" y2="19.714"/>
				<line fill="none" stroke="#D4D4D4" stroke-miterlimit="10" x1="0" y1="19.714" x2="48" y2="19.714"/>
				<line fill="none" stroke="#D3D3D3" stroke-miterlimit="10" x1="0" y1="19.714" x2="48" y2="19.714"/>
				<line fill="none" stroke="#D2D3D3" stroke-miterlimit="10" x1="0" y1="19.714" x2="48" y2="19.714"/>
				<line fill="none" stroke="#D1D2D2" stroke-miterlimit="10" x1="0" y1="19.714" x2="48" y2="19.714"/>
				<line fill="none" stroke="#D0D1D1" stroke-miterlimit="10" x1="0" y1="19.714" x2="48" y2="19.714"/>
				<line fill="none" stroke="#CFD0D0" stroke-miterlimit="10" x1="0" y1="19.714" x2="48" y2="19.714"/>
				<line fill="none" stroke="#CFCFCE" stroke-miterlimit="10" x1="0" y1="19.714" x2="48" y2="19.714"/>
				<line fill="none" stroke="#CECECD" stroke-miterlimit="10" x1="0" y1="19.714" x2="48" y2="19.714"/>
				<line fill="none" stroke="#CDCCCC" stroke-miterlimit="10" x1="0" y1="19.714" x2="48" y2="19.714"/>
				<line fill="none" stroke="#CBCBCB" stroke-miterlimit="10" x1="0" y1="19.714" x2="48" y2="19.714"/>
				<line fill="none" stroke="#CACACA" stroke-miterlimit="10" x1="0" y1="19.714" x2="48" y2="19.714"/>
				<line fill="none" stroke="#C9C9C9" stroke-miterlimit="10" x1="0" y1="20.714" x2="48" y2="20.714"/>
				<line fill="none" stroke="#C8C8C8" stroke-miterlimit="10" x1="0" y1="20.714" x2="48" y2="20.714"/>
				<line fill="none" stroke="#C8C7C7" stroke-miterlimit="10" x1="0" y1="20.714" x2="48" y2="20.714"/>
				<line fill="none" stroke="#C7C6C6" stroke-miterlimit="10" x1="0" y1="20.714" x2="48" y2="20.714"/>
				<line fill="none" stroke="#C6C5C5" stroke-miterlimit="10" x1="0" y1="20.714" x2="48" y2="20.714"/>
				<line fill="none" stroke="#C4C4C4" stroke-miterlimit="10" x1="0" y1="20.714" x2="48" y2="20.714"/>
				<line fill="none" stroke="#C3C3C3" stroke-miterlimit="10" x1="0" y1="20.714" x2="48" y2="20.714"/>
				<line fill="none" stroke="#C2C2C2" stroke-miterlimit="10" x1="0" y1="20.714" x2="48" y2="20.714"/>
				<line fill="none" stroke="#C2C1C1" stroke-miterlimit="10" x1="0" y1="20.714" x2="48" y2="20.714"/>
				<line fill="none" stroke="#C1C0C0" stroke-miterlimit="10" x1="0" y1="20.714" x2="48" y2="20.714"/>
				<line fill="none" stroke="#C0BFBF" stroke-miterlimit="10" x1="0" y1="20.714" x2="48" y2="20.714"/>
				<line fill="none" stroke="#BFBEBE" stroke-miterlimit="10" x1="0" y1="20.714" x2="48" y2="20.714"/>
				<line fill="none" stroke="#BDBDBD" stroke-miterlimit="10" x1="0" y1="20.714" x2="48" y2="20.714"/>
				<line fill="none" stroke="#BCBCBC" stroke-miterlimit="10" x1="0" y1="20.714" x2="48" y2="20.714"/>
				<line fill="none" stroke="#BCBCBB" stroke-miterlimit="10" x1="0" y1="20.714" x2="48" y2="20.714"/>
				<line fill="none" stroke="#BBBBBB" stroke-miterlimit="10" x1="0" y1="20.714" x2="48" y2="20.714"/>
				<line fill="none" stroke="#BABABA" stroke-miterlimit="10" x1="0" y1="20.714" x2="48" y2="20.714"/>
				<line fill="none" stroke="#B9B9B9" stroke-miterlimit="10" x1="0" y1="20.714" x2="48" y2="20.714"/>
				<line fill="none" stroke="#B7B7B8" stroke-miterlimit="10" x1="0" y1="20.714" x2="48" y2="20.714"/>
				<line fill="none" stroke="#B6B7B7" stroke-miterlimit="10" x1="0" y1="20.714" x2="48" y2="20.714"/>
				<line fill="none" stroke="#B5B6B6" stroke-miterlimit="10" x1="0" y1="20.714" x2="48" y2="20.714"/>
				<line fill="none" stroke="#B5B5B5" stroke-miterlimit="10" x1="0" y1="20.714" x2="48" y2="20.714"/>
				<line fill="none" stroke="#B5B5B5" stroke-miterlimit="10" x1="0" y1="20.714" x2="48" y2="20.714"/>
				<line fill="none" stroke="#B4B4B4" stroke-miterlimit="10" x1="0" y1="20.714" x2="48" y2="20.714"/>
				<line fill="none" stroke="#B3B3B3" stroke-miterlimit="10" x1="0" y1="20.714" x2="48" y2="20.714"/>
				<line fill="none" stroke="#B2B2B2" stroke-miterlimit="10" x1="0" y1="20.714" x2="48" y2="20.714"/>
				<line fill="none" stroke="#B0B1B1" stroke-miterlimit="10" x1="0" y1="20.714" x2="48" y2="20.714"/>
				<line fill="none" stroke="#B0B0B0" stroke-miterlimit="10" x1="0" y1="20.714" x2="48" y2="20.714"/>
				<line fill="none" stroke="#AFAFAF" stroke-miterlimit="10" x1="0" y1="20.714" x2="48" y2="20.714"/>
				<line fill="none" stroke="#AEAEAE" stroke-miterlimit="10" x1="0" y1="20.714" x2="48" y2="20.714"/>
				<line fill="none" stroke="#ADADAD" stroke-miterlimit="10" x1="0" y1="20.714" x2="48" y2="20.714"/>
				<line fill="none" stroke="#ACACAC" stroke-miterlimit="10" x1="0" y1="20.714" x2="48" y2="20.714"/>
				<line fill="none" stroke="#ABABAB" stroke-miterlimit="10" x1="0" y1="20.714" x2="48" y2="20.714"/>
				<line fill="none" stroke="#AAAAAA" stroke-miterlimit="10" x1="0" y1="20.714" x2="48" y2="20.714"/>
				<line fill="none" stroke="#A9A8A8" stroke-miterlimit="10" x1="0" y1="20.714" x2="48" y2="20.714"/>
				<line fill="none" stroke="#A8A7A8" stroke-miterlimit="10" x1="0" y1="20.714" x2="48" y2="20.714"/>
				<line fill="none" stroke="#A7A6A6" stroke-miterlimit="10" x1="0" y1="20.714" x2="48" y2="20.714"/>
				<line fill="none" stroke="#A5A5A5" stroke-miterlimit="10" x1="0" y1="20.714" x2="48" y2="20.714"/>
				<line fill="none" stroke="#A4A4A4" stroke-miterlimit="10" x1="0" y1="20.714" x2="48" y2="20.714"/>
				<line fill="none" stroke="#A3A3A2" stroke-miterlimit="10" x1="0" y1="20.714" x2="48" y2="20.714"/>
				<line fill="none" stroke="#A2A2A1" stroke-miterlimit="10" x1="0" y1="20.714" x2="48" y2="20.714"/>
				<line fill="none" stroke="#A1A1A0" stroke-miterlimit="10" x1="0" y1="20.714" x2="48" y2="20.714"/>
				<line fill="none" stroke="#A09F9F" stroke-miterlimit="10" x1="0" y1="20.714" x2="48" y2="20.714"/>
				<line fill="none" stroke="#9F9F9F" stroke-miterlimit="10" x1="0" y1="20.714" x2="48" y2="20.714"/>
				<line fill="none" stroke="#9E9E9E" stroke-miterlimit="10" x1="0" y1="20.714" x2="48" y2="20.714"/>
				<line fill="none" stroke="#9C9C9D" stroke-miterlimit="10" x1="0" y1="21.714" x2="48" y2="21.714"/>
				<line fill="none" stroke="#9B9C9C" stroke-miterlimit="10" x1="0" y1="21.714" x2="48" y2="21.714"/>
				<line fill="none" stroke="#9B9B9B" stroke-miterlimit="10" x1="0" y1="21.714" x2="48" y2="21.714"/>
				<line fill="none" stroke="#9A9A9A" stroke-miterlimit="10" x1="0" y1="21.714" x2="48" y2="21.714"/>
				<line fill="none" stroke="#989898" stroke-miterlimit="10" x1="0" y1="21.714" x2="48" y2="21.714"/>
				<line fill="none" stroke="#989798" stroke-miterlimit="10" x1="0" y1="21.714" x2="48" y2="21.714"/>
				<line fill="none" stroke="#979797" stroke-miterlimit="10" x1="0" y1="21.714" x2="48" y2="21.714"/>
				<line fill="none" stroke="#969696" stroke-miterlimit="10" x1="0" y1="21.714" x2="48" y2="21.714"/>
				<line fill="none" stroke="#959595" stroke-miterlimit="10" x1="0" y1="21.714" x2="48" y2="21.714"/>
				<line fill="none" stroke="#959494" stroke-miterlimit="10" x1="0" y1="21.714" x2="48" y2="21.714"/>
				<line fill="none" stroke="#939393" stroke-miterlimit="10" x1="0" y1="21.714" x2="48" y2="21.714"/>
				<line fill="none" stroke="#939292" stroke-miterlimit="10" x1="0" y1="21.714" x2="48" y2="21.714"/>
				<line fill="none" stroke="#919191" stroke-miterlimit="10" x1="0" y1="21.714" x2="48" y2="21.714"/>
				<line fill="none" stroke="#919090" stroke-miterlimit="10" x1="0" y1="21.714" x2="48" y2="21.714"/>
				<line fill="none" stroke="#908F8F" stroke-miterlimit="10" x1="0" y1="21.714" x2="48" y2="21.714"/>
				<line fill="none" stroke="#8F8F8E" stroke-miterlimit="10" x1="0" y1="21.714" x2="48" y2="21.714"/>
				<line fill="none" stroke="#8E8D8D" stroke-miterlimit="10" x1="0" y1="21.714" x2="48" y2="21.714"/>
				<line fill="none" stroke="#8C8C8C" stroke-miterlimit="10" x1="0" y1="21.714" x2="48" y2="21.714"/>
				<line fill="none" stroke="#8B8B8B" stroke-miterlimit="10" x1="0" y1="21.714" x2="48" y2="21.714"/>
				<line fill="none" stroke="#8B8A8A" stroke-miterlimit="10" x1="0" y1="21.714" x2="48" y2="21.714"/>
				<line fill="none" stroke="#898989" stroke-miterlimit="10" x1="0" y1="21.714" x2="48" y2="21.714"/>
				<line fill="none" stroke="#888888" stroke-miterlimit="10" x1="0" y1="21.714" x2="48" y2="21.714"/>
				<line fill="none" stroke="#878787" stroke-miterlimit="10" x1="0" y1="21.714" x2="48" y2="21.714"/>
			</g>
		</g>
	</g>
</g>
<g>
	<g opacity="0.25">
		<path fill="#010101" d="M7.453,23.971c0,2.619,0.117,6.252-0.087,9.771c2.88,6.809,7.235,9.2,15.093,9.2
			c10.477,0,18.971-8.493,18.971-18.971S32.937,5,22.46,5C14.231,5,10.048,7.859,7.421,15.183
			C7.332,19.455,7.453,21.722,7.453,23.971z"/>
	</g>
	<g>
		<path fill="#EF4226" d="M7.453,18.971c0,2.619,0.117,6.252-0.087,9.771c2.88,6.809,7.235,9.2,15.093,9.2
			c10.477,0,18.971-8.493,18.971-18.971S32.937,0,22.46,0C14.231,0,10.048,2.859,7.421,10.183
			C7.332,14.455,7.453,16.722,7.453,18.971z"/>
	</g>
</g>
<g>
	<path fill="#010101" d="M15.575,18.229v1.097h-4.169v-1.097H15.575z"/>
	<path fill="#010101" d="M32.381,14.364v3.966h3.813v1.013h-3.813v4h-1.08v-4h-3.814V18.33h3.814v-3.966H32.381z"/>
</g>
<g>
</g>
<g>
</g>
<g>
</g>
<g>
</g>
<g>
</g>
<g>
</g>
</svg>
