<?xml version="1.0" encoding="utf-8"?>
<!-- Generator: Adobe Illustrator 17.0.2, SVG Export Plug-In . SVG Version: 6.00 Build 0)  -->
<!DOCTYPE svg PUBLIC "-//W3C//DTD SVG 1.1//EN" "http://www.w3.org/Graphics/SVG/1.1/DTD/svg11.dtd">
<svg version="1.1" id="Layer_1" xmlns="http://www.w3.org/2000/svg" xmlns:xlink="http://www.w3.org/1999/xlink" x="0px" y="0px"
	 width="186.096px" height="187.534px" viewBox="0 0 186.096 187.534" enable-background="new 0 0 186.096 187.534"
	 xml:space="preserve">
<circle fill="#404040" cx="93.415" cy="95.684" r="86.415"/>
<circle fill="#302F2F" cx="93.415" cy="95.684" r="25.773"/>
<g>
	<circle fill="none" cx="93.415" cy="95.684" r="45.977"/>
	<path fill="#5C5C5C" d="M93.568,48.058c-0.919,0.733-3.074,1.712-5.935,2.281c-7.558,1.502-13.089-2.316-14.528-9.557
		c-1.559-7.84,2.938-13.653,10.214-15.099c2.86-0.569,5.028-0.376,6.002-0.093l-0.265,3.651c-1.229-0.27-2.867-0.385-4.845,0.009
		c-4.838,0.962-7.73,4.693-6.593,10.415c1.039,5.227,4.777,7.971,10.005,6.932c1.767-0.351,3.532-1.07,4.557-1.824L93.568,48.058z"
		/>
	<path fill="#5C5C5C" d="M114.053,42.391l-8.862-2.255l-1.758,6.91l9.91,2.521l-0.897,3.523l-14.201-3.613l5.982-23.518
		l13.679,3.479l-0.896,3.524l-9.387-2.387l-1.545,6.072l8.863,2.254L114.053,42.391z"/>
	<path fill="#5C5C5C" d="M133.429,42.457l-5.387-4.333l2.325-2.89l14.279,11.486l-2.323,2.89l-5.443-4.378l-12.887,16.02
		l-3.45-2.776L133.429,42.457z"/>
	<path fill="#5C5C5C" d="M151.45,65.488l-0.032-0.064l-3.835-2.882l2.666-2.161l5.038,3.854l1.644,3.323l-20.975,10.371l-1.899-3.84
		L151.45,65.488z"/>
	<path fill="#5C5C5C" d="M139.182,86.233l2.699-0.079l2.635,2.695c5.271,5.355,8.154,7.863,11.25,7.809
		c2.086-0.061,3.889-1.23,3.799-4.289c-0.061-2.051-1.155-3.784-2.09-4.944l3.093-1.388c1.416,1.651,2.534,4.175,2.622,7.126
		c0.151,5.182-3.049,7.795-6.862,7.907c-4.102,0.121-7.498-2.731-11.396-6.687l-1.823-1.998l-0.072,0.002l0.281,9.607l-3.669,0.107
		L139.182,86.233z"/>
	<path fill="#5C5C5C" d="M143.009,114.503l-5.341-4.809l1.94-4.141l18.671,17.34l-2.4,5.118l-25.316-3.161l2.018-4.302l7.158,0.931
		L143.009,114.503z M143.09,122.216l6.222,0.809c1.535,0.203,3.203,0.547,4.627,0.818l0.03-0.066
		c-1.118-0.922-2.498-1.967-3.619-2.969l-4.615-4.231L143.09,122.216z"/>
	<path fill="#5C5C5C" d="M130.277,131.088c-1.042,0.129-3.326,0.771-5.085,2.146c-2.666,2.085-2.569,4.431-1.41,5.856
		c1.707,2.184,4.481,1.523,6.609-0.141l1.617-1.264l1.994,2.553l-1.56,1.22c-1.616,1.265-3.082,3.599-1.641,5.44
		c0.975,1.25,2.731,1.566,4.746-0.008c1.503-1.174,2.497-3.002,2.863-4.111l2.768,1.904c-0.473,1.558-1.983,3.834-4.196,5.564
		c-3.801,2.971-7.399,2.402-9.282-0.01c-1.509-1.928-1.615-4.403,0.032-6.973l-0.044-0.057c-2.551,1.355-5.697,1.072-7.648-1.424
		c-2.439-3.119-1.759-7.629,2.808-11.197c2.241-1.752,4.657-2.637,6.161-2.76L130.277,131.088z"/>
	<path fill="#5C5C5C" d="M111.63,140.662c0.538,1.566-0.167,3.064-1.666,3.578c-1.532,0.525-2.962-0.203-3.511-1.803
		c-0.525-1.533,0.1-3.041,1.666-3.579C109.652,138.333,111.105,139.128,111.63,140.662z"/>
	<path fill="#5C5C5C" d="M86.983,161.443l8.998-0.037l0.664-4.682c-0.539,0.074-1.007,0.111-1.69,0.113
		c-2.053,0.01-4.105-0.449-5.694-1.488c-1.77-1.107-3.073-3.082-3.086-5.926c-0.019-4.463,3.674-8.115,9.433-8.14
		c2.701-0.011,4.971,0.663,6.198,1.343l-0.886,3.35c-1.011-0.535-3.029-1.209-5.153-1.201c-2.592,0.012-5.068,1.498-5.057,4.306
		c0.011,2.663,1.998,4.419,6.679,4.399c1.295-0.006,2.267-0.082,3.201-0.23l-1.496,11.814l-12.096,0.053L86.983,161.443z"/>
</g>
<g>
	<path fill="#5C5C5C" d="M49.509,53.043v-0.046l-1.38-2.736l2.139-0.483l1.793,3.634v2.368H37.115v-2.736H49.509z"/>
	<path fill="#5C5C5C" d="M40.035,63.577c-0.345,0.575-0.92,1.978-0.92,3.403c0,2.162,1.219,3.035,2.392,3.013
		c1.771,0,2.529-1.656,2.529-3.381v-1.311h2.07v1.265c0,1.311,0.598,2.967,2.092,2.967c1.012,0,1.863-0.759,1.863-2.392
		c0-1.219-0.529-2.438-0.943-3.059l2.046-0.644c0.598,0.851,1.15,2.507,1.15,4.3c0,3.081-1.702,4.668-3.656,4.668
		c-1.563,0-2.852-0.92-3.495-2.759h-0.046c-0.322,1.816-1.702,3.288-3.726,3.288c-2.529,0-4.53-2.116-4.53-5.818
		c0-1.816,0.506-3.38,1.035-4.185L40.035,63.577z"/>
	<path fill="#5C5C5C" d="M40.035,105.298c-0.345,0.575-0.92,1.978-0.92,3.403c0,2.162,1.219,3.035,2.392,3.013
		c1.771,0,2.529-1.656,2.529-3.381v-1.311h2.07v1.265c0,1.311,0.598,2.967,2.092,2.967c1.012,0,1.863-0.759,1.863-2.392
		c0-1.219-0.529-2.438-0.943-3.059l2.046-0.644c0.598,0.851,1.15,2.507,1.15,4.3c0,3.081-1.702,4.668-3.656,4.668
		c-1.563,0-2.852-0.92-3.495-2.759h-0.046c-0.322,1.816-1.702,3.288-3.726,3.288c-2.529,0-4.53-2.116-4.53-5.818
		c0-1.816,0.506-3.38,1.035-4.185L40.035,105.298z"/>
	<path fill="#5C5C5C" d="M49.716,128.619v-5.748l-2.989-0.438c0.046,0.345,0.069,0.645,0.069,1.081c0,1.311-0.299,2.621-0.965,3.633
		c-0.713,1.127-1.978,1.955-3.794,1.955c-2.852,0-5.174-2.368-5.174-6.048c0-1.725,0.437-3.173,0.874-3.955l2.138,0.575
		c-0.345,0.644-0.782,1.932-0.782,3.288c0,1.655,0.943,3.242,2.736,3.242c1.702,0,2.829-1.265,2.829-4.254
		c0-0.828-0.046-1.449-0.138-2.047l7.542,0.989v7.726H49.716z"/>
	<path fill="#5C5C5C" d="M37.115,133.52h1.725l1.633,1.771c3.265,3.518,5.059,5.174,7.036,5.196c1.334,0,2.507-0.713,2.507-2.667
		c0-1.311-0.667-2.438-1.242-3.196l2-0.828c0.874,1.081,1.541,2.714,1.541,4.599c0,3.312-2.093,4.921-4.53,4.921
		c-2.621,0-4.737-1.885-7.151-4.483l-1.126-1.311h-0.046v6.14h-2.346V133.52z"/>
</g>
<g>
</g>
<g>
</g>
<g>
</g>
<g>
</g>
<g>
</g>
<g>
</g>
</svg>
