<?xml version="1.0" encoding="utf-8"?>
<!-- Generator: Adobe Illustrator 17.0.2, SVG Export Plug-In . SVG Version: 6.00 Build 0)  -->
<!DOCTYPE svg PUBLIC "-//W3C//DTD SVG 1.1//EN" "http://www.w3.org/Graphics/SVG/1.1/DTD/svg11.dtd">
<svg version="1.1" id="Layer_1" xmlns="http://www.w3.org/2000/svg" xmlns:xlink="http://www.w3.org/1999/xlink" x="0px" y="0px"
	 width="128px" height="128px" viewBox="0 0 128 128" enable-background="new 0 0 128 128" xml:space="preserve">
<path fill="none" stroke="#46557D" stroke-width="7.6542" stroke-linecap="round" stroke-linejoin="round" stroke-miterlimit="10" d="
	M63.544,86.778c2.344,5.265,6.981,31.116,17.765,25.524c6.408-3.321,6.992-18.346,7.675-24.301
	c1.758-15.361,1.352-30.841,1.352-46.272"/>
<path fill="none" stroke="#46557D" stroke-width="7.6542" stroke-linecap="round" stroke-linejoin="round" stroke-miterlimit="10" d="
	M24,62.812c8.877-6.102,19.96-3.997,27.253,3.6"/>
<g>
	<path fill="#46557D" d="M90.376,58.653c8.621,0,15.725-10.188,16.842-23.389h-33.68C74.654,48.465,81.756,58.653,90.376,58.653z"/>
</g>
<path fill="#46557D" d="M46.898,87.882c-1.749,1.184-4.129,0.724-5.312-1.023l0,0c-1.186-1.754-0.722-4.134,1.027-5.317
	l27.054-18.283c1.752-1.182,4.131-0.726,5.314,1.026l0,0c1.184,1.754,0.724,4.128-1.025,5.317L46.898,87.882z"/>
<path fill="#46557D" d="M76.078,34.5h28.797V10.833H76.078V34.5z M99.116,20.578v4.176h-5.759v-4.176H99.116z M87.597,20.578v4.176
	h-5.759v-4.176H87.597z"/>
</svg>
