<?xml version="1.0" encoding="utf-8"?>
<!-- Generator: Adobe Illustrator 17.0.2, SVG Export Plug-In . SVG Version: 6.00 Build 0)  -->
<!DOCTYPE svg PUBLIC "-//W3C//DTD SVG 1.1//EN" "http://www.w3.org/Graphics/SVG/1.1/DTD/svg11.dtd">
<svg version="1.1" id="Layer_1" xmlns="http://www.w3.org/2000/svg" xmlns:xlink="http://www.w3.org/1999/xlink" x="0px" y="0px"
	 width="64px" height="64px" viewBox="0 0 64 64" enable-background="new 0 0 64 64" xml:space="preserve">
<symbol  id="ELastoLite" viewBox="-119.771 -80.393 239.542 160.787">
	<g>
		<g>
			<g>
				<g>
					<g>
						<g>
							<path fill="#D9272E" stroke="#E62E2F" stroke-width="6" stroke-linejoin="round" stroke-miterlimit="10" d="M-5.104,66.028
								c-0.682,0.44-1.612,0.427-2.647,0.902c-12.664,5.803-49.275,3.779-49.275,3.779l0.467,2.03c0,0,35.78,1.896,49.452-3.498
								c1.296-0.511,2.631-0.843,3.48-1.297"/>
							<path fill="#D9272E" stroke="#E62E2F" stroke-width="6" stroke-linejoin="round" stroke-miterlimit="10" d="M-67.262,73.926
								c0,0,2.669,0.642,4.585-1.692c1.917-2.333,5.851-0.652,5.914-0.378"/>
							<path fill="#D9272E" stroke="#E62E2F" stroke-width="6" stroke-linejoin="round" stroke-miterlimit="10" d="M-70.283,69.986
								c0,0,4.648-0.237,6.773,0.582c2.504,0.964,3.5,1.5,3.5,1.5s2.292,1.042,3.247-0.211"/>
							<polygon fill="#D9272E" stroke="#E62E2F" stroke-width="6" stroke-linejoin="round" stroke-miterlimit="10" points="
								-71.143,67.499 -83.726,68.499 -76.85,77.264 -64.474,75.999 							"/>
							<path fill="none" stroke="#E62E2F" stroke-width="6" stroke-linejoin="round" stroke-miterlimit="10" d="M-106.406,46.16
								c-4.369,6.666-7.271,14.027-2.125,19.449c9.312,9.812,27.133,5.858,27.133,5.858l1.123-0.253"/>
							<path fill="none" stroke="#E62E2F" stroke-width="6" stroke-linejoin="round" stroke-miterlimit="10" d="M-41.993,13.364
								c0,0-9.675,5.25-30.487,10.713c-13.613,3.574-23.817,10.835-31.341,19.324"/>
							<path fill="none" stroke="#E62E2F" stroke-width="6" stroke-linejoin="round" stroke-miterlimit="10" d="M-77.156,74.64
								l-1.704,0.062c0,0-14.59,3.141-23.609-0.696c-9.375-3.989-20.625-12.772-4.625-27.772s35.518-17.964,45.844-21.281
								c8.51-2.734,13.448-2.177,22.935-8.216l2.643-1.549"/>
							<path fill="#D9272E" stroke="#E62E2F" stroke-width="6" stroke-linejoin="round" stroke-miterlimit="10" d="M-36.993,17.949
								c-8.725,5.952-15.517,6.22-24.308,8.827c-5.469,1.622-13.348,3.792-18.973,5.542s-17.256,8.292-17.256,8.292l-9.312,4.52
								c-11.75,6.417-15.5,22.105,2.375,29.73c11.375,4.938,26.626,1.14,26.626,1.14l-4.743-6.045c0,0-11.127,2.54-19.383-1.783
								s-8.562-9.375-7.562-12.937s3.5-9.406,5.188-12.563c1.477-2.762,8.728-8.928,10.25-10.25
								c2.375-2.063,11.424-7.427,19.125-9.438s10.872-3.02,16.344-4.844c5.348-1.783,9.747-3.186,15.364-5.939L-36.993,17.949z"/>
							<polygon fill="#D9272E" stroke="#E62E2F" stroke-width="6" stroke-miterlimit="10" points="72.124,-76.618 -68.701,-11.118 
								-16.543,36.716 115.124,-15.784 							"/>
							<polygon fill="#D9272E" stroke="#E62E2F" stroke-width="6" stroke-miterlimit="10" points="62.957,-69.404 -58.903,-12.513 
								-10.71,31.684 102.688,-13.195 							"/>
							<polygon fill="#D9272E" stroke="#E62E2F" stroke-width="6" stroke-linejoin="round" stroke-miterlimit="10" points="
								-68.356,72.414 -78.522,73.414 -76.605,75.914 -66.438,74.914 							"/>
							<polygon fill="#D9272E" stroke="#E62E2F" stroke-width="6" stroke-linejoin="round" stroke-miterlimit="10" points="
								-71.231,68.749 -81.398,69.749 -79.481,72.249 -69.314,71.249 							"/>
							<path fill="#D9272E" stroke="#E62E2F" stroke-width="6" stroke-linejoin="round" stroke-miterlimit="10" d="M-32.952,15.472
								c1.296-0.498,2.088-1.578,1.769-2.413c-0.319-0.834-1.628-1.107-2.924-0.609c-1.296,0.498-2.088,1.578-1.769,2.413
								C-35.558,15.697-34.248,15.97-32.952,15.472z"/>
							<path fill="#D9272E" stroke="#E62E2F" stroke-width="6" stroke-linejoin="round" stroke-miterlimit="10" d="M-36.415,12.165
								c1.296-0.498,2.088-1.578,1.769-2.413c-0.319-0.834-1.628-1.107-2.924-0.609c-1.296,0.498-2.088,1.578-1.769,2.413
								C-39.021,12.39-37.711,12.663-36.415,12.165z"/>
							<path fill="#D9272E" stroke="#E62E2F" stroke-width="6" stroke-linejoin="round" stroke-miterlimit="10" d="M-41.993,13.364"
								/>
							
								<line fill="#D9272E" stroke="#E62E2F" stroke-width="6" stroke-linejoin="round" stroke-miterlimit="10" x1="-41.993" y1="13.364" x2="-39.019" y2="11.994"/>
							<path fill="#D9272E" stroke="#E62E2F" stroke-width="6" stroke-linejoin="round" stroke-miterlimit="10" d="M3.045,63.469
								l11.225,8.573c0,0,7,5.438,17.312,1.938S78.635,61.22,78.635,61.22s3.667-1.479,2.042-4.604L62.052,37.033
								c0,0-3.125-3.917-10.167-0.583c-7.042,3.333-44.195,15.27-44.195,15.27S-2.768,55.594,3.045,63.469z"/>
							
								<line fill="#D9272E" stroke="#E62E2F" stroke-width="6" stroke-linejoin="round" stroke-miterlimit="10" x1="54.391" y1="23.49" x2="54.391" y2="35.593"/>
							
								<line fill="#D9272E" stroke="#E62E2F" stroke-width="6" stroke-linejoin="round" stroke-miterlimit="10" x1="61.389" y1="36.425" x2="61.389" y2="24.16"/>
							<path fill="#D9272E" stroke="#E62E2F" stroke-width="6" stroke-linejoin="round" stroke-miterlimit="10" d="M81.093,58.189
								V47.234l-0.006-0.911c0.036-0.505-0.074-1.079-0.409-1.723L62.052,25.017c0,0-3.125-3.917-10.167-0.583
								c-2.326,1.101-8.464,3.297-15.644,5.745c-0.876,0.299-1.768,4.601-2.67,4.906c-14.088,4.759-25.881,8.619-25.881,8.619
								s-6.458,2.393-6.404,7.239l0,0.276v8.062"/>
							<path fill="#D9272E" stroke="#E62E2F" stroke-width="6" stroke-linejoin="round" stroke-miterlimit="10" d="M1.286,60.422
								l-3.192,3.5l-3.125,0.75c0,0-0.937,2.438,2.25,3.688l2.688-0.773l8.273-0.195"/>
							<path fill="none" stroke="#E62E2F" stroke-width="6" stroke-linejoin="round" stroke-miterlimit="10" d="M-36.993,17.949"/>
						</g>
						<g>
							<path fill="#FFFFFF" stroke="#FFFFFF" stroke-width="3" stroke-linejoin="round" stroke-miterlimit="10" d="M-5.104,66.028
								c-0.682,0.44-1.612,0.427-2.647,0.902c-12.664,5.803-49.275,3.779-49.275,3.779l0.467,2.03c0,0,35.78,1.896,49.452-3.498
								c1.296-0.511,2.631-0.843,3.48-1.297"/>
							<path fill="#FFFFFF" stroke="#FFFFFF" stroke-width="3" stroke-linejoin="round" stroke-miterlimit="10" d="M-67.262,73.926
								c0,0,2.669,0.642,4.585-1.692c1.917-2.333,5.851-0.652,5.914-0.378"/>
							<path fill="#FFFFFF" stroke="#FFFFFF" stroke-width="3" stroke-linejoin="round" stroke-miterlimit="10" d="M-70.283,69.986
								c0,0,4.648-0.237,6.773,0.582c2.504,0.964,3.5,1.5,3.5,1.5s2.292,1.042,3.247-0.211"/>
							<polygon fill="#FFFFFF" stroke="#FFFFFF" stroke-width="3" stroke-linejoin="round" stroke-miterlimit="10" points="
								-71.143,67.499 -83.726,68.499 -76.85,77.264 -64.474,75.999 							"/>
							<path fill="none" stroke="#FFFFFF" stroke-width="2" stroke-linejoin="round" stroke-miterlimit="10" d="M-106.406,46.16
								c-4.369,6.666-7.271,14.027-2.125,19.449c9.312,9.812,27.133,5.858,27.133,5.858l1.123-0.253"/>
							<path fill="#FFFFFF" stroke="#FFFFFF" stroke-width="3" stroke-linejoin="round" stroke-miterlimit="10" d="M-41.993,13.364
								c0,0-9.675,5.25-30.487,10.713c-13.613,3.574-23.817,10.835-31.341,19.324"/>
							<path fill="none" stroke="#FFFFFF" stroke-width="2" stroke-linejoin="round" stroke-miterlimit="10" d="M-77.156,74.64
								l-1.704,0.062c0,0-14.59,3.141-23.609-0.696c-9.375-3.989-20.625-12.772-4.625-27.772s35.518-17.964,45.844-21.281
								c8.51-2.734,13.448-2.177,22.935-8.216l2.643-1.549"/>
							<path fill="#FFFFFF" stroke="#FFFFFF" stroke-width="3" stroke-linejoin="round" stroke-miterlimit="10" d="M-36.993,17.949
								c-8.725,5.952-15.517,6.22-24.308,8.827c-5.469,1.622-13.348,3.792-18.973,5.542s-17.256,8.292-17.256,8.292l-9.312,4.52
								c-11.75,6.417-15.5,22.105,2.375,29.73c11.375,4.938,26.626,1.14,26.626,1.14l-4.743-6.045c0,0-11.127,2.54-19.383-1.783
								s-8.562-9.375-7.562-12.937s3.5-9.406,5.188-12.563c1.477-2.762,8.728-8.928,10.25-10.25
								c2.375-2.063,11.424-7.427,19.125-9.438s10.872-3.02,16.344-4.844c5.348-1.783,9.747-3.186,15.364-5.939L-36.993,17.949z"/>
							<polygon fill="#FFFFFF" stroke="#FFFFFF" stroke-width="3" stroke-miterlimit="10" points="72.124,-76.618 -68.701,-11.118 
								-16.543,36.716 115.124,-15.784 							"/>
							<polygon fill="#FFFFFF" stroke="#FFFFFF" stroke-width="3" stroke-miterlimit="10" points="62.957,-69.404 -58.903,-12.513 
								-10.71,31.684 102.688,-13.195 							"/>
							<polygon fill="#FFFFFF" stroke="#FFFFFF" stroke-width="3" stroke-linejoin="round" stroke-miterlimit="10" points="
								-68.356,72.414 -78.522,73.414 -76.605,75.914 -66.438,74.914 							"/>
							<polygon fill="#FFFFFF" stroke="#FFFFFF" stroke-width="3" stroke-linejoin="round" stroke-miterlimit="10" points="
								-71.231,68.749 -81.398,69.749 -79.481,72.249 -69.314,71.249 							"/>
							<path fill="#FFFFFF" stroke="#FFFFFF" stroke-width="3" stroke-linejoin="round" stroke-miterlimit="10" d="M-32.952,15.472
								c1.296-0.498,2.088-1.578,1.769-2.413c-0.319-0.834-1.628-1.107-2.924-0.609c-1.296,0.498-2.088,1.578-1.769,2.413
								C-35.558,15.697-34.248,15.97-32.952,15.472z"/>
							<path fill="#FFFFFF" stroke="#FFFFFF" stroke-width="3" stroke-linejoin="round" stroke-miterlimit="10" d="M-36.415,12.165
								c1.296-0.498,2.088-1.578,1.769-2.413c-0.319-0.834-1.628-1.107-2.924-0.609c-1.296,0.498-2.088,1.578-1.769,2.413
								C-39.021,12.39-37.711,12.663-36.415,12.165z"/>
							<path fill="#FFFFFF" stroke="#FFFFFF" stroke-width="3" stroke-linejoin="round" stroke-miterlimit="10" d="M-41.993,13.364"
								/>
							
								<line fill="#FFFFFF" stroke="#FFFFFF" stroke-width="3" stroke-linejoin="round" stroke-miterlimit="10" x1="-41.993" y1="13.364" x2="-39.019" y2="11.994"/>
							<path fill="#FFFFFF" stroke="#FFFFFF" stroke-width="3" stroke-linejoin="round" stroke-miterlimit="10" d="M3.045,63.469
								l11.225,8.573c0,0,7,5.438,17.312,1.938S78.635,61.22,78.635,61.22s3.667-1.479,2.042-4.604L62.052,37.033
								c0,0-3.125-3.917-10.167-0.583c-7.042,3.333-44.195,15.27-44.195,15.27S-2.768,55.594,3.045,63.469z"/>
							
								<line fill="#FFFFFF" stroke="#FFFFFF" stroke-width="3" stroke-linejoin="round" stroke-miterlimit="10" x1="54.391" y1="23.49" x2="54.391" y2="35.593"/>
							
								<line fill="#FFFFFF" stroke="#FFFFFF" stroke-width="3" stroke-linejoin="round" stroke-miterlimit="10" x1="61.389" y1="36.425" x2="61.389" y2="24.16"/>
							<path fill="#FFFFFF" stroke="#FFFFFF" stroke-width="3" stroke-linejoin="round" stroke-miterlimit="10" d="M81.093,58.189
								V47.234l-0.006-0.911c0.036-0.505-0.074-1.079-0.409-1.723L62.052,25.017c0,0-3.125-3.917-10.167-0.583
								c-2.326,1.101-8.464,3.297-15.644,5.745c-0.876,0.299-1.768,4.601-2.67,4.906c-14.088,4.759-25.881,8.619-25.881,8.619
								s-6.458,2.393-6.404,7.239l0,0.276v8.062"/>
							<path fill="#FFFFFF" stroke="#FFFFFF" stroke-width="3" stroke-linejoin="round" stroke-miterlimit="10" d="M1.286,60.422
								l-3.192,3.5l-3.125,0.75c0,0-0.937,2.438,2.25,3.688l2.688-0.773l8.273-0.195"/>
							<path fill="#FFFFFF" stroke="#FFFFFF" stroke-width="3" stroke-linejoin="round" stroke-miterlimit="10" d="M-36.993,17.949"
								/>
						</g>
						<g>
							<path fill="none" stroke="#E62E2F" stroke-width="0.75" stroke-linejoin="round" stroke-miterlimit="10" d="M-5.104,66.028
								c-0.682,0.44-1.612,0.427-2.647,0.902c-12.664,5.803-49.275,3.779-49.275,3.779l0.467,2.03c0,0,35.78,1.896,49.452-3.498
								c1.296-0.511,2.631-0.843,3.48-1.297"/>
							<path fill="none" stroke="#E62E2F" stroke-width="0.75" stroke-linejoin="round" stroke-miterlimit="10" d="M-67.262,73.926
								c0,0,2.669,0.642,4.585-1.692c1.917-2.333,5.851-0.652,5.914-0.378"/>
							<path fill="none" stroke="#E62E2F" stroke-width="0.75" stroke-linejoin="round" stroke-miterlimit="10" d="M-70.283,69.986
								c0,0,4.648-0.237,6.773,0.582c2.504,0.964,3.5,1.5,3.5,1.5s2.292,1.042,3.247-0.211"/>
							<polygon fill="none" stroke="#E62E2F" stroke-width="0.75" stroke-linejoin="round" stroke-miterlimit="10" points="
								-71.143,67.499 -83.726,68.499 -76.85,77.264 -64.474,75.999 							"/>
							<path fill="none" stroke="#E62E2F" stroke-width="0.75" stroke-linejoin="round" stroke-miterlimit="10" d="M0.126,67.581
								c0,0-2.75-0.503-2.031-3.659"/>
							<path fill="none" stroke="#E62E2F" stroke-linejoin="round" stroke-miterlimit="10" d="M-106.406,46.16
								c-4.369,6.666-7.271,14.027-2.125,19.449c9.312,9.812,27.133,5.858,27.133,5.858l1.123-0.253"/>
							<path fill="none" stroke="#E62E2F" stroke-linejoin="round" stroke-miterlimit="10" d="M-41.993,13.364
								c0,0-9.675,5.25-30.487,10.713c-13.613,3.574-23.817,10.835-31.341,19.324"/>
							<path fill="none" stroke="#E62E2F" stroke-linejoin="round" stroke-miterlimit="10" d="M-77.156,74.64l-1.704,0.062
								c0,0-14.59,3.141-23.609-0.696c-9.375-3.989-20.625-12.772-4.625-27.772s35.518-17.964,45.844-21.281
								c8.51-2.734,13.448-2.177,22.935-8.216l2.643-1.549"/>
							<path fill="none" stroke="#E62E2F" stroke-width="0.75" stroke-linejoin="round" stroke-miterlimit="10" d="M-77.842,75.999
								c0,0-15.251,3.797-26.626-1.14c-17.875-7.625-14.125-23.312-2.375-29.73l9.312-4.52c0,0,11.631-6.542,17.256-8.292
								s13.505-3.92,18.973-5.542c8.792-2.607,15.583-2.875,24.308-8.827"/>
							<path fill="none" stroke="#E62E2F" stroke-width="0.75" stroke-linejoin="round" stroke-miterlimit="10" d="M-82.585,69.954
								c0,0-11.127,2.54-19.383-1.783s-8.562-9.375-7.562-12.937s3.5-9.406,5.188-12.563c1.477-2.762,8.728-8.928,10.25-10.25
								c2.375-2.063,11.424-7.427,19.125-9.438s10.872-3.02,16.344-4.844c5.348-1.783,9.747-3.186,15.364-5.939"/>
							<polygon fill="none" stroke="#E62E2F" stroke-miterlimit="10" points="72.124,-76.618 -68.701,-11.118 -16.543,36.716 
								115.124,-15.784 							"/>
							<polygon fill="none" stroke="#E62E2F" stroke-width="0.75" stroke-miterlimit="10" points="62.957,-69.404 -58.903,-12.513 
								-10.71,31.684 102.688,-13.195 							"/>
							<polygon fill="#FFFFFF" stroke="#E62E2F" stroke-width="0.5" stroke-linejoin="round" stroke-miterlimit="10" points="
								-68.356,72.414 -78.522,73.414 -76.605,75.914 -66.438,74.914 							"/>
							<polygon fill="#FFFFFF" stroke="#E62E2F" stroke-width="0.5" stroke-linejoin="round" stroke-miterlimit="10" points="
								-71.231,68.749 -81.398,69.749 -79.481,72.249 -69.314,71.249 							"/>
							<path fill="none" stroke="#E62E2F" stroke-width="0.5" stroke-linejoin="round" stroke-miterlimit="10" d="M-32.952,15.472
								c1.296-0.498,2.088-1.578,1.769-2.413c-0.319-0.834-1.628-1.107-2.924-0.609c-1.296,0.498-2.088,1.578-1.769,2.413
								C-35.558,15.697-34.248,15.97-32.952,15.472z"/>
							<path fill="none" stroke="#E62E2F" stroke-width="0.5" stroke-linejoin="round" stroke-miterlimit="10" d="M-36.415,12.165
								c1.296-0.498,2.088-1.578,1.769-2.413c-0.319-0.834-1.628-1.107-2.924-0.609c-1.296,0.498-2.088,1.578-1.769,2.413
								C-39.021,12.39-37.711,12.663-36.415,12.165z"/>
							<path fill="none" stroke="#E62E2F" stroke-width="0.5" stroke-linejoin="round" stroke-miterlimit="10" d="M-41.993,13.364"
								/>
							
								<line fill="none" stroke="#E62E2F" stroke-linejoin="round" stroke-miterlimit="10" x1="-41.993" y1="13.364" x2="-39.019" y2="11.994"/>
							<path fill="none" stroke="#E62E2F" stroke-width="0.75" stroke-linejoin="round" stroke-miterlimit="10" d="M3.045,63.469
								l11.225,8.573c0,0,7,5.438,17.312,1.938S78.635,61.22,78.635,61.22s3.667-1.479,2.042-4.604L62.052,37.033
								c0,0-3.125-3.917-10.167-0.583c-7.042,3.333-44.195,15.27-44.195,15.27S-2.768,55.594,3.045,63.469z"/>
							
								<line fill="none" stroke="#E62E2F" stroke-width="0.75" stroke-linejoin="round" stroke-miterlimit="10" x1="54.391" y1="23.49" x2="54.391" y2="35.593"/>
							
								<line fill="none" stroke="#E62E2F" stroke-width="0.75" stroke-linejoin="round" stroke-miterlimit="10" x1="61.389" y1="36.425" x2="61.389" y2="24.16"/>
							<path fill="none" stroke="#E62E2F" stroke-width="0.75" stroke-linejoin="round" stroke-miterlimit="10" d="M81.093,58.189
								V47.234l-0.006-0.911c0.036-0.505-0.074-1.079-0.409-1.723L62.052,25.017c0,0-3.125-3.917-10.167-0.583
								c-2.326,1.101-8.464,3.297-15.644,5.745c-0.876,0.299-1.768,4.601-2.67,4.906c-14.088,4.759-25.881,8.619-25.881,8.619
								s-6.458,2.393-6.404,7.239l0,0.276v8.062"/>
							
								<line fill="none" stroke="#E62E2F" stroke-width="0.75" stroke-linejoin="round" stroke-miterlimit="10" x1="7.691" y1="43.704" x2="7.691" y2="51.519"/>
							<polygon fill="none" stroke="#E62E2F" stroke-width="0.75" stroke-linejoin="round" stroke-miterlimit="10" points="
								12.588,61.603 20.238,67.586 31.2,64.312 23.658,57.855 							"/>
							<path fill="none" stroke="#E62E2F" stroke-width="0.75" stroke-linejoin="round" stroke-miterlimit="10" d="M1.286,60.422
								l-3.192,3.5l-3.125,0.75c0,0-0.937,2.438,2.25,3.688l2.688-0.773l8.273-0.195"/>
						</g>
					</g>
				</g>
			</g>
		</g>
	</g>
</symbol>
<symbol  id="MicroView_1_" viewBox="-147.125 -93.375 294.25 186.75">
	<polygon fill="#E62E2F" stroke="#E62E2F" stroke-width="12" stroke-miterlimit="10" points="-141.125,-38.458 -37.884,-38.458 
		-37.884,35.542 -141.125,35.542 	"/>
	<polygon fill="#E62E2F" stroke="#E62E2F" stroke-width="12" stroke-miterlimit="10" points="-30.625,-64.458 -57.125,-64.458 
		-57.125,65.042 -30.625,65.042 	"/>
	<polygon fill="#FFFFFF" stroke="#FFFFFF" stroke-width="5" stroke-miterlimit="10" points="-141.125,-38.458 -37.884,-38.458 
		-37.884,35.542 -141.125,35.542 	"/>
	<path fill="#E62E2F" stroke="#E62E2F" stroke-width="12" stroke-miterlimit="10" d="M141.125-64.375c0-12.703-10.297-23-23-23
		H-7.625c-12.703,0-23,10.297-23,23v128.75c0,12.703,10.297,23,23,23h125.75c12.703,0,23-10.297,23-23V-64.375z"/>
	<polygon fill="#FFFFFF" stroke="#FFFFFF" stroke-width="5" stroke-miterlimit="10" points="-30.625,-64.458 -57.125,-64.458 
		-57.125,65.042 -30.625,65.042 	"/>
	<path fill="#FFFFFF" stroke="#FFFFFF" stroke-width="5" stroke-miterlimit="10" d="M141.125-64.375c0-12.703-10.297-23-23-23
		H-7.625c-12.703,0-23,10.297-23,23v128.75c0,12.703,10.297,23,23,23h125.75c12.703,0,23-10.297,23-23V-64.375z"/>
	<polygon fill="#FFFFFF" stroke="#45537D" stroke-width="0.75" stroke-linejoin="round" stroke-miterlimit="10" points="
		-30.625,-64.458 -57.125,-64.458 -57.125,65.042 -30.625,65.042 	"/>
	<path fill="#FFFFFF" stroke="#E62E2F" stroke-width="1.25" stroke-linejoin="round" stroke-miterlimit="10" d="M141.125-64.375
		c0-12.703-10.297-23-23-23H-7.625c-12.703,0-23,10.297-23,23v128.75c0,12.703,10.297,23,23,23h125.75c12.703,0,23-10.297,23-23
		V-64.375z"/>
	<path fill="none" stroke="#E62E2F" stroke-width="1.25" stroke-linejoin="round" stroke-miterlimit="10" d="M131.056-56.827
		c0-11.213-9.09-20.303-20.303-20.303H-0.252c-11.213,0-20.303,9.09-20.303,20.303V56.827c0,11.213,9.09,20.303,20.303,20.303
		h111.005c11.213,0,20.303-9.09,20.303-20.303V-56.827z"/>
	<path fill="#FFFFFF" stroke="#E62E2F" stroke-linecap="round" stroke-linejoin="round" stroke-miterlimit="10" d="M-35.541,32.542
		c0-1.381-1.119-2.5-2.5-2.5h-11.667c-1.381,0-2.5,1.119-2.5,2.5v3.667c0,1.381,1.119,2.5,2.5,2.5h11.667c1.381,0,2.5-1.119,2.5-2.5
		V32.542z"/>
	<path fill="#FFFFFF" stroke="#E62E2F" stroke-linecap="round" stroke-linejoin="round" stroke-miterlimit="10" d="M-35.541-39.292
		c0-1.381-1.119-2.5-2.5-2.5h-11.667c-1.381,0-2.5,1.119-2.5,2.5v3.667c0,1.381,1.119,2.5,2.5,2.5h11.667c1.381,0,2.5-1.119,2.5-2.5
		V-39.292z"/>
	<polygon fill="#FFFFFF" stroke="#E62E2F" stroke-linejoin="round" stroke-miterlimit="10" points="-141.125,-38.458 
		-37.884,-38.458 -37.884,35.542 -141.125,35.542 	"/>
	<polygon fill="#FFFFFF" stroke="#E62E2F" stroke-linejoin="round" stroke-miterlimit="10" points="-108.291,6.542 -118.291,6.542 
		-118.291,26.875 -108.291,26.875 	"/>
	<polygon fill="#FFFFFF" stroke="#E62E2F" stroke-linejoin="round" stroke-miterlimit="10" points="-108.291,-29.854 
		-118.291,-29.854 -118.291,-9.521 -108.291,-9.521 	"/>
	<polyline fill="#FFFFFF" stroke="#E62E2F" stroke-linecap="round" stroke-linejoin="round" stroke-miterlimit="10" points="
		-48.125,-11.125 -57.791,-11.125 -57.791,8.208 -48.125,8.208 	"/>
	<path fill="#FFFFFF" stroke="#E62E2F" stroke-linejoin="round" stroke-miterlimit="10" d="M-96.125,11.604
		c0-0.828-0.672-1.5-1.5-1.5l0,0c-0.828,0-1.5,0.672-1.5,1.5v10.208c0,0.828,0.672,1.5,1.5,1.5l0,0c0.828,0,1.5-0.672,1.5-1.5
		V11.604z"/>
	<path fill="#FFFFFF" stroke="#E62E2F" stroke-linejoin="round" stroke-miterlimit="10" d="M-96.125-24.792
		c0-0.828-0.672-1.5-1.5-1.5l0,0c-0.828,0-1.5,0.672-1.5,1.5v10.208c0,0.828,0.672,1.5,1.5,1.5l0,0c0.828,0,1.5-0.672,1.5-1.5
		V-24.792z"/>
	<polygon fill="#FFFFFF" stroke="#E62E2F" stroke-linecap="round" stroke-linejoin="round" stroke-miterlimit="10" points="
		-30.625,16.542 -37.884,16.542 -37.884,21.292 -30.625,21.292 	"/>
	<polygon fill="#FFFFFF" stroke="#E62E2F" stroke-linecap="round" stroke-linejoin="round" stroke-miterlimit="10" points="
		-30.625,3.042 -37.884,3.042 -37.884,7.792 -30.625,7.792 	"/>
	<polygon fill="#FFFFFF" stroke="#E62E2F" stroke-linecap="round" stroke-linejoin="round" stroke-miterlimit="10" points="
		-30.625,-10.458 -37.884,-10.458 -37.884,-5.708 -30.625,-5.708 	"/>
	<polygon fill="#FFFFFF" stroke="#E62E2F" stroke-linecap="round" stroke-linejoin="round" stroke-miterlimit="10" points="
		-30.625,-23.958 -37.884,-23.958 -37.884,-19.208 -30.625,-19.208 	"/>
	<g>
		
			<path fill="#FFFFFF" stroke="#E62E2F" stroke-width="2" stroke-linecap="round" stroke-linejoin="round" stroke-miterlimit="10" d="
			M67.171,4.71"/>
		<polygon fill="#FFFFFF" points="19.25,-35.417 11.25,-35.417 11.25,-27.417 19.25,-27.417 		"/>
		<polygon fill="#FFFFFF" points="27.25,-35.417 19.25,-35.417 19.25,-27.417 27.25,-27.417 		"/>
		<polygon fill="#FFFFFF" points="35.25,-35.417 27.25,-35.417 27.25,-27.417 35.25,-27.417 		"/>
		<polygon fill="#FFFFFF" points="43.25,-35.417 35.25,-35.417 35.25,-27.417 43.25,-27.417 		"/>
		<polygon fill="#FFFFFF" points="51.25,-35.417 43.25,-35.417 43.25,-27.417 51.25,-27.417 		"/>
		<polygon fill="#FFFFFF" points="59.25,-35.417 51.25,-35.417 51.25,-27.417 59.25,-27.417 		"/>
		<polygon fill="#FFFFFF" points="67.25,-35.417 59.25,-35.417 59.25,-27.417 67.25,-27.417 		"/>
		<polygon fill="#FFFFFF" points="75.171,-35.417 67.171,-35.417 67.171,-27.417 75.171,-27.417 		"/>
		<polygon fill="#FFFFFF" points="83.171,-35.417 75.171,-35.417 75.171,-27.417 83.171,-27.417 		"/>
		<polygon fill="#FFFFFF" points="91.171,-35.417 83.171,-35.417 83.171,-27.417 91.171,-27.417 		"/>
		<polygon fill="#FFFFFF" points="99.171,-35.417 91.171,-35.417 91.171,-27.417 99.171,-27.417 		"/>
		<polygon fill="#FFFFFF" points="107.171,-35.417 99.171,-35.417 99.171,-27.417 107.171,-27.417 		"/>
		<polygon fill="#FFFFFF" points="115.171,-35.417 107.171,-35.417 107.171,-27.417 115.171,-27.417 		"/>
		<polygon fill="#FFFFFF" points="11.25,-35.417 3.25,-35.417 3.25,-27.417 11.25,-27.417 		"/>
		<polygon fill="#FFFFFF" points="19.25,51.708 11.25,51.708 11.25,59.708 19.25,59.708 		"/>
		<polygon fill="#FFFFFF" points="27.25,51.708 19.25,51.708 19.25,59.708 27.25,59.708 		"/>
		<polygon fill="#FFFFFF" points="35.25,51.708 27.25,51.708 27.25,59.708 35.25,59.708 		"/>
		<polygon fill="#FFFFFF" points="43.25,51.708 35.25,51.708 35.25,59.708 43.25,59.708 		"/>
		<polygon fill="#FFFFFF" points="51.25,51.708 43.25,51.708 43.25,59.708 51.25,59.708 		"/>
		<polygon fill="#FFFFFF" points="59.25,51.708 51.25,51.708 51.25,59.708 59.25,59.708 		"/>
		<polygon fill="#FFFFFF" points="67.25,51.708 59.25,51.708 59.25,59.708 67.25,59.708 		"/>
		<polygon fill="#FFFFFF" points="75.171,51.708 67.171,51.708 67.171,59.708 75.171,59.708 		"/>
		<polygon fill="#FFFFFF" points="83.171,51.708 75.171,51.708 75.171,59.708 83.171,59.708 		"/>
		<polygon fill="#FFFFFF" points="91.171,51.708 83.171,51.708 83.171,59.708 91.171,59.708 		"/>
		<polygon fill="#FFFFFF" points="99.171,51.708 91.171,51.708 91.171,59.708 99.171,59.708 		"/>
		<polygon fill="#FFFFFF" points="107.171,51.708 99.171,51.708 99.171,59.708 107.171,59.708 		"/>
		<polygon fill="#FFFFFF" points="115.171,51.708 107.171,51.708 107.171,59.708 115.171,59.708 		"/>
		<polygon fill="#FFFFFF" points="11.25,51.708 3.25,51.708 3.25,59.708 11.25,59.708 		"/>
		<polygon fill="#FFFFFF" points="19.25,43.708 11.25,43.708 11.25,51.708 19.25,51.708 		"/>
		<polygon fill="#E62E2F" points="27.25,43.708 19.25,43.708 19.25,51.708 27.25,51.708 		"/>
		<polygon fill="#E62E2F" points="35.25,43.708 27.25,43.708 27.25,51.708 35.25,51.708 		"/>
		<polygon fill="#FFFFFF" points="43.25,43.708 35.25,43.708 35.25,51.708 43.25,51.708 		"/>
		<polygon fill="#FFFFFF" points="51.25,43.708 43.25,43.708 43.25,51.708 51.25,51.708 		"/>
		<polygon fill="#FFFFFF" points="59.25,43.708 51.25,43.708 51.25,51.708 59.25,51.708 		"/>
		<polygon fill="#FFFFFF" points="67.25,43.708 59.25,43.708 59.25,51.708 67.25,51.708 		"/>
		<polygon fill="#FFFFFF" points="75.171,43.708 67.171,43.708 67.171,51.708 75.171,51.708 		"/>
		<polygon fill="#E62E2F" points="83.171,43.708 75.171,43.708 75.171,51.708 83.171,51.708 		"/>
		<polygon fill="#E62E2F" points="91.171,43.708 83.171,43.708 83.171,51.708 91.171,51.708 		"/>
		<polygon fill="#FFFFFF" points="99.171,43.708 91.171,43.708 91.171,51.708 99.171,51.708 		"/>
		<polygon fill="#FFFFFF" points="107.171,43.708 99.171,43.708 99.171,51.708 107.171,51.708 		"/>
		<polygon fill="#FFFFFF" points="115.171,43.708 107.171,43.708 107.171,51.708 115.171,51.708 		"/>
		<polygon fill="#FFFFFF" points="11.25,43.708 3.25,43.708 3.25,51.708 11.25,51.708 		"/>
		<polygon fill="#E62E2F" points="19.25,35.958 11.25,35.958 11.25,43.958 19.25,43.958 		"/>
		<polygon fill="#E62E2F" points="27.25,35.958 19.25,35.958 19.25,43.958 27.25,43.958 		"/>
		<polygon fill="#E62E2F" points="35.25,35.958 27.25,35.958 27.25,43.958 35.25,43.958 		"/>
		<polygon fill="#E62E2F" points="43.25,35.958 35.25,35.958 35.25,43.958 43.25,43.958 		"/>
		<polygon fill="#FFFFFF" points="51.25,35.958 43.25,35.958 43.25,43.958 51.25,43.958 		"/>
		<polygon fill="#FFFFFF" points="59.25,35.958 51.25,35.958 51.25,43.958 59.25,43.958 		"/>
		<polygon fill="#FFFFFF" points="67.25,35.958 59.25,35.958 59.25,43.958 67.25,43.958 		"/>
		<polygon fill="#E62E2F" points="75.171,35.958 67.171,35.958 67.171,43.958 75.171,43.958 		"/>
		<polygon fill="#E62E2F" points="83.171,35.958 75.171,35.958 75.171,43.958 83.171,43.958 		"/>
		<polygon fill="#E62E2F" points="91.171,35.958 83.171,35.958 83.171,43.958 91.171,43.958 		"/>
		<polygon fill="#E62E2F" points="99.171,35.958 91.171,35.958 91.171,43.958 99.171,43.958 		"/>
		<polygon fill="#FFFFFF" points="107.171,35.958 99.171,35.958 99.171,43.958 107.171,43.958 		"/>
		<polygon fill="#FFFFFF" points="115.171,35.958 107.171,35.958 107.171,43.958 115.171,43.958 		"/>
		<polygon fill="#FFFFFF" points="11.25,35.958 3.25,35.958 3.25,43.958 11.25,43.958 		"/>
		<polygon fill="#E62E2F" points="19.25,27.958 11.25,27.958 11.25,35.958 19.25,35.958 		"/>
		<polygon fill="#E62E2F" points="27.25,27.958 19.25,27.958 19.25,35.958 27.25,35.958 		"/>
		<polygon fill="#E62E2F" points="35.25,27.958 27.25,27.958 27.25,35.958 35.25,35.958 		"/>
		<polygon fill="#E62E2F" points="43.25,27.958 35.25,27.958 35.25,35.958 43.25,35.958 		"/>
		<polygon fill="#E62E2F" points="51.25,27.958 43.25,27.958 43.25,35.958 51.25,35.958 		"/>
		<polygon fill="#FFFFFF" points="59.25,27.958 51.25,27.958 51.25,35.958 59.25,35.958 		"/>
		<polygon fill="#E62E2F" points="67.25,27.958 59.25,27.958 59.25,35.958 67.25,35.958 		"/>
		<polygon fill="#E62E2F" points="75.171,27.958 67.171,27.958 67.171,35.958 75.171,35.958 		"/>
		<polygon fill="#E62E2F" points="83.171,27.958 75.171,27.958 75.171,35.958 83.171,35.958 		"/>
		<polygon fill="#E62E2F" points="91.171,27.958 83.171,27.958 83.171,35.958 91.171,35.958 		"/>
		<polygon fill="#E62E2F" points="99.171,27.958 91.171,27.958 91.171,35.958 99.171,35.958 		"/>
		<polygon fill="#FFFFFF" points="107.171,27.958 99.171,27.958 99.171,35.958 107.171,35.958 		"/>
		<polygon fill="#FFFFFF" points="115.171,27.958 107.171,27.958 107.171,35.958 115.171,35.958 		"/>
		<polygon fill="#FFFFFF" points="11.25,27.958 3.25,27.958 3.25,35.958 11.25,35.958 		"/>
		<polygon fill="#E62E2F" points="19.25,19.958 11.25,19.958 11.25,27.958 19.25,27.958 		"/>
		<polygon fill="#E62E2F" points="27.25,19.958 19.25,19.958 19.25,27.958 27.25,27.958 		"/>
		<polygon fill="#E62E2F" points="35.25,19.958 27.25,19.958 27.25,27.958 35.25,27.958 		"/>
		<polygon fill="#E62E2F" points="43.25,19.958 35.25,19.958 35.25,27.958 43.25,27.958 		"/>
		<polygon fill="#E62E2F" points="51.25,19.958 43.25,19.958 43.25,27.958 51.25,27.958 		"/>
		<polygon fill="#E62E2F" points="59.25,19.958 51.25,19.958 51.25,27.958 59.25,27.958 		"/>
		<polygon fill="#E62E2F" points="67.25,19.958 59.25,19.958 59.25,27.958 67.25,27.958 		"/>
		<polygon fill="#E62E2F" points="75.171,19.958 67.171,19.958 67.171,27.958 75.171,27.958 		"/>
		<polygon fill="#E62E2F" points="83.171,19.958 75.171,19.958 75.171,27.958 83.171,27.958 		"/>
		<polygon fill="#E62E2F" points="91.171,19.958 83.171,19.958 83.171,27.958 91.171,27.958 		"/>
		<polygon fill="#E62E2F" points="99.171,19.958 91.171,19.958 91.171,27.958 99.171,27.958 		"/>
		<polygon fill="#FFFFFF" points="107.171,19.958 99.171,19.958 99.171,27.958 107.171,27.958 		"/>
		<polygon fill="#FFFFFF" points="115.171,19.958 107.171,19.958 107.171,27.958 115.171,27.958 		"/>
		<polygon fill="#FFFFFF" points="11.25,19.958 3.25,19.958 3.25,27.958 11.25,27.958 		"/>
		<polygon fill="#E62E2F" points="19.25,11.958 11.25,11.958 11.25,19.958 19.25,19.958 		"/>
		<polygon fill="#E62E2F" points="27.25,11.958 19.25,11.958 19.25,19.958 27.25,19.958 		"/>
		<polygon fill="#E62E2F" points="35.25,11.958 27.25,11.958 27.25,19.958 35.25,19.958 		"/>
		<polygon fill="#E62E2F" points="43.25,11.958 35.25,11.958 35.25,19.958 43.25,19.958 		"/>
		<polygon fill="#E62E2F" points="51.25,11.958 43.25,11.958 43.25,19.958 51.25,19.958 		"/>
		<polygon fill="#E62E2F" points="59.25,11.958 51.25,11.958 51.25,19.958 59.25,19.958 		"/>
		<polygon fill="#E62E2F" points="67.25,11.958 59.25,11.958 59.25,19.958 67.25,19.958 		"/>
		<polygon fill="#E62E2F" points="75.171,11.958 67.171,11.958 67.171,19.958 75.171,19.958 		"/>
		<polygon fill="#E62E2F" points="83.171,11.958 75.171,11.958 75.171,19.958 83.171,19.958 		"/>
		<polygon fill="#E62E2F" points="91.171,11.958 83.171,11.958 83.171,19.958 91.171,19.958 		"/>
		<polygon fill="#E62E2F" points="99.171,11.958 91.171,11.958 91.171,19.958 99.171,19.958 		"/>
		<polygon fill="#FFFFFF" points="107.171,11.958 99.171,11.958 99.171,19.958 107.171,19.958 		"/>
		<polygon fill="#FFFFFF" points="115.171,11.958 107.171,11.958 107.171,19.958 115.171,19.958 		"/>
		<polygon fill="#FFFFFF" points="11.25,11.958 3.25,11.958 3.25,19.958 11.25,19.958 		"/>
		<polygon fill="#FFFFFF" points="19.25,4.208 11.25,4.208 11.25,12.208 19.25,12.208 		"/>
		<polygon fill="#E62E2F" points="27.25,4.208 19.25,4.208 19.25,12.208 27.25,12.208 		"/>
		<polygon fill="#E62E2F" points="35.25,4.208 27.25,4.208 27.25,12.208 35.25,12.208 		"/>
		<polygon fill="#E62E2F" points="43.25,4.208 35.25,4.208 35.25,12.208 43.25,12.208 		"/>
		<polygon fill="#E62E2F" points="51.25,4.208 43.25,4.208 43.25,12.208 51.25,12.208 		"/>
		<polygon fill="#E62E2F" points="59.25,4.208 51.25,4.208 51.25,12.208 59.25,12.208 		"/>
		<polygon fill="#E62E2F" points="67.25,4.208 59.25,4.208 59.25,12.208 67.25,12.208 		"/>
		<polygon fill="#E62E2F" points="75.171,4.208 67.171,4.208 67.171,12.208 75.171,12.208 		"/>
		<polygon fill="#E62E2F" points="83.171,4.208 75.171,4.208 75.171,12.208 83.171,12.208 		"/>
		<polygon fill="#E62E2F" points="91.171,4.208 83.171,4.208 83.171,12.208 91.171,12.208 		"/>
		<polygon fill="#FFFFFF" points="99.171,4.208 91.171,4.208 91.171,12.208 99.171,12.208 		"/>
		<polygon fill="#FFFFFF" points="107.171,4.208 99.171,4.208 99.171,12.208 107.171,12.208 		"/>
		<polygon fill="#FFFFFF" points="115.171,4.208 107.171,4.208 107.171,12.208 115.171,12.208 		"/>
		<polygon fill="#FFFFFF" points="11.25,4.208 3.25,4.208 3.25,12.208 11.25,12.208 		"/>
		<polygon fill="#FFFFFF" points="19.25,-3.792 11.25,-3.792 11.25,4.208 19.25,4.208 		"/>
		<polygon fill="#FFFFFF" points="27.25,-3.792 19.25,-3.792 19.25,4.208 27.25,4.208 		"/>
		<polygon fill="#E62E2F" points="35.25,-3.792 27.25,-3.792 27.25,4.208 35.25,4.208 		"/>
		<polygon fill="#E62E2F" points="43.25,-3.792 35.25,-3.792 35.25,4.208 43.25,4.208 		"/>
		<polygon fill="#E62E2F" points="51.25,-3.792 43.25,-3.792 43.25,4.208 51.25,4.208 		"/>
		<polygon fill="#E62E2F" points="59.25,-3.792 51.25,-3.792 51.25,4.208 59.25,4.208 		"/>
		<polygon fill="#E62E2F" points="67.25,-3.792 59.25,-3.792 59.25,4.208 67.25,4.208 		"/>
		<polygon fill="#E62E2F" points="75.171,-3.792 67.171,-3.792 67.171,4.208 75.171,4.208 		"/>
		<polygon fill="#E62E2F" points="83.171,-3.792 75.171,-3.792 75.171,4.208 83.171,4.208 		"/>
		<polygon fill="#FFFFFF" points="91.171,-3.792 83.171,-3.792 83.171,4.208 91.171,4.208 		"/>
		<polygon fill="#FFFFFF" points="99.171,-3.792 91.171,-3.792 91.171,4.208 99.171,4.208 		"/>
		<polygon fill="#FFFFFF" points="107.171,-3.792 99.171,-3.792 99.171,4.208 107.171,4.208 		"/>
		<polygon fill="#FFFFFF" points="115.171,-3.792 107.171,-3.792 107.171,4.208 115.171,4.208 		"/>
		<polygon fill="#FFFFFF" points="11.25,-3.792 3.25,-3.792 3.25,4.208 11.25,4.208 		"/>
		<polygon fill="#FFFFFF" points="19.25,-11.792 11.25,-11.792 11.25,-3.792 19.25,-3.792 		"/>
		<polygon fill="#FFFFFF" points="27.25,-11.792 19.25,-11.792 19.25,-3.792 27.25,-3.792 		"/>
		<polygon fill="#FFFFFF" points="35.25,-11.792 27.25,-11.792 27.25,-3.792 35.25,-3.792 		"/>
		<polygon fill="#E62E2F" points="43.25,-11.792 35.25,-11.792 35.25,-3.792 43.25,-3.792 		"/>
		<polygon fill="#E62E2F" points="51.25,-11.792 43.25,-11.792 43.25,-3.792 51.25,-3.792 		"/>
		<polygon fill="#E62E2F" points="59.25,-11.792 51.25,-11.792 51.25,-3.792 59.25,-3.792 		"/>
		<polygon fill="#E62E2F" points="67.25,-11.792 59.25,-11.792 59.25,-3.792 67.25,-3.792 		"/>
		<polygon fill="#E62E2F" points="75.171,-11.792 67.171,-11.792 67.171,-3.792 75.171,-3.792 		"/>
		<polygon fill="#FFFFFF" points="83.171,-11.792 75.171,-11.792 75.171,-3.792 83.171,-3.792 		"/>
		<polygon fill="#FFFFFF" points="91.171,-11.792 83.171,-11.792 83.171,-3.792 91.171,-3.792 		"/>
		<polygon fill="#FFFFFF" points="99.171,-11.792 91.171,-11.792 91.171,-3.792 99.171,-3.792 		"/>
		<polygon fill="#FFFFFF" points="107.171,-11.792 99.171,-11.792 99.171,-3.792 107.171,-3.792 		"/>
		<polygon fill="#FFFFFF" points="115.171,-11.792 107.171,-11.792 107.171,-3.792 115.171,-3.792 		"/>
		<polygon fill="#FFFFFF" points="11.25,-11.792 3.25,-11.792 3.25,-3.792 11.25,-3.792 		"/>
		<polygon fill="#FFFFFF" points="19.25,-19.792 11.25,-19.792 11.25,-11.792 19.25,-11.792 		"/>
		<polygon fill="#FFFFFF" points="27.25,-19.792 19.25,-19.792 19.25,-11.792 27.25,-11.792 		"/>
		<polygon fill="#FFFFFF" points="35.25,-19.792 27.25,-19.792 27.25,-11.792 35.25,-11.792 		"/>
		<polygon fill="#FFFFFF" points="43.25,-19.792 35.25,-19.792 35.25,-11.792 43.25,-11.792 		"/>
		<polygon fill="#E62E2F" points="51.25,-19.792 43.25,-19.792 43.25,-11.792 51.25,-11.792 		"/>
		<polygon fill="#E62E2F" points="59.25,-19.792 51.25,-19.792 51.25,-11.792 59.25,-11.792 		"/>
		<polygon fill="#E62E2F" points="67.25,-19.792 59.25,-19.792 59.25,-11.792 67.25,-11.792 		"/>
		<polygon fill="#FFFFFF" points="75.171,-19.792 67.171,-19.792 67.171,-11.792 75.171,-11.792 		"/>
		<polygon fill="#FFFFFF" points="83.171,-19.792 75.171,-19.792 75.171,-11.792 83.171,-11.792 		"/>
		<polygon fill="#FFFFFF" points="91.171,-19.792 83.171,-19.792 83.171,-11.792 91.171,-11.792 		"/>
		<polygon fill="#FFFFFF" points="99.171,-19.792 91.171,-19.792 91.171,-11.792 99.171,-11.792 		"/>
		<polygon fill="#FFFFFF" points="107.171,-19.792 99.171,-19.792 99.171,-11.792 107.171,-11.792 		"/>
		<polygon fill="#FFFFFF" points="115.171,-19.792 107.171,-19.792 107.171,-11.792 115.171,-11.792 		"/>
		<polygon fill="#FFFFFF" points="11.25,-19.792 3.25,-19.792 3.25,-11.792 11.25,-11.792 		"/>
		<polygon fill="#FFFFFF" points="19.25,-27.542 11.25,-27.542 11.25,-19.542 19.25,-19.542 		"/>
		<polygon fill="#FFFFFF" points="27.25,-27.542 19.25,-27.542 19.25,-19.542 27.25,-19.542 		"/>
		<polygon fill="#FFFFFF" points="35.25,-27.542 27.25,-27.542 27.25,-19.542 35.25,-19.542 		"/>
		<polygon fill="#FFFFFF" points="43.25,-27.542 35.25,-27.542 35.25,-19.542 43.25,-19.542 		"/>
		<polygon fill="#FFFFFF" points="51.25,-27.542 43.25,-27.542 43.25,-19.542 51.25,-19.542 		"/>
		<polygon fill="#E62E2F" points="59.25,-27.542 51.25,-27.542 51.25,-19.542 59.25,-19.542 		"/>
		<polygon fill="#FFFFFF" points="67.25,-27.542 59.25,-27.542 59.25,-19.542 67.25,-19.542 		"/>
		<polygon fill="#FFFFFF" points="75.171,-27.542 67.171,-27.542 67.171,-19.542 75.171,-19.542 		"/>
		<polygon fill="#FFFFFF" points="83.171,-27.542 75.171,-27.542 75.171,-19.542 83.171,-19.542 		"/>
		<polygon fill="#FFFFFF" points="91.171,-27.542 83.171,-27.542 83.171,-19.542 91.171,-19.542 		"/>
		<polygon fill="#FFFFFF" points="99.171,-27.542 91.171,-27.542 91.171,-19.542 99.171,-19.542 		"/>
		<polygon fill="#FFFFFF" points="107.171,-27.542 99.171,-27.542 99.171,-19.542 107.171,-19.542 		"/>
		<polygon fill="#FFFFFF" points="115.171,-27.542 107.171,-27.542 107.171,-19.542 115.171,-19.542 		"/>
		<polygon fill="#FFFFFF" points="3.29,-35.417 -4.71,-35.417 -4.71,-27.417 3.29,-27.417 		"/>
		<polygon fill="#FFFFFF" points="3.29,51.708 -4.71,51.708 -4.71,59.708 3.29,59.708 		"/>
		<polygon fill="#FFFFFF" points="3.29,43.708 -4.71,43.708 -4.71,51.708 3.29,51.708 		"/>
		<polygon fill="#FFFFFF" points="3.29,35.958 -4.71,35.958 -4.71,43.958 3.29,43.958 		"/>
		<polygon fill="#FFFFFF" points="3.29,27.958 -4.71,27.958 -4.71,35.958 3.29,35.958 		"/>
		<polygon fill="#FFFFFF" points="3.29,19.958 -4.71,19.958 -4.71,27.958 3.29,27.958 		"/>
		<polygon fill="#FFFFFF" points="3.29,11.958 -4.71,11.958 -4.71,19.958 3.29,19.958 		"/>
		<polygon fill="#FFFFFF" points="3.29,4.208 -4.71,4.208 -4.71,12.208 3.29,12.208 		"/>
		<polygon fill="#FFFFFF" points="3.29,-3.792 -4.71,-3.792 -4.71,4.208 3.29,4.208 		"/>
		<polygon fill="#FFFFFF" points="3.29,-11.792 -4.71,-11.792 -4.71,-3.792 3.29,-3.792 		"/>
		<polygon fill="#FFFFFF" points="3.29,-19.792 -4.71,-19.792 -4.71,-11.792 3.29,-11.792 		"/>
		<polygon fill="#FFFFFF" points="3.29,-27.542 -4.71,-27.542 -4.71,-19.542 3.29,-19.542 		"/>
		<polygon fill="#FFFFFF" points="11.25,-27.542 3.25,-27.542 3.25,-19.542 11.25,-19.542 		"/>
	</g>
	<polygon fill="none" stroke="#E62E2F" stroke-linejoin="round" stroke-miterlimit="10" points="115.21,-35.417 -4.71,-35.417 
		-4.71,59.833 115.21,59.833 	"/>
</symbol>
<g id="FabFMRadio">
	<rect x="-100" y="-70" display="none" fill="#FFFFFF" width="264" height="203.997"/>
	<g id="MicroView">
		
			<rect x="-51.973" y="16.358" display="none" fill="#E62E2F" stroke="#E62E2F" stroke-width="5.1438" stroke-miterlimit="10" width="44.254" height="31.72"/>
		
			<rect x="-15.966" y="3.713" display="none" fill="#E62E2F" stroke="#E62E2F" stroke-width="5.1438" stroke-miterlimit="10" width="11.359" height="55.51"/>
		
			<rect x="-51.973" y="16.358" fill="#FFFFFF" stroke="#FFFFFF" stroke-width="2.1432" stroke-miterlimit="10" width="44.254" height="31.72"/>
		<path display="none" fill="#E62E2F" stroke="#E62E2F" stroke-width="5.1438" stroke-miterlimit="10" d="M69.013,59.187
			c0,5.445-4.414,9.859-9.859,9.859H5.252c-5.445,0-9.859-4.414-9.859-9.859V3.998c0-5.445,4.414-9.859,9.859-9.859h53.903
			c5.445,0,9.859,4.414,9.859,9.859V59.187z"/>
		
			<rect x="-15.966" y="3.713" fill="#FFFFFF" stroke="#FFFFFF" stroke-width="2.1432" stroke-miterlimit="10" width="11.359" height="55.51"/>
		<path fill="#FFFFFF" stroke="#FFFFFF" stroke-width="2.1432" stroke-miterlimit="10" d="M69.013,59.187
			c0,5.445-4.414,9.859-9.859,9.859H5.252c-5.445,0-9.859-4.414-9.859-9.859V3.998c0-5.445,4.414-9.859,9.859-9.859h53.903
			c5.445,0,9.859,4.414,9.859,9.859V59.187z"/>
		
			<rect x="-15.966" y="3.713" fill="#FFFFFF" stroke="#45537D" stroke-width="0.3215" stroke-linejoin="round" stroke-miterlimit="10" width="11.359" height="55.51"/>
		<path fill="#FFFFFF" stroke="#45537D" stroke-width="0.5358" stroke-linejoin="round" stroke-miterlimit="10" d="M69.013,59.187
			c0,5.445-4.414,9.859-9.859,9.859H5.252c-5.445,0-9.859-4.414-9.859-9.859V3.998c0-5.445,4.414-9.859,9.859-9.859h53.903
			c5.445,0,9.859,4.414,9.859,9.859V59.187z"/>
		<path fill="none" stroke="#45537D" stroke-width="0.5358" stroke-linejoin="round" stroke-miterlimit="10" d="M64.697,55.951
			c0,4.806-3.896,8.703-8.703,8.703H8.412c-4.806,0-8.703-3.896-8.703-8.703V7.234c0-4.806,3.896-8.703,8.703-8.703h47.582
			c4.806,0,8.703,3.896,8.703,8.703V55.951z"/>
		
			<path fill="#FFFFFF" stroke="#45537D" stroke-width="0.4286" stroke-linecap="round" stroke-linejoin="round" stroke-miterlimit="10" d="
			M-6.715,17.644c0,0.592-0.48,1.072-1.072,1.072h-5.001c-0.592,0-1.072-0.48-1.072-1.072v-1.572c0-0.592,0.48-1.072,1.072-1.072
			h5.001c0.592,0,1.072,0.48,1.072,1.072V17.644z"/>
		
			<path fill="#FFFFFF" stroke="#45537D" stroke-width="0.4286" stroke-linecap="round" stroke-linejoin="round" stroke-miterlimit="10" d="
			M-6.715,48.435c0,0.592-0.48,1.072-1.072,1.072h-5.001c-0.592,0-1.072-0.48-1.072-1.072v-1.572c0-0.592,0.48-1.072,1.072-1.072
			h5.001c0.592,0,1.072,0.48,1.072,1.072V48.435z"/>
		
			<rect x="-51.973" y="16.358" fill="#FFFFFF" stroke="#45537D" stroke-width="0.4286" stroke-linejoin="round" stroke-miterlimit="10" width="44.254" height="31.72"/>
		
			<rect x="-42.185" y="20.073" fill="#FFFFFF" stroke="#45537D" stroke-width="0.4286" stroke-linejoin="round" stroke-miterlimit="10" width="4.286" height="8.716"/>
		
			<rect x="-42.185" y="35.674" fill="#FFFFFF" stroke="#45537D" stroke-width="0.4286" stroke-linejoin="round" stroke-miterlimit="10" width="4.286" height="8.716"/>
		
			<polyline fill="#FFFFFF" stroke="#45537D" stroke-width="0.4286" stroke-linecap="round" stroke-linejoin="round" stroke-miterlimit="10" points="
			-12.108,36.361 -16.252,36.361 -16.252,28.074 -12.108,28.074 		"/>
		<path fill="#FFFFFF" stroke="#45537D" stroke-width="0.4286" stroke-linejoin="round" stroke-miterlimit="10" d="M-32.684,26.619
			c0,0.355-0.288,0.643-0.643,0.643l0,0c-0.355,0-0.643-0.288-0.643-0.643v-4.376c0-0.355,0.288-0.643,0.643-0.643l0,0
			c0.355,0,0.643,0.288,0.643,0.643V26.619z"/>
		<path fill="#FFFFFF" stroke="#45537D" stroke-width="0.4286" stroke-linejoin="round" stroke-miterlimit="10" d="M-32.684,42.22
			c0,0.355-0.288,0.643-0.643,0.643l0,0c-0.355,0-0.643-0.288-0.643-0.643v-4.376c0-0.355,0.288-0.643,0.643-0.643l0,0
			c0.355,0,0.643,0.288,0.643,0.643V42.22z"/>
		
			<rect x="-7.719" y="22.466" fill="#FFFFFF" stroke="#45537D" stroke-width="0.4286" stroke-linecap="round" stroke-linejoin="round" stroke-miterlimit="10" width="3.112" height="2.036"/>
		
			<rect x="-7.719" y="28.253" fill="#FFFFFF" stroke="#45537D" stroke-width="0.4286" stroke-linecap="round" stroke-linejoin="round" stroke-miterlimit="10" width="3.112" height="2.036"/>
		
			<rect x="-7.719" y="34.04" fill="#FFFFFF" stroke="#45537D" stroke-width="0.4286" stroke-linecap="round" stroke-linejoin="round" stroke-miterlimit="10" width="3.112" height="2.036"/>
		
			<rect x="-7.719" y="39.826" fill="#FFFFFF" stroke="#45537D" stroke-width="0.4286" stroke-linecap="round" stroke-linejoin="round" stroke-miterlimit="10" width="3.112" height="2.036"/>
		<g>
			
				<path fill="#FFFFFF" stroke="#E62E2F" stroke-width="0.8573" stroke-linecap="round" stroke-linejoin="round" stroke-miterlimit="10" d="
				M37.313,29.574"/>
			<rect x="13.343" y="43.345" fill="#FFFFFF" width="3.429" height="3.429"/>
			<rect x="16.772" y="43.345" fill="#FFFFFF" width="3.429" height="3.429"/>
			<rect x="20.201" y="43.345" fill="#FFFFFF" width="3.429" height="3.429"/>
			<rect x="23.63" y="43.345" fill="#FFFFFF" width="3.429" height="3.429"/>
			<rect x="27.059" y="43.345" fill="#FFFFFF" width="3.429" height="3.429"/>
			<rect x="30.489" y="43.345" fill="#FFFFFF" width="3.429" height="3.429"/>
			<rect x="33.918" y="43.345" fill="#FFFFFF" width="3.429" height="3.429"/>
			<rect x="37.313" y="43.345" fill="#FFFFFF" width="3.429" height="3.429"/>
			<rect x="40.742" y="43.345" fill="#FFFFFF" width="3.429" height="3.429"/>
			<rect x="44.171" y="43.345" fill="#FFFFFF" width="3.429" height="3.429"/>
			<rect x="47.601" y="43.345" fill="#FFFFFF" width="3.429" height="3.429"/>
			<rect x="51.03" y="43.345" fill="#FFFFFF" width="3.429" height="3.429"/>
			<rect x="54.459" y="43.345" fill="#FFFFFF" width="3.429" height="3.429"/>
			<rect x="9.913" y="43.345" fill="#FFFFFF" width="3.429" height="3.429"/>
			<rect x="13.343" y="5.999" fill="#FFFFFF" width="3.429" height="3.429"/>
			<rect x="16.772" y="5.999" fill="#FFFFFF" width="3.429" height="3.429"/>
			<rect x="20.201" y="5.999" fill="#FFFFFF" width="3.429" height="3.429"/>
			<rect x="23.63" y="5.999" fill="#FFFFFF" width="3.429" height="3.429"/>
			<rect x="27.059" y="5.999" fill="#FFFFFF" width="3.429" height="3.429"/>
			<rect x="30.489" y="5.999" fill="#FFFFFF" width="3.429" height="3.429"/>
			<rect x="33.918" y="5.999" fill="#FFFFFF" width="3.429" height="3.429"/>
			<rect x="37.313" y="5.999" fill="#FFFFFF" width="3.429" height="3.429"/>
			<rect x="40.742" y="5.999" fill="#FFFFFF" width="3.429" height="3.429"/>
			<rect x="44.171" y="5.999" fill="#FFFFFF" width="3.429" height="3.429"/>
			<rect x="47.601" y="5.999" fill="#FFFFFF" width="3.429" height="3.429"/>
			<rect x="51.03" y="5.999" fill="#FFFFFF" width="3.429" height="3.429"/>
			<rect x="54.459" y="5.999" fill="#FFFFFF" width="3.429" height="3.429"/>
			<rect x="9.913" y="5.999" fill="#FFFFFF" width="3.429" height="3.429"/>
			<rect x="13.343" y="9.428" fill="#FFFFFF" width="3.429" height="3.429"/>
			<rect x="16.772" y="9.428" fill="#45537D" width="3.429" height="3.429"/>
			<rect x="20.201" y="9.428" fill="#45537D" width="3.429" height="3.429"/>
			<rect x="23.63" y="9.428" fill="#FFFFFF" width="3.429" height="3.429"/>
			<rect x="27.059" y="9.428" fill="#FFFFFF" width="3.429" height="3.429"/>
			<rect x="30.489" y="9.428" fill="#FFFFFF" width="3.429" height="3.429"/>
			<rect x="33.918" y="9.428" fill="#FFFFFF" width="3.429" height="3.429"/>
			<rect x="37.313" y="9.428" fill="#FFFFFF" width="3.429" height="3.429"/>
			<rect x="40.742" y="9.428" fill="#45537D" width="3.429" height="3.429"/>
			<rect x="44.171" y="9.428" fill="#45537D" width="3.429" height="3.429"/>
			<rect x="47.601" y="9.428" fill="#FFFFFF" width="3.429" height="3.429"/>
			<rect x="51.03" y="9.428" fill="#FFFFFF" width="3.429" height="3.429"/>
			<rect x="54.459" y="9.428" fill="#FFFFFF" width="3.429" height="3.429"/>
			<rect x="9.913" y="9.428" fill="#FFFFFF" width="3.429" height="3.429"/>
			<rect x="13.343" y="12.75" fill="#45537D" width="3.429" height="3.429"/>
			<rect x="16.772" y="12.75" fill="#45537D" width="3.429" height="3.429"/>
			<rect x="20.201" y="12.75" fill="#45537D" width="3.429" height="3.429"/>
			<rect x="23.63" y="12.75" fill="#45537D" width="3.429" height="3.429"/>
			<rect x="27.059" y="12.75" fill="#FFFFFF" width="3.429" height="3.429"/>
			<rect x="30.489" y="12.75" fill="#FFFFFF" width="3.429" height="3.429"/>
			<rect x="33.918" y="12.75" fill="#FFFFFF" width="3.429" height="3.429"/>
			<rect x="37.313" y="12.75" fill="#45537D" width="3.429" height="3.429"/>
			<rect x="40.742" y="12.75" fill="#45537D" width="3.429" height="3.429"/>
			<rect x="44.171" y="12.75" fill="#45537D" width="3.429" height="3.429"/>
			<rect x="47.601" y="12.75" fill="#45537D" width="3.429" height="3.429"/>
			<rect x="51.03" y="12.75" fill="#FFFFFF" width="3.429" height="3.429"/>
			<rect x="54.459" y="12.75" fill="#FFFFFF" width="3.429" height="3.429"/>
			<rect x="9.913" y="12.75" fill="#FFFFFF" width="3.429" height="3.429"/>
			<rect x="13.343" y="16.179" fill="#45537D" width="3.429" height="3.429"/>
			<rect x="16.772" y="16.179" fill="#45537D" width="3.429" height="3.429"/>
			<rect x="20.201" y="16.179" fill="#45537D" width="3.429" height="3.429"/>
			<rect x="23.63" y="16.179" fill="#45537D" width="3.429" height="3.429"/>
			<rect x="27.059" y="16.179" fill="#45537D" width="3.429" height="3.429"/>
			<rect x="30.489" y="16.179" fill="#FFFFFF" width="3.429" height="3.429"/>
			<rect x="33.918" y="16.179" fill="#45537D" width="3.429" height="3.429"/>
			<rect x="37.313" y="16.179" fill="#45537D" width="3.429" height="3.429"/>
			<rect x="40.742" y="16.179" fill="#45537D" width="3.429" height="3.429"/>
			<rect x="44.171" y="16.179" fill="#45537D" width="3.429" height="3.429"/>
			<rect x="47.601" y="16.179" fill="#45537D" width="3.429" height="3.429"/>
			<rect x="51.03" y="16.179" fill="#FFFFFF" width="3.429" height="3.429"/>
			<rect x="54.459" y="16.179" fill="#FFFFFF" width="3.429" height="3.429"/>
			<rect x="9.913" y="16.179" fill="#FFFFFF" width="3.429" height="3.429"/>
			<rect x="13.343" y="19.608" fill="#45537D" width="3.429" height="3.429"/>
			<rect x="16.772" y="19.608" fill="#45537D" width="3.429" height="3.429"/>
			<rect x="20.201" y="19.608" fill="#45537D" width="3.429" height="3.429"/>
			<rect x="23.63" y="19.608" fill="#45537D" width="3.429" height="3.429"/>
			<rect x="27.059" y="19.608" fill="#45537D" width="3.429" height="3.429"/>
			<rect x="30.489" y="19.608" fill="#45537D" width="3.429" height="3.429"/>
			<rect x="33.918" y="19.608" fill="#45537D" width="3.429" height="3.429"/>
			<rect x="37.313" y="19.608" fill="#45537D" width="3.429" height="3.429"/>
			<rect x="40.742" y="19.608" fill="#45537D" width="3.429" height="3.429"/>
			<rect x="44.171" y="19.608" fill="#45537D" width="3.429" height="3.429"/>
			<rect x="47.601" y="19.608" fill="#45537D" width="3.429" height="3.429"/>
			<rect x="51.03" y="19.608" fill="#FFFFFF" width="3.429" height="3.429"/>
			<rect x="54.459" y="19.608" fill="#FFFFFF" width="3.429" height="3.429"/>
			<rect x="9.913" y="19.608" fill="#FFFFFF" width="3.429" height="3.429"/>
			<rect x="13.343" y="23.038" fill="#45537D" width="3.429" height="3.429"/>
			<rect x="16.772" y="23.038" fill="#45537D" width="3.429" height="3.429"/>
			<rect x="20.201" y="23.038" fill="#45537D" width="3.429" height="3.429"/>
			<rect x="23.63" y="23.038" fill="#45537D" width="3.429" height="3.429"/>
			<rect x="27.059" y="23.038" fill="#45537D" width="3.429" height="3.429"/>
			<rect x="30.489" y="23.038" fill="#45537D" width="3.429" height="3.429"/>
			<rect x="33.918" y="23.038" fill="#45537D" width="3.429" height="3.429"/>
			<rect x="37.313" y="23.038" fill="#45537D" width="3.429" height="3.429"/>
			<rect x="40.742" y="23.038" fill="#45537D" width="3.429" height="3.429"/>
			<rect x="44.171" y="23.038" fill="#45537D" width="3.429" height="3.429"/>
			<rect x="47.601" y="23.038" fill="#45537D" width="3.429" height="3.429"/>
			<rect x="51.03" y="23.038" fill="#FFFFFF" width="3.429" height="3.429"/>
			<rect x="54.459" y="23.038" fill="#FFFFFF" width="3.429" height="3.429"/>
			<rect x="9.913" y="23.038" fill="#FFFFFF" width="3.429" height="3.429"/>
			<rect x="13.343" y="26.36" fill="#FFFFFF" width="3.429" height="3.429"/>
			<rect x="16.772" y="26.36" fill="#45537D" width="3.429" height="3.429"/>
			<rect x="20.201" y="26.36" fill="#45537D" width="3.429" height="3.429"/>
			<rect x="23.63" y="26.36" fill="#45537D" width="3.429" height="3.429"/>
			<rect x="27.059" y="26.36" fill="#45537D" width="3.429" height="3.429"/>
			<rect x="30.489" y="26.36" fill="#45537D" width="3.429" height="3.429"/>
			<rect x="33.918" y="26.36" fill="#45537D" width="3.429" height="3.429"/>
			<rect x="37.313" y="26.36" fill="#45537D" width="3.429" height="3.429"/>
			<rect x="40.742" y="26.36" fill="#45537D" width="3.429" height="3.429"/>
			<rect x="44.171" y="26.36" fill="#45537D" width="3.429" height="3.429"/>
			<rect x="47.601" y="26.36" fill="#FFFFFF" width="3.429" height="3.429"/>
			<rect x="51.03" y="26.36" fill="#FFFFFF" width="3.429" height="3.429"/>
			<rect x="54.459" y="26.36" fill="#FFFFFF" width="3.429" height="3.429"/>
			<rect x="9.913" y="26.36" fill="#FFFFFF" width="3.429" height="3.429"/>
			<rect x="13.343" y="29.789" fill="#FFFFFF" width="3.429" height="3.429"/>
			<rect x="16.772" y="29.789" fill="#FFFFFF" width="3.429" height="3.429"/>
			<rect x="20.201" y="29.789" fill="#45537D" width="3.429" height="3.429"/>
			<rect x="23.63" y="29.789" fill="#45537D" width="3.429" height="3.429"/>
			<rect x="27.059" y="29.789" fill="#45537D" width="3.429" height="3.429"/>
			<rect x="30.489" y="29.789" fill="#45537D" width="3.429" height="3.429"/>
			<rect x="33.918" y="29.789" fill="#45537D" width="3.429" height="3.429"/>
			<rect x="37.313" y="29.789" fill="#45537D" width="3.429" height="3.429"/>
			<rect x="40.742" y="29.789" fill="#45537D" width="3.429" height="3.429"/>
			<rect x="44.171" y="29.789" fill="#FFFFFF" width="3.429" height="3.429"/>
			<rect x="47.601" y="29.789" fill="#FFFFFF" width="3.429" height="3.429"/>
			<rect x="51.03" y="29.789" fill="#FFFFFF" width="3.429" height="3.429"/>
			<rect x="54.459" y="29.789" fill="#FFFFFF" width="3.429" height="3.429"/>
			<rect x="9.913" y="29.789" fill="#FFFFFF" width="3.429" height="3.429"/>
			<rect x="13.343" y="33.218" fill="#FFFFFF" width="3.429" height="3.429"/>
			<rect x="16.772" y="33.218" fill="#FFFFFF" width="3.429" height="3.429"/>
			<rect x="20.201" y="33.218" fill="#FFFFFF" width="3.429" height="3.429"/>
			<rect x="23.63" y="33.218" fill="#45537D" width="3.429" height="3.429"/>
			<rect x="27.059" y="33.218" fill="#45537D" width="3.429" height="3.429"/>
			<rect x="30.489" y="33.218" fill="#45537D" width="3.429" height="3.429"/>
			<rect x="33.918" y="33.218" fill="#45537D" width="3.429" height="3.429"/>
			<rect x="37.313" y="33.218" fill="#45537D" width="3.429" height="3.429"/>
			<rect x="40.742" y="33.218" fill="#FFFFFF" width="3.429" height="3.429"/>
			<rect x="44.171" y="33.218" fill="#FFFFFF" width="3.429" height="3.429"/>
			<rect x="47.601" y="33.218" fill="#FFFFFF" width="3.429" height="3.429"/>
			<rect x="51.03" y="33.218" fill="#FFFFFF" width="3.429" height="3.429"/>
			<rect x="54.459" y="33.218" fill="#FFFFFF" width="3.429" height="3.429"/>
			<rect x="9.913" y="33.218" fill="#FFFFFF" width="3.429" height="3.429"/>
			<rect x="13.343" y="36.647" fill="#FFFFFF" width="3.429" height="3.429"/>
			<rect x="16.772" y="36.647" fill="#FFFFFF" width="3.429" height="3.429"/>
			<rect x="20.201" y="36.647" fill="#FFFFFF" width="3.429" height="3.429"/>
			<rect x="23.63" y="36.647" fill="#FFFFFF" width="3.429" height="3.429"/>
			<rect x="27.059" y="36.647" fill="#45537D" width="3.429" height="3.429"/>
			<rect x="30.489" y="36.647" fill="#45537D" width="3.429" height="3.429"/>
			<rect x="33.918" y="36.647" fill="#45537D" width="3.429" height="3.429"/>
			<rect x="37.313" y="36.647" fill="#FFFFFF" width="3.429" height="3.429"/>
			<rect x="40.742" y="36.647" fill="#FFFFFF" width="3.429" height="3.429"/>
			<rect x="44.171" y="36.647" fill="#FFFFFF" width="3.429" height="3.429"/>
			<rect x="47.601" y="36.647" fill="#FFFFFF" width="3.429" height="3.429"/>
			<rect x="51.03" y="36.647" fill="#FFFFFF" width="3.429" height="3.429"/>
			<rect x="54.459" y="36.647" fill="#FFFFFF" width="3.429" height="3.429"/>
			<rect x="9.913" y="36.647" fill="#FFFFFF" width="3.429" height="3.429"/>
			<rect x="13.343" y="39.969" fill="#FFFFFF" width="3.429" height="3.429"/>
			<rect x="16.772" y="39.969" fill="#FFFFFF" width="3.429" height="3.429"/>
			<rect x="20.201" y="39.969" fill="#FFFFFF" width="3.429" height="3.429"/>
			<rect x="23.63" y="39.969" fill="#FFFFFF" width="3.429" height="3.429"/>
			<rect x="27.059" y="39.969" fill="#FFFFFF" width="3.429" height="3.429"/>
			<rect x="30.489" y="39.969" fill="#45537D" width="3.429" height="3.429"/>
			<rect x="33.918" y="39.969" fill="#FFFFFF" width="3.429" height="3.429"/>
			<rect x="37.313" y="39.969" fill="#FFFFFF" width="3.429" height="3.429"/>
			<rect x="40.742" y="39.969" fill="#FFFFFF" width="3.429" height="3.429"/>
			<rect x="44.171" y="39.969" fill="#FFFFFF" width="3.429" height="3.429"/>
			<rect x="47.601" y="39.969" fill="#FFFFFF" width="3.429" height="3.429"/>
			<rect x="51.03" y="39.969" fill="#FFFFFF" width="3.429" height="3.429"/>
			<rect x="54.459" y="39.969" fill="#FFFFFF" width="3.429" height="3.429"/>
			<rect x="6.501" y="43.345" fill="#FFFFFF" width="3.429" height="3.429"/>
			<rect x="6.501" y="5.999" fill="#FFFFFF" width="3.429" height="3.429"/>
			<rect x="6.501" y="9.428" fill="#FFFFFF" width="3.429" height="3.429"/>
			<rect x="6.501" y="12.75" fill="#FFFFFF" width="3.429" height="3.429"/>
			<rect x="6.501" y="16.179" fill="#FFFFFF" width="3.429" height="3.429"/>
			<rect x="6.501" y="19.608" fill="#FFFFFF" width="3.429" height="3.429"/>
			<rect x="6.501" y="23.038" fill="#FFFFFF" width="3.429" height="3.429"/>
			<rect x="6.501" y="26.36" fill="#FFFFFF" width="3.429" height="3.429"/>
			<rect x="6.501" y="29.789" fill="#FFFFFF" width="3.429" height="3.429"/>
			<rect x="6.501" y="33.218" fill="#FFFFFF" width="3.429" height="3.429"/>
			<rect x="6.501" y="36.647" fill="#FFFFFF" width="3.429" height="3.429"/>
			<rect x="6.501" y="39.969" fill="#FFFFFF" width="3.429" height="3.429"/>
			<rect x="9.913" y="39.969" fill="#FFFFFF" width="3.429" height="3.429"/>
		</g>
		
			<rect x="6.501" y="5.945" fill="none" stroke="#45537D" stroke-width="0.4286" stroke-linejoin="round" stroke-miterlimit="10" width="51.404" height="40.829"/>
	</g>
	<g display="none">
		
			<use xlink:href="#ELastoLite"  width="239.542" height="160.787" id="XMLID_2_" x="-119.771" y="-80.393" transform="matrix(0.6629 0 0 -0.6629 31.2262 55.2653)" overflow="visible"/>
	</g>
</g>
</svg>
