<?xml version="1.0" encoding="utf-8"?>
<!-- Generator: Adobe Illustrator 17.1.0, SVG Export Plug-In . SVG Version: 6.00 Build 0)  -->
<!DOCTYPE svg PUBLIC "-//W3C//DTD SVG 1.1//EN" "http://www.w3.org/Graphics/SVG/1.1/DTD/svg11.dtd">
<svg version="1.1" xmlns="http://www.w3.org/2000/svg" xmlns:xlink="http://www.w3.org/1999/xlink" x="0px" y="0px"
	 viewBox="0 0 127.8 114.2" enable-background="new 0 0 127.8 114.2" xml:space="preserve">
<g id="_x33_30R">
	<g>
		<g>
			<defs>
				<path id="SVGID_1_" d="M5.8,0C2.6,0,0,2.6,0,5.8v102.7c0,3.2,2.6,5.8,5.8,5.8H122c3.2,0,5.8-2.6,5.8-5.8V5.8
					c0-3.2-2.6-5.8-5.8-5.8H5.8z"/>
			</defs>
			<clipPath id="SVGID_2_">
				<use xlink:href="#SVGID_1_"  overflow="visible"/>
			</clipPath>
			<polygon clip-path="url(#SVGID_2_)" fill="#BDBEC0" points="147.2,-24.7 60.3,64.3 52.4,72.4 -14.5,140.9 -15.7,139.7 51.2,71.3 
				59.1,63.2 146.1,-25.8 			"/>
			<path clip-path="url(#SVGID_2_)" fill-rule="evenodd" clip-rule="evenodd" fill="#231F20" d="M66.9,52.3
				c-0.1,0.2-0.3,0.3-0.4,0.5c-0.9,1.5-1.6,2.4-2.3,3.2c-0.7,0.7-1.6,1.4-3.1,2.4c-0.2,0.1-0.4,0.3-0.5,0.4c-1.1,1.1-1,2.8-0.3,3.5
				l0.9,0.9c0.8,0.7,2.4,0.8,3.5-0.4c0.1-0.2,0.3-0.3,0.4-0.5c0.9-1.5,1.6-2.4,2.3-3.2c0.7-0.8,1.6-1.4,3.1-2.4
				c0.2-0.1,0.4-0.3,0.5-0.4c1.1-1.1,1-2.8,0.3-3.5l-0.9-0.9c-0.4-0.4-1-0.6-1.7-0.5C68,51.5,67.4,51.8,66.9,52.3"/>
			<path clip-path="url(#SVGID_2_)" fill-rule="evenodd" clip-rule="evenodd" fill="#F5C274" d="M70.4,56.5
				c-2.8,1.8-3.7,2.8-5.5,5.6c-0.9,1.4-2.7,1.6-3.5,0.8l-0.9-0.9c-0.8-0.7-0.7-2.6,0.7-3.5c2.8-1.8,3.7-2.8,5.5-5.6
				c0.9-1.4,2.7-1.6,3.5-0.8l0.9,0.9C71.9,53.7,71.8,55.6,70.4,56.5"/>
		</g>
		<g>
			<defs>
				<path id="SVGID_3_" d="M66.7,52.9c-1.8,2.9-2.7,3.8-5.5,5.6c-1.4,0.9-1.5,2.8-0.7,3.5l0.9,0.9c0.8,0.7,2.6,0.6,3.5-0.8
					c1.8-2.9,2.7-3.8,5.5-5.6c1.4-0.9,1.5-2.8,0.7-3.5l-0.9-0.9c-0.3-0.3-0.8-0.4-1.3-0.4C68.2,51.7,67.3,52.1,66.7,52.9"/>
			</defs>
			<clipPath id="SVGID_4_">
				<use xlink:href="#SVGID_3_"  overflow="visible"/>
			</clipPath>
			<path clip-path="url(#SVGID_4_)" fill="#FF5000" d="M60.9,58.2c-0.2,0.2-0.2,0.5,0,0.7l3.6,3.6c0.2,0.2,0.5,0.2,0.7,0
				c0.2-0.2,0.2-0.5,0-0.7l-3.6-3.6C61.4,58,61,58,60.9,58.2"/>
			<path clip-path="url(#SVGID_4_)" fill="#FF5000" d="M62.8,57c-0.2,0.2-0.2,0.5,0,0.7l3,2.9c0.2,0.2,0.5,0.2,0.7,0
				c0.2-0.2,0.2-0.5,0-0.7l-3-2.9C63.3,56.8,62.9,56.8,62.8,57"/>
			<path clip-path="url(#SVGID_4_)" fill="#A75A29" d="M64.4,55.5c-0.2,0.2-0.2,0.5,0,0.7l2.8,2.7c0.2,0.2,0.5,0.2,0.7,0
				c0.2-0.2,0.2-0.5,0-0.7l-2.8-2.7C64.9,55.3,64.6,55.3,64.4,55.5"/>
			<path clip-path="url(#SVGID_4_)" fill="#BF9B4E" d="M66.9,52c-0.2,0.2-0.2,0.5,0,0.7l3.6,3.6c0.2,0.2,0.5,0.2,0.7,0
				c0.2-0.2,0.2-0.5,0-0.7L67.6,52C67.4,51.8,67.1,51.8,66.9,52"/>
		</g>
	</g>
</g>
<g id="_x31_0K">
	<g display="none">
		<g>
			<defs>
				<path id="SVGID_5_" d="M5.8,0C2.6,0,0,2.6,0,5.8v102.7c0,3.2,2.6,5.8,5.8,5.8H122c3.2,0,5.8-2.6,5.8-5.8V5.8
					c0-3.2-2.6-5.8-5.8-5.8H5.8z"/>
			</defs>
			<clipPath id="SVGID_6_" display="inline">
				<use xlink:href="#SVGID_5_"  overflow="visible"/>
			</clipPath>
			<polygon display="inline" clip-path="url(#SVGID_6_)" fill="#BDBEC0" points="147.2,-24.7 60.3,64.3 52.4,72.4 -14.5,140.9 
				-15.7,139.7 51.2,71.3 59.1,63.2 146.1,-25.8 			"/>
			<path display="inline" clip-path="url(#SVGID_6_)" fill-rule="evenodd" clip-rule="evenodd" fill="#231F20" d="M66.9,52.3
				c-0.1,0.2-0.3,0.3-0.4,0.5c-0.9,1.5-1.6,2.4-2.3,3.2c-0.7,0.7-1.6,1.4-3.1,2.4c-0.2,0.1-0.4,0.3-0.5,0.4c-1.1,1.1-1,2.8-0.3,3.5
				l0.9,0.9c0.8,0.7,2.4,0.8,3.5-0.4c0.1-0.2,0.3-0.3,0.4-0.5c0.9-1.5,1.6-2.4,2.3-3.2c0.7-0.8,1.6-1.4,3.1-2.4
				c0.2-0.1,0.4-0.3,0.5-0.4c1.1-1.1,1-2.8,0.3-3.5l-0.9-0.9c-0.4-0.4-1-0.6-1.7-0.5C68,51.5,67.4,51.8,66.9,52.3"/>
			<path display="inline" clip-path="url(#SVGID_6_)" fill-rule="evenodd" clip-rule="evenodd" fill="#F5C274" d="M70.4,56.5
				c-2.8,1.8-3.7,2.8-5.5,5.6c-0.9,1.4-2.7,1.6-3.5,0.8l-0.9-0.9c-0.8-0.7-0.7-2.6,0.7-3.5c2.8-1.8,3.7-2.8,5.5-5.6
				c0.9-1.4,2.7-1.6,3.5-0.8l0.9,0.9C71.9,53.7,71.8,55.6,70.4,56.5"/>
		</g>
		<g>
			<defs>
				<path id="SVGID_7_" d="M66.7,52.9c-1.8,2.9-2.7,3.8-5.5,5.6c-1.4,0.9-1.5,2.8-0.7,3.5l0.9,0.9c0.8,0.7,2.6,0.6,3.5-0.8
					c1.8-2.9,2.7-3.8,5.5-5.6c1.4-0.9,1.5-2.8,0.7-3.5l-0.9-0.9c-0.3-0.3-0.8-0.4-1.3-0.4C68.2,51.7,67.3,52.1,66.7,52.9"/>
			</defs>
			<clipPath id="SVGID_8_" display="inline">
				<use xlink:href="#SVGID_7_"  overflow="visible"/>
			</clipPath>
			<path display="inline" clip-path="url(#SVGID_8_)" fill="#FF5000" d="M60.9,58.2c-0.2,0.2-0.2,0.5,0,0.7l3.6,3.6
				c0.2,0.2,0.5,0.2,0.7,0c0.2-0.2,0.2-0.5,0-0.7l-3.6-3.6C61.4,58,61,58,60.9,58.2"/>
			<path display="inline" clip-path="url(#SVGID_8_)" fill="#FF5000" d="M62.8,57c-0.2,0.2-0.2,0.5,0,0.7l3,2.9
				c0.2,0.2,0.5,0.2,0.7,0c0.2-0.2,0.2-0.5,0-0.7l-3-2.9C63.3,56.8,62.9,56.8,62.8,57"/>
			<path display="inline" clip-path="url(#SVGID_8_)" fill="#A75A29" d="M64.4,55.5c-0.2,0.2-0.2,0.5,0,0.7l2.8,2.7
				c0.2,0.2,0.5,0.2,0.7,0c0.2-0.2,0.2-0.5,0-0.7l-2.8-2.7C64.9,55.3,64.6,55.3,64.4,55.5"/>
			<path display="inline" clip-path="url(#SVGID_8_)" fill="#BF9B4E" d="M66.9,52c-0.2,0.2-0.2,0.5,0,0.7l3.6,3.6
				c0.2,0.2,0.5,0.2,0.7,0c0.2-0.2,0.2-0.5,0-0.7L67.6,52C67.4,51.8,67.1,51.8,66.9,52"/>
		</g>
	</g>
	<g>
		<g>
			<defs>
				<path id="SVGID_9_" d="M5.8,0C2.6,0,0,2.6,0,5.8v102.7c0,3.2,2.6,5.8,5.8,5.8H122c3.2,0,5.8-2.6,5.8-5.8V5.8
					c0-3.2-2.6-5.8-5.8-5.8H5.8z"/>
			</defs>
			<clipPath id="SVGID_10_">
				<use xlink:href="#SVGID_9_"  overflow="visible"/>
			</clipPath>
			<polygon clip-path="url(#SVGID_10_)" fill="#BDBEC0" points="147.2,-24.7 60.3,64.3 52.4,72.4 -14.5,140.9 -15.7,139.7 
				51.2,71.3 59.1,63.2 146.1,-25.8 			"/>
			<path clip-path="url(#SVGID_10_)" fill-rule="evenodd" clip-rule="evenodd" fill="#231F20" d="M66.9,52.3
				c-0.1,0.2-0.3,0.3-0.4,0.5c-0.9,1.5-1.6,2.4-2.3,3.2c-0.7,0.7-1.6,1.4-3.1,2.4c-0.2,0.1-0.4,0.3-0.5,0.4c-1.1,1.1-1,2.8-0.3,3.5
				l0.9,0.9c0.8,0.7,2.4,0.8,3.5-0.4c0.1-0.2,0.3-0.3,0.4-0.5c0.9-1.5,1.6-2.4,2.3-3.2c0.7-0.8,1.6-1.4,3.1-2.4
				c0.2-0.1,0.4-0.3,0.5-0.4c1.1-1.1,1-2.8,0.3-3.5l-0.9-0.9c-0.4-0.4-1-0.6-1.7-0.5C68,51.5,67.4,51.8,66.9,52.3"/>
			<path clip-path="url(#SVGID_10_)" fill-rule="evenodd" clip-rule="evenodd" fill="#F5C274" d="M70.4,56.5
				c-2.8,1.8-3.7,2.8-5.5,5.6c-0.9,1.4-2.7,1.6-3.5,0.8l-0.9-0.9c-0.8-0.7-0.7-2.6,0.7-3.5c2.8-1.8,3.7-2.8,5.5-5.6
				c0.9-1.4,2.7-1.6,3.5-0.8l0.9,0.9C71.9,53.7,71.8,55.6,70.4,56.5"/>
		</g>
		<g>
			<defs>
				<path id="SVGID_11_" d="M66.7,52.9c-1.8,2.9-2.7,3.8-5.5,5.6c-1.4,0.9-1.5,2.8-0.7,3.5l0.9,0.9c0.8,0.7,2.6,0.6,3.5-0.8
					c1.8-2.9,2.7-3.8,5.5-5.6c1.4-0.9,1.5-2.8,0.7-3.5l-0.9-0.9c-0.3-0.3-0.8-0.4-1.3-0.4C68.2,51.7,67.3,52.1,66.7,52.9"/>
			</defs>
			<clipPath id="SVGID_12_">
				<use xlink:href="#SVGID_11_"  overflow="visible"/>
			</clipPath>
			<path clip-path="url(#SVGID_12_)" fill="#A75A29" d="M60.9,58.2c-0.2,0.2-0.2,0.5,0,0.7l3.6,3.6c0.2,0.2,0.5,0.2,0.7,0
				c0.2-0.2,0.2-0.5,0-0.7l-3.6-3.6C61.4,58,61,58,60.9,58.2"/>
			<path clip-path="url(#SVGID_12_)" fill="#231F20" d="M62.8,57c-0.2,0.2-0.2,0.5,0,0.7l3,2.9c0.2,0.2,0.5,0.2,0.7,0
				c0.2-0.2,0.2-0.5,0-0.7l-3-2.9C63.3,56.8,62.9,56.8,62.8,57"/>
			<path clip-path="url(#SVGID_12_)" fill="#FF5000" d="M64.4,55.5c-0.2,0.2-0.2,0.5,0,0.7l2.8,2.7c0.2,0.2,0.5,0.2,0.7,0
				c0.2-0.2,0.2-0.5,0-0.7l-2.8-2.7C64.9,55.3,64.6,55.3,64.4,55.5"/>
			<path clip-path="url(#SVGID_12_)" fill="#BF9B4E" d="M66.9,52c-0.2,0.2-0.2,0.5,0,0.7l3.6,3.6c0.2,0.2,0.5,0.2,0.7,0
				c0.2-0.2,0.2-0.5,0-0.7L67.6,52C67.4,51.8,67.1,51.8,66.9,52"/>
		</g>
	</g>
</g>
</svg>
